<svg width="1440" height="2501" viewBox="0 0 1440 2501" fill="none" xmlns="http://www.w3.org/2000/svg">
<rect y="1104" width="1441" height="1289" fill="#79C9BC"/>
<ellipse cx="450" cy="2313" rx="496" ry="188" fill="#79C9BC"/>
<ellipse cx="1202" cy="2238" rx="496" ry="196" fill="#79C9BC"/>
<path d="M-222.106 1045.4C-211.473 1026.44 -197.992 1009.41 -180.984 995.417C-51.1531 888.376 106.545 916.704 267.759 967.643C428.991 1018.61 581.352 879.044 722.83 915.676C893.171 959.796 902.522 1139.37 1077.61 1081.68C1252.69 1024 1251.62 750.788 1516.5 680.623C1584.53 662.61 1644.22 650.025 1695.32 641.251L1780.1 763.33L297.218 1793.18L-222.106 1045.4Z" fill="#79C9BC"/>
<path d="M280.368 929.842C305.023 935.955 326.957 961.694 329.439 987.323C331.881 1012.95 313.909 1028.79 289.253 1022.67C264.638 1016.56 242.664 990.821 240.222 965.192C237.78 939.563 255.752 923.73 280.368 929.842Z" fill="url(#paint0_linear_365_226)"/>
<path d="M343.775 978.794C341.333 953.165 319.359 927.425 294.703 921.313C284.497 918.772 275.411 920.024 268.486 924.148L254.117 932.728C261.042 928.567 270.127 927.352 280.334 929.892C304.99 936.005 326.924 961.744 329.405 987.373C330.846 1002.36 325.283 1014 315.476 1019.85L329.846 1011.27C339.652 1005.42 345.215 993.781 343.775 978.794Z" fill="url(#paint1_linear_365_226)"/>
<path d="M1157.66 984.064C1161.93 964.752 1188 935.477 1215.87 918.72C1243.74 901.906 1262.87 903.95 1258.59 923.262C1254.32 942.574 1228.28 971.828 1200.41 988.641C1172.53 1005.45 1153.39 1003.38 1157.66 984.064Z" fill="url(#paint2_linear_365_226)"/>
<path d="M1256.77 910.854L1268.74 924.45C1271.09 927.092 1271.81 931.257 1270.56 936.856C1266.29 956.168 1240.26 985.422 1212.38 1002.24C1192.58 1014.16 1177.21 1016.6 1171.47 1010.1L1159.5 996.503C1165.24 1003 1180.63 1000.6 1200.41 988.639C1228.28 971.826 1254.32 942.572 1258.59 923.26C1259.84 917.661 1259.09 913.517 1256.77 910.854Z" fill="url(#paint3_linear_365_226)"/>
<rect x="1158" y="1129" width="355" height="907" fill="#79C9BC"/>
<rect x="1278" y="958.999" width="271" height="963" fill="#79C9BC"/>
<path d="M565.368 1733.84C590.023 1739.95 611.957 1765.69 614.439 1791.32C616.881 1816.95 598.909 1832.79 574.253 1826.67C549.638 1820.56 527.664 1794.82 525.222 1769.19C522.78 1743.56 540.752 1727.73 565.368 1733.84Z" fill="url(#paint4_linear_365_226)"/>
<path d="M628.775 1782.79C626.333 1757.16 604.359 1731.43 579.703 1725.31C569.497 1722.77 560.411 1724.02 553.486 1728.15L539.117 1736.73C546.042 1732.57 555.127 1731.35 565.334 1733.89C589.99 1740.01 611.924 1765.74 614.405 1791.37C615.846 1806.36 610.283 1818 600.476 1823.85L614.846 1815.27C624.652 1809.42 630.215 1797.78 628.775 1782.79Z" fill="url(#paint5_linear_365_226)"/>
<defs>
<linearGradient id="paint0_linear_365_226" x1="315.39" y1="1032.25" x2="259.664" y2="911.711" gradientUnits="userSpaceOnUse">
<stop stop-color="#EFAA07"/>
<stop offset="1" stop-color="#FCD327"/>
</linearGradient>
<linearGradient id="paint1_linear_365_226" x1="254.117" y1="969.956" x2="343.975" y2="969.956" gradientUnits="userSpaceOnUse">
<stop stop-color="#EFAA07"/>
<stop offset="1" stop-color="#FCD327"/>
</linearGradient>
<linearGradient id="paint2_linear_365_226" x1="1182.52" y1="906.74" x2="1232.54" y2="998.479" gradientUnits="userSpaceOnUse">
<stop stop-color="#EFAA07"/>
<stop offset="1" stop-color="#FCD327"/>
</linearGradient>
<linearGradient id="paint3_linear_365_226" x1="1161.32" y1="999.598" x2="1274.12" y2="933.269" gradientUnits="userSpaceOnUse">
<stop stop-color="#EFAA07"/>
<stop offset="1" stop-color="#FCD327"/>
</linearGradient>
<linearGradient id="paint4_linear_365_226" x1="600.39" y1="1836.25" x2="544.664" y2="1715.71" gradientUnits="userSpaceOnUse">
<stop stop-color="#EFAA07"/>
<stop offset="1" stop-color="#FCD327"/>
</linearGradient>
<linearGradient id="paint5_linear_365_226" x1="539.117" y1="1773.96" x2="628.975" y2="1773.96" gradientUnits="userSpaceOnUse">
<stop stop-color="#EFAA07"/>
<stop offset="1" stop-color="#FCD327"/>
</linearGradient>
</defs>
</svg>
