<svg width="1098" height="263" viewBox="0 0 1098 263" fill="none" xmlns="http://www.w3.org/2000/svg">
<path d="M777.354 139.551H828.144C832.424 139.551 836.554 137.471 838.734 133.791C839.724 132.111 840.394 130.061 840.264 127.611C839.844 119.441 830.624 120.701 826.434 124.891C826.434 124.891 831.464 107.081 818.054 102.891C804.644 98.7012 797.944 110.221 799.624 117.971C799.624 117.971 793.134 104.351 783.704 107.911C774.274 111.471 778.884 122.571 784.334 125.931C784.334 125.931 775.324 118.811 769.254 122.791C766.214 124.781 765.484 128.081 766.324 131.331C767.594 136.261 772.264 139.551 777.364 139.551H777.354Z" fill="white"/>
<path d="M774.771 193.142C774.771 193.142 793.858 222.497 827.76 218.922C861.661 215.347 877.13 182.287 859.19 179.383C841.25 176.479 835.744 195.489 867.239 211.764C898.749 228.032 947.816 203.573 979.307 186.288C1010.8 169.004 1064.4 172.829 1076.13 208.18" stroke="#5B8BB3" stroke-miterlimit="10"/>
<path d="M1043.71 118.072H1087.08C1090.73 118.072 1094.26 116.292 1096.12 113.152C1096.97 111.722 1097.54 109.962 1097.43 107.872C1097.07 100.892 1089.2 101.972 1085.62 105.542C1085.62 105.542 1089.91 90.3317 1078.46 86.7617C1067.01 83.1817 1061.29 93.0217 1062.72 99.6417C1062.72 99.6417 1057.17 88.0117 1049.12 91.0517C1041.07 94.0917 1045.01 103.572 1049.66 106.432C1049.66 106.432 1041.97 100.352 1036.78 103.752C1034.19 105.452 1033.56 108.272 1034.28 111.042C1035.37 115.252 1039.36 118.062 1043.7 118.062L1043.71 118.072Z" fill="white"/>
<path d="M772.42 170.23L745.1 187.43L724 154L772.42 170.23Z" fill="url(#paint0_linear_388_255)"/>
<path d="M724 154L755.57 180.84L760.86 187.43L761.94 176.83L724 154Z" fill="url(#paint1_linear_388_255)"/>
<path d="M754.07 181.78L760.86 187.43L755.57 180.84L754.07 181.78Z" fill="url(#paint2_linear_388_255)"/>
<path d="M34.7394 48.1972L85.5267 47.6746C89.8065 47.6306 93.9148 45.5082 96.0569 41.806C97.0295 40.1159 97.6784 38.0591 97.5232 35.6106C97.0191 27.4453 87.8126 28.8001 83.6659 33.033C83.6659 33.033 88.5124 15.1722 75.06 11.1204C61.6076 7.06858 55.0265 18.6569 56.7862 26.3892C56.7862 26.3892 50.1564 12.8367 40.7635 16.4935C31.3706 20.1504 36.0946 31.2024 41.5789 34.5061C41.5789 34.5061 32.4961 27.4792 26.4674 31.5214C23.448 33.5426 22.752 36.8499 23.6254 40.0911C24.946 45.0078 29.6496 48.2496 34.7494 48.1971L34.7394 48.1972Z" fill="white"/>
<path d="M55.9677 174.22C55.9677 174.22 72.3861 202.233 100.73 196.525C129.074 190.817 141.547 156.925 126.477 155.171C111.408 153.417 107.074 172.691 133.694 186.896C160.326 201.093 201.067 173.633 227.191 154.43C253.315 135.227 298.272 135.637 308.617 170.085" stroke="#5B8BB3" stroke-miterlimit="10"/>
<path d="M382.808 102.417L426.17 101.593C429.819 101.524 433.315 99.6771 435.115 96.5023C435.938 95.0564 436.474 93.2859 436.325 91.1984C435.832 84.2265 427.984 85.4558 424.472 89.0931C424.472 89.0931 428.473 73.8044 416.957 70.4525C405.441 67.0906 399.909 77.0375 401.464 83.6292C401.464 83.6292 395.695 72.1067 387.704 75.299C379.713 78.4914 383.832 87.8948 388.536 90.666C388.536 90.666 380.732 84.7331 375.607 88.2311C373.05 89.98 372.474 92.8115 373.246 95.5673C374.416 99.7558 378.459 102.49 382.798 102.407L382.808 102.417Z" fill="white"/>
<path d="M63.2234 156.756L33.926 170.316L17.28 134.46L63.2234 156.756Z" fill="url(#paint3_linear_388_255)"/>
<path d="M17.28 134.46L45.1536 165.121L49.5563 172.334L51.9846 161.96L17.28 134.46Z" fill="url(#paint4_linear_388_255)"/>
<path d="M43.5459 165.861L49.5566 172.334L45.1539 165.121L43.5459 165.861Z" fill="url(#paint5_linear_388_255)"/>
<defs>
<linearGradient id="paint0_linear_388_255" x1="732.65" y1="156.63" x2="756.57" y2="176.97" gradientUnits="userSpaceOnUse">
<stop stop-color="#1DDCBD"/>
<stop offset="1" stop-color="#65FBE3"/>
</linearGradient>
<linearGradient id="paint1_linear_388_255" x1="760.97" y1="168.15" x2="720.51" y2="173.75" gradientUnits="userSpaceOnUse">
<stop stop-color="#1DD6B8"/>
<stop offset="1" stop-color="#67F4DD"/>
</linearGradient>
<linearGradient id="paint2_linear_388_255" x1="754.07" y1="184.13" x2="760.86" y2="184.13" gradientUnits="userSpaceOnUse">
<stop stop-color="#1CD9BB"/>
<stop offset="1" stop-color="#40EDD0"/>
</linearGradient>
<linearGradient id="paint3_linear_388_255" x1="25.5221" y1="138.176" x2="46.6409" y2="161.411" gradientUnits="userSpaceOnUse">
<stop stop-color="#1DDCBD"/>
<stop offset="1" stop-color="#65FBE3"/>
</linearGradient>
<linearGradient id="paint4_linear_388_255" x1="52.134" y1="153.227" x2="11.29" y2="153.601" gradientUnits="userSpaceOnUse">
<stop stop-color="#1DD6B8"/>
<stop offset="1" stop-color="#67F4DD"/>
</linearGradient>
<linearGradient id="paint5_linear_388_255" x1="43.245" y1="168.192" x2="49.9791" y2="169.061" gradientUnits="userSpaceOnUse">
<stop stop-color="#1CD9BB"/>
<stop offset="1" stop-color="#40EDD0"/>
</linearGradient>
</defs>
</svg>
