<svg width="934" height="912" viewBox="0 0 934 912" fill="none" xmlns="http://www.w3.org/2000/svg">
<path d="M827.797 517.722L805.995 518.168L794.928 518.343C791.222 518.423 787.516 518.407 783.81 518.438H783.079V517.722L782.996 499.904V499.107H783.827L805.829 499.203C813.157 499.203 820.502 499.378 827.831 499.458H828.296V499.888C828.263 502.913 828.146 505.923 828.08 508.884L827.847 517.706L827.797 517.722ZM827.797 517.722L827.565 508.725C827.482 505.763 827.382 502.834 827.349 499.904L827.797 500.334C820.469 500.413 813.124 500.588 805.796 500.588L783.794 500.684L784.625 499.888L784.542 517.706L783.794 516.989C787.416 517.021 791.039 516.989 794.678 517.085L805.613 517.26L827.814 517.706L827.797 517.722Z" fill="#EBEBEB"/>
<path d="M803.235 540.191L781.433 540.636L770.365 540.812C766.659 540.891 762.954 540.875 759.248 540.907H758.517V540.191L758.434 522.372V521.576H759.264L781.266 521.672C788.595 521.672 795.94 521.847 803.268 521.926H803.733V522.356C803.7 525.382 803.584 528.391 803.517 531.353L803.285 540.175L803.235 540.191ZM803.235 540.191L803.002 531.194C802.919 528.232 802.819 525.302 802.786 522.372L803.235 522.802C795.907 522.882 788.561 523.057 781.233 523.057L759.231 523.153L760.062 522.356L759.979 540.175L759.231 539.458C762.854 539.49 766.477 539.458 770.116 539.554L781.05 539.729L803.252 540.175L803.235 540.191Z" fill="#EBEBEB"/>
<path d="M852.342 540.191L830.54 540.636L819.473 540.812C815.767 540.891 812.061 540.875 808.355 540.907H807.624V540.191L807.541 522.372V521.576H808.372L830.374 521.672C837.702 521.672 845.047 521.847 852.376 521.926H852.841V522.356C852.808 525.382 852.691 528.391 852.625 531.353L852.392 540.175L852.342 540.191ZM852.342 540.191L852.11 531.194C852.027 528.232 851.927 525.302 851.894 522.372L852.342 522.802C845.014 522.882 837.669 523.057 830.341 523.057L808.339 523.153L809.17 522.356L809.087 540.175L808.339 539.458C811.961 539.49 815.584 539.458 819.223 539.554L830.158 539.729L852.359 540.175L852.342 540.191Z" fill="#EBEBEB"/>
<path d="M196.642 540.191L174.84 540.636L163.772 540.812C160.067 540.891 156.361 540.875 152.655 540.907H151.924V540.191L151.841 522.372V521.576H152.672L174.674 521.672C182.002 521.672 189.347 521.847 196.675 521.926H197.141V522.356C197.107 525.382 196.991 528.391 196.925 531.353L196.692 540.175L196.642 540.191ZM196.642 540.191L196.409 531.194C196.326 528.232 196.227 525.302 196.193 522.372L196.642 522.802C189.314 522.882 181.969 523.057 174.64 523.057L152.638 523.153L153.469 522.356L153.386 540.175L152.638 539.458C156.261 539.49 159.884 539.458 163.523 539.554L174.457 539.729L196.659 540.175L196.642 540.191Z" fill="#EBEBEB"/>
<path d="M551.894 172.501L530.091 172.947L519.024 173.122C515.318 173.202 511.613 173.186 507.907 173.218H507.176V172.501L507.093 154.683V153.887H507.923L529.925 153.982C537.254 153.982 544.599 154.157 551.927 154.237H552.392V154.667C552.359 157.692 552.243 160.702 552.176 163.664L551.944 172.485L551.894 172.501ZM551.894 172.501L551.661 163.504C551.578 160.543 551.478 157.613 551.445 154.683L551.894 155.113C544.565 155.192 537.22 155.368 529.892 155.368L507.89 155.463L508.721 154.667L508.638 172.485L507.89 171.769C511.513 171.801 515.135 171.769 518.775 171.848L529.709 172.024L551.91 172.469L551.894 172.501Z" fill="#EBEBEB"/>
<path d="M527.351 194.97L505.549 195.416L494.481 195.591C490.776 195.671 487.07 195.655 483.364 195.671H482.633V194.954L482.55 177.136V176.34H483.381L505.383 176.435C512.711 176.435 520.056 176.611 527.384 176.69H527.85V177.12C527.816 180.146 527.7 183.155 527.634 186.117L527.401 194.938L527.351 194.97ZM527.351 194.97L527.118 185.974C527.035 183.012 526.936 180.082 526.902 177.152L527.351 177.582C520.023 177.661 512.678 177.837 505.349 177.837L483.347 177.932L484.178 177.136L484.095 194.954L483.347 194.238C486.97 194.27 490.593 194.238 494.232 194.317L505.166 194.493L527.368 194.938L527.351 194.97Z" fill="#EBEBEB"/>
<path d="M825.241 132.614L803.438 133.06L792.371 133.236C788.665 133.315 784.959 133.299 781.254 133.331H780.523V132.614L780.439 114.796V114H781.27L803.272 114.096C810.601 114.096 817.946 114.271 825.274 114.35H825.739V114.78C825.706 117.806 825.59 120.815 825.523 123.777L825.291 132.599L825.241 132.614ZM825.241 132.614L825.008 123.618C824.925 120.656 824.825 117.726 824.792 114.796L825.241 115.226C817.912 115.306 810.567 115.481 803.239 115.481L781.237 115.576L782.068 114.78L781.985 132.599L781.237 131.882C784.86 131.914 788.482 131.882 792.122 131.978L803.056 132.153L825.257 132.599L825.241 132.614Z" fill="#EBEBEB"/>
<path d="M849.801 155.083L827.999 155.529L816.931 155.704C813.226 155.784 809.52 155.768 805.814 155.8H805.083V155.083L805 137.265V136.469H805.831L827.833 136.564C835.161 136.564 842.506 136.739 849.835 136.819H850.3V137.249C850.267 140.274 850.15 143.284 850.084 146.246L849.851 155.067L849.801 155.083ZM849.801 155.083L849.569 146.087C849.486 143.125 849.386 140.195 849.353 137.265L849.801 137.695C842.473 137.774 835.128 137.95 827.799 137.95L805.798 138.045L806.629 137.249L806.545 155.067L805.798 154.351C809.42 154.383 813.043 154.351 816.682 154.446L827.617 154.621L849.818 155.067L849.801 155.083Z" fill="#EBEBEB"/>
<path d="M199.185 132.631L177.383 133.077L166.315 133.252C162.61 133.332 158.904 133.316 155.198 133.348H154.467V132.631L154.384 114.813V114.017H155.215L177.216 114.112C184.545 114.112 191.89 114.287 199.218 114.367H199.684V114.797C199.65 117.822 199.534 120.832 199.468 123.794L199.235 132.615L199.185 132.631ZM199.185 132.631L198.952 123.634C198.869 120.673 198.77 117.743 198.736 114.813L199.185 115.243C191.857 115.322 184.512 115.497 177.183 115.497L155.181 115.593L156.012 114.797L155.929 132.615L155.181 131.899C158.804 131.93 162.427 131.899 166.066 131.978L177 132.153L199.202 132.599L199.185 132.631Z" fill="#EBEBEB"/>
<path d="M68.9721 424.217C68.9721 424.217 31.7166 420.029 40.43 383.946C40.43 383.946 82.0522 391.446 68.9721 424.217Z" fill="#FFC727"/>
<path opacity="0.1" d="M68.9721 424.217C68.9721 424.217 31.7166 420.029 40.43 383.946C40.43 383.946 82.0522 391.446 68.9721 424.217Z" fill="black"/>
<path d="M67.0895 416.683C66.3551 414.852 65.5016 413.068 64.5489 411.301C64.529 411.078 64.4695 410.839 64.4497 410.616C64.3901 410.122 64.3504 409.629 64.2909 409.119C64.1916 408.036 64.0924 406.969 64.013 405.887C63.8542 403.737 63.6756 401.571 63.6359 399.422C63.6359 399.31 63.4175 399.31 63.4175 399.422C63.3977 401.587 63.358 403.737 63.4572 405.903C63.5168 406.985 63.5962 408.052 63.6756 409.135C63.6756 409.374 63.7153 409.613 63.7351 409.852C61.651 406.253 59.1303 402.813 56.2721 399.597C55.0018 398.164 53.6521 396.778 52.2032 395.457C50.7145 394.087 49.1465 392.798 47.638 391.444C47.5388 391.365 47.38 391.492 47.4792 391.572C50.2183 393.864 52.481 396.587 54.6644 399.231C55.7957 400.6 56.8675 402.017 57.8798 403.45C57.7607 403.419 57.6416 403.371 57.5424 403.339C57.1057 403.196 56.6691 403.052 56.2126 402.909C55.2003 402.591 54.188 402.288 53.1757 401.985C51.1711 401.396 49.1664 400.807 47.1815 400.202C47.0624 400.17 46.983 400.329 47.1021 400.377C49.087 401.014 51.052 401.683 52.9971 402.352C53.9498 402.686 54.9224 403.02 55.8751 403.355C56.3515 403.514 56.8477 403.673 57.3241 403.833C57.6416 403.944 57.9791 404.071 58.3165 404.119C59.0707 405.202 59.8051 406.285 60.4998 407.399C62.2266 410.186 63.755 413.068 65.0451 416.014C65.1443 416.221 65.2237 416.428 65.323 416.635C64.41 416.141 63.2389 415.807 62.2663 415.457C60.9762 414.979 59.686 414.517 58.4157 414.039C55.7957 413.084 53.2154 412.097 50.6947 410.966C50.5756 410.903 50.4565 411.078 50.5756 411.126C53.136 412.24 55.637 413.434 58.2172 414.565C59.5074 415.122 60.7777 415.664 62.1075 416.173C63.1794 416.587 64.3901 417.176 65.6009 417.304C66.7719 420.059 67.7445 422.861 68.0422 425.775C68.459 429.851 68.4193 433.976 68.5384 438.052C68.5384 438.132 68.6774 438.116 68.6774 438.052C69.0545 434.342 69.253 430.6 69.2728 426.874C69.2927 423.339 68.4193 420.043 67.0696 416.683H67.0895Z" fill="#263238"/>
<path d="M61.3492 395.477C61.0515 397.578 60.7935 399.728 60.9721 401.846C60.9721 401.91 61.0912 401.894 61.0912 401.846C61.25 399.728 61.2698 397.626 61.5676 395.524C61.5676 395.413 61.3691 395.365 61.3492 395.477Z" fill="#263238"/>
<path d="M50.6902 397.275C49.0428 396.718 47.3953 396.192 45.9067 395.38C45.7876 395.316 45.6685 395.476 45.7876 395.539C47.2961 396.288 48.9038 397.02 50.6306 397.386C50.7299 397.402 50.7894 397.291 50.6902 397.259V397.275Z" fill="#263238"/>
<path d="M70.1647 481.508C70.125 478.212 70.0655 474.9 70.0059 471.604C69.9265 460.633 69.8074 449.661 69.5693 438.706C69.3708 429.996 69.1127 421.302 68.815 412.592C68.815 412.544 68.7753 412.512 68.7158 412.48C68.7158 410.108 68.6959 407.719 68.6761 405.347C68.6761 405.283 68.5967 405.251 68.4974 405.251C68.3982 405.251 68.3188 405.283 68.3188 405.347C68.3188 407.735 68.2791 410.108 68.2593 412.496C68.2196 412.528 68.1799 412.56 68.1799 412.592C67.6241 428.085 67.1478 443.595 67.0287 459.088C67.0088 462.241 67.0088 465.394 66.989 468.547C66.85 478.658 66.7905 488.753 66.85 498.865C66.85 500.473 66.8103 502.081 66.8103 503.69C66.7706 512.941 66.9294 522.177 66.9294 531.428C66.9294 531.922 67.6241 532.177 68.3585 532.193C69.1921 532.224 70.0853 531.954 70.0853 531.38C70.0853 521.189 70.1647 510.983 70.1647 500.792C70.2044 494.359 70.2441 487.941 70.1647 481.508Z" fill="#263238"/>
<path d="M54.603 471.476C54.603 471.476 36.6799 460.824 19.6698 468.021C2.65969 475.219 0 502.957 0 502.957C0 502.957 24.9693 505.823 40.7091 493.817C55.8733 482.241 54.603 471.476 54.603 471.476Z" fill="#FFC727"/>
<path d="M59.4876 472.127C56.2523 471.028 52.6399 470.757 49.1068 471.044C48.3923 470.917 47.638 470.917 46.9037 470.869C46.07 470.821 45.2165 470.773 44.3829 470.71C42.6362 470.598 40.8896 470.519 39.1628 470.407C35.6297 470.2 32.0769 470.025 28.5637 469.738C28.4446 469.738 28.4049 469.898 28.5439 469.913C32.0372 470.264 35.5107 470.678 39.004 470.948C40.8102 471.092 42.6164 471.251 44.4028 471.347C44.8196 471.378 45.2761 471.41 45.7127 471.442C45.1768 471.538 44.6409 471.633 44.1249 471.761C41.3064 472.397 38.607 473.321 36.0069 474.404C34.5976 474.611 33.1884 474.929 31.799 475.184C29.576 475.598 27.3728 476.06 25.1696 476.522C20.8228 477.429 16.5157 478.464 12.1888 479.467C12.0498 479.499 12.1094 479.675 12.2483 479.643C16.5554 478.799 20.9022 478.018 25.2292 477.19C27.3331 476.792 29.437 476.394 31.5211 475.98C32.057 475.869 32.6128 475.773 33.1685 475.678C28.3454 478.066 23.9986 481.124 20.4259 484.563C16.8531 488.002 14.0148 491.76 11.5735 495.757C11.5139 495.853 11.6925 495.964 11.7719 495.853C14.6698 491.776 18.3021 487.955 22.4901 484.579C22.4107 484.77 22.3313 484.961 22.2519 485.152C21.9145 485.996 21.5969 486.84 21.2595 487.684C20.6045 489.372 19.9296 491.06 19.2945 492.764C19.2548 492.875 19.4731 492.923 19.5128 492.811C20.2671 491.171 20.9816 489.515 21.716 487.875C22.0733 487.063 22.4305 486.251 22.7878 485.455C22.9665 485.041 23.1451 484.611 23.3237 484.197C23.3833 484.069 23.4428 483.942 23.5024 483.815C25.507 482.254 27.6308 480.789 29.8539 479.467C32.7914 477.732 36.0069 476.251 39.3613 475.089C39.3017 475.343 39.2422 475.582 39.1826 475.821C39.004 476.474 38.8253 477.127 38.6467 477.78C38.2894 479.133 37.9719 480.503 37.6344 481.872C36.9596 484.659 36.5428 487.477 35.8878 490.248C35.8679 490.359 36.0664 490.407 36.1061 490.295C36.9 487.493 37.952 484.738 38.7261 481.936C39.1231 480.534 39.5002 479.133 39.8773 477.732C40.0559 477.079 40.2147 476.41 40.3735 475.757C40.4728 475.391 40.572 475.025 40.6316 474.659C40.9491 474.547 41.2667 474.436 41.6041 474.34C46.3082 472.939 51.5085 471.936 56.5103 472.7C61.3136 473.433 65.4222 476.012 67.288 479.627C67.4468 479.945 68.0621 479.738 67.9827 479.42C67.0101 475.964 63.4175 473.401 59.4677 472.079L59.4876 472.127Z" fill="#263238"/>
<path d="M32.0556 483.976C31.5395 485.791 31.0433 487.622 30.5471 489.438C30.0707 491.173 29.4753 492.973 29.2966 494.756C29.2966 494.82 29.4157 494.836 29.4356 494.756C30.17 493.036 30.5272 491.173 30.9639 489.406C31.4006 487.606 31.8372 485.807 32.2739 484.008C32.2937 483.896 32.0953 483.848 32.0556 483.96V483.976Z" fill="#263238"/>
<path d="M14.7292 488.61C12.4467 489.534 10.2435 490.601 7.86169 491.349C7.7029 491.397 7.80214 491.572 7.96093 491.508C10.2633 490.585 12.6253 489.773 14.7888 488.674C14.8483 488.642 14.7888 488.578 14.7292 488.61Z" fill="#263238"/>
<path d="M58.6293 451.908C58.6293 451.908 36.7365 453.023 26.5344 441.446C16.3522 429.854 18.6347 413.31 18.6347 413.31C18.6347 413.31 41.6391 415.555 50.7693 423.867C59.8996 432.179 58.6095 451.908 58.6095 451.908H58.6293Z" fill="#FFC727"/>
<path d="M68.9094 469.249C68.1552 467.371 67.2025 465.507 66.3291 463.66C65.4756 461.893 64.5626 460.125 63.6099 458.39C61.6449 454.855 59.4616 451.383 57.0401 448.039C55.4919 445.906 53.8445 443.836 52.1375 441.797C52.0978 441.479 52.0184 441.176 51.9589 440.858C51.8596 440.317 51.7604 439.775 51.6611 439.234C51.4428 438.119 51.2046 437.005 50.9664 435.906C50.4702 433.485 49.8351 431.065 49.3587 428.645C49.3389 428.533 49.1007 428.533 49.1404 428.645C49.577 431.049 49.8748 433.454 50.2916 435.858C50.4901 437.036 50.6886 438.215 50.9069 439.393C50.9863 439.823 51.0657 440.237 51.1649 440.667C47.8105 436.75 44.218 432.992 40.3277 429.393C39.8116 428.915 39.2559 428.438 38.7199 427.96C38.6604 427.833 38.581 427.689 38.5215 427.562C38.3627 427.228 38.2039 426.893 38.0451 426.559C37.7275 425.858 37.41 425.157 37.0924 424.457C36.4771 423.087 35.9213 421.686 35.4648 420.285C35.4251 420.173 35.2068 420.221 35.2465 420.333C35.6831 421.782 36.1595 423.215 36.6756 424.632C36.9336 425.317 37.2115 426.001 37.5092 426.67C37.5687 426.782 37.6084 426.893 37.668 427.005C34.8694 424.552 31.9516 422.196 28.9942 419.871C28.895 419.791 28.7362 419.919 28.8354 419.998C34.5518 424.696 39.6131 429.887 44.3569 435.253C43.821 435.11 43.2652 435.014 42.7293 434.919C41.0422 434.664 39.3353 434.457 37.6481 434.298C34.0754 433.931 30.5225 433.565 26.9697 433.119C26.8307 433.103 26.7712 433.278 26.9101 433.294C30.3042 433.836 33.6586 434.441 37.0328 435.062C38.6207 435.348 40.2284 435.603 41.8163 435.858C43.1462 436.065 44.3966 436.399 45.6669 436.734C46.0242 437.148 46.3814 437.546 46.7387 437.944C48.3464 439.823 49.8946 441.734 51.4031 443.661C50.6489 443.533 49.9145 443.422 49.1602 443.31C47.4731 443.04 45.7661 442.801 44.079 442.578C40.7445 442.132 37.3901 441.67 34.0953 441.065C33.9563 441.033 33.8968 441.208 34.0357 441.24C37.3901 441.877 40.7048 442.61 44.0195 443.31C45.6272 443.661 47.2349 443.963 48.8625 444.25C49.6763 444.393 50.4901 444.536 51.3039 444.664C51.6611 444.727 51.9787 444.791 52.2963 444.807C55.4919 448.963 58.5088 453.231 61.2678 457.578C62.4984 459.488 63.6694 461.415 64.8008 463.358C65.9718 465.348 66.9643 467.386 68.0559 469.409C68.2743 469.807 69.0682 469.648 68.8896 469.202L68.9094 469.249Z" fill="#263238"/>
<path d="M46.5005 428.867C46.0837 427.195 45.647 425.523 45.1706 423.852C45.131 423.74 44.9325 423.788 44.9523 423.899C45.3691 425.539 45.7661 427.195 46.1432 428.851C46.5203 430.492 46.8181 432.164 47.3937 433.772C47.3937 433.804 47.4532 433.788 47.4532 433.772C47.3341 432.132 46.8975 430.476 46.5005 428.867Z" fill="#263238"/>
<path d="M33.7221 428.374C32.7098 427.976 31.638 427.642 30.5662 427.307C30.0104 427.132 29.4547 426.957 28.8989 426.782C28.621 426.686 28.3431 426.607 28.0454 426.511C27.7477 426.415 27.3706 426.336 27.1125 426.193C26.9538 426.097 26.8347 426.32 27.0133 426.352C27.3309 426.4 27.6484 426.559 27.9462 426.654C28.2241 426.75 28.5019 426.845 28.7798 426.957C29.3157 427.148 29.8516 427.339 30.3875 427.53C31.4395 427.912 32.5113 428.279 33.6228 428.565C33.7419 428.597 33.8213 428.438 33.7022 428.39L33.7221 428.374Z" fill="#263238"/>
<path d="M81.0627 438.102C81.0627 438.102 94.3215 418.245 114.487 415.156C134.653 412.083 146.999 428.723 146.999 428.723C146.999 428.723 132.292 443.786 113.793 446.414C95.2941 449.041 81.0826 438.086 81.0826 438.086L81.0627 438.102Z" fill="#FFC727"/>
<path d="M127.984 424.056C122.763 423.483 117.404 423.547 112.164 424.199C112.462 424.072 112.76 423.929 113.058 423.817C114.546 423.212 116.035 422.591 117.523 421.97C120.62 420.68 123.756 419.295 126.991 418.26C127.15 418.212 127.051 418.037 126.892 418.101C123.736 419.279 120.461 420.266 117.305 421.429C115.717 422.018 114.169 422.623 112.621 423.276C111.628 423.706 110.517 424.104 109.544 424.597C105.118 425.33 100.791 426.46 96.7223 428.021C97.5559 427.289 98.4094 426.556 99.2431 425.824C101.129 424.168 102.975 422.448 105.039 420.935C105.138 420.855 104.979 420.728 104.88 420.808C102.776 422.352 100.533 423.769 98.4888 425.362C97.4964 426.142 96.5437 426.938 95.6108 427.766C95.1543 428.18 94.6779 428.61 94.2412 429.04C85.4682 432.862 78.0052 438.642 73.0828 445.616C70.2842 449.581 68.3391 453.865 67.2077 458.323C67.1878 458.435 67.3863 458.498 67.426 458.387C70.185 450.887 75.4249 443.849 82.2528 438.26C89.6563 432.209 99.0247 427.83 109.267 425.728C115.36 424.47 121.652 424.04 127.904 424.375C128.162 424.375 128.182 424.088 127.924 424.056H127.984Z" fill="#263238"/>
<path opacity="0.1" d="M146.977 428.723C146.977 428.723 132.27 443.787 113.751 446.414C99.6388 448.421 88.0275 442.513 83.3035 439.615L82.2913 438.277C82.2913 438.277 91.8384 431.828 109.9 428.102C127.962 424.376 146.977 428.739 146.977 428.739V428.723Z" fill="black"/>
<path d="M116.275 416.97C114.747 417.719 113.218 418.467 111.789 419.343C110.38 420.203 109.09 421.142 107.899 422.193C107.8 422.289 107.958 422.4 108.078 422.32C109.407 421.381 110.757 420.457 112.146 419.566C113.516 418.706 114.905 417.846 116.394 417.113C116.513 417.05 116.394 416.891 116.275 416.954V416.97Z" fill="#263238"/>
<path d="M127.348 420.33C126.594 420.585 125.84 420.792 125.086 421.047C124.331 421.302 123.597 421.541 122.843 421.795C122.684 421.843 122.763 422.05 122.922 422.002C123.676 421.764 124.431 421.509 125.165 421.27C125.919 421.031 126.654 420.744 127.408 420.506C127.547 420.458 127.467 420.283 127.348 420.33Z" fill="#263238"/>
<path d="M78.4004 463.088C78.4004 463.088 81.9334 482.785 100.412 489.68C118.871 496.575 141.399 489.68 141.399 489.68C141.399 489.68 132.547 447.053 78.4004 463.088Z" fill="#FFC727"/>
<path d="M128.676 476.878C126.969 476.719 125.282 476.496 123.595 476.241C122.762 476.114 121.948 476.002 121.114 475.859C120.697 475.795 120.261 475.716 119.824 475.652C119.328 475.286 118.832 474.904 118.335 474.537C114.842 472.069 111.051 469.872 107.042 467.961C104.858 466.926 102.596 465.987 100.273 465.174C100.392 465.174 100.511 465.174 100.631 465.174C102.655 465.238 104.68 465.318 106.704 465.381C110.753 465.525 114.802 465.604 118.871 465.811C119.01 465.811 119.01 465.636 118.871 465.636C114.802 465.413 110.753 465.063 106.704 464.776C104.739 464.633 102.774 464.49 100.789 464.362C99.7771 464.283 98.7648 464.219 97.7525 464.155C97.4945 464.139 97.2365 464.108 96.9785 464.092C95.9265 463.773 94.8547 463.471 93.7829 463.216C88.7414 461.958 83.3227 461.464 78.1423 462.531C73.4978 463.487 68.8532 465.923 67.6623 469.856C67.6226 469.999 67.8807 470.079 67.9601 469.951C69.6869 466.671 74.2322 465.015 78.3408 464.331C81.0997 463.869 83.9182 463.901 86.697 464.203C86.8161 465.206 87.2924 466.257 87.6298 467.181C88.1459 468.566 88.6421 469.952 89.178 471.337C90.23 474.108 91.3812 476.846 92.3935 479.617C92.4332 479.728 92.6515 479.681 92.6118 479.569C91.7583 476.799 91.0239 474.012 90.1903 471.241C89.7735 469.888 89.3567 468.518 88.9398 467.165C88.662 466.289 88.4436 465.27 88.007 464.362C89.6345 464.585 91.2423 464.904 92.7904 465.27C95.6288 465.939 98.4274 466.767 101.166 467.738C101.444 469.139 101.821 470.541 102.238 471.926C102.735 473.662 103.31 475.381 103.985 477.085C104.025 477.197 104.223 477.149 104.183 477.037C104.164 476.926 104.124 476.83 104.104 476.719C103.687 475.111 103.251 473.502 102.814 471.894C102.476 470.604 102.159 469.299 101.802 467.993C104.104 468.821 106.347 469.729 108.53 470.732C108.57 471.13 108.689 471.544 108.768 471.91C108.907 472.579 109.046 473.264 109.205 473.932C109.562 475.445 109.939 476.974 110.376 478.471C111.249 481.369 112.222 484.251 113.552 487.037C113.532 487.069 113.512 487.117 113.552 487.149C113.592 487.181 113.631 487.213 113.651 487.244C113.731 487.324 113.869 487.244 113.83 487.149C112.976 484.235 112.004 481.337 111.21 478.407C110.813 476.942 110.416 475.477 110.039 474.012C109.86 473.279 109.681 472.547 109.523 471.799C109.483 471.592 109.443 471.369 109.404 471.146C111.904 472.324 114.306 473.614 116.589 474.999C120.539 477.388 124.31 480.111 127.605 483.057C127.744 483.168 128.002 483.009 127.882 482.881C126.473 481.4 125.064 479.951 123.476 478.566C122.543 477.77 121.591 476.99 120.598 476.241C120.697 476.241 120.797 476.273 120.896 476.289C121.769 476.401 122.623 476.512 123.496 476.608C125.203 476.799 126.91 476.926 128.637 477.085C128.776 477.085 128.835 476.926 128.696 476.91L128.676 476.878Z" fill="#263238"/>
<path d="M115.697 483.549C115.677 483.374 115.637 483.215 115.598 483.04C115.538 482.817 115.419 482.61 115.379 482.403C115.002 481.081 114.685 479.76 114.387 478.422C114.367 478.326 114.188 478.358 114.188 478.454C114.268 480.205 114.804 481.957 115.598 483.597C115.618 483.645 115.737 483.645 115.737 483.581L115.697 483.549Z" fill="#263238"/>
<path d="M100.231 483.232C100.231 483.232 100.171 483.153 100.112 483.153C99.5959 481.401 99.0997 479.666 98.6432 477.898C98.405 476.974 98.1668 476.051 97.9485 475.127C97.8294 474.634 97.7103 474.124 97.611 473.631C97.5118 473.201 97.4721 472.739 97.2141 472.357C97.1744 472.293 97.0156 472.309 97.0156 472.389C96.8568 473.217 97.2935 474.22 97.4721 475.032C97.6904 475.987 97.9286 476.959 98.1866 477.914C98.7226 479.857 99.3379 481.799 100.013 483.71C100.052 483.822 100.271 483.79 100.251 483.678C100.251 483.535 100.231 483.392 100.211 483.248L100.231 483.232Z" fill="#263238"/>
<path d="M126.991 471.192C123.617 470.826 120.242 470.428 116.868 470.094C116.729 470.094 116.67 470.253 116.809 470.269C120.183 470.667 123.557 471.001 126.931 471.352C127.07 471.352 127.13 471.192 126.991 471.177V471.192Z" fill="#263238"/>
<path d="M68.9537 416.875C68.9537 416.875 57.6599 377.099 110.913 361C110.913 361 125.68 413.356 68.9537 416.875Z" fill="#FFC727"/>
<path d="M80.446 394.327C80.6445 394.231 80.843 394.12 81.0216 394.04C82.0339 393.594 83.0263 393.149 84.0386 392.687L90.2114 389.916C94.2803 388.085 98.2897 386.19 102.379 384.407C102.498 384.343 102.379 384.2 102.259 384.247C98.1508 386.031 93.9826 387.719 89.8541 389.454L83.7408 392.05C82.9072 392.4 82.0736 392.75 81.2399 393.101C83.0263 390.394 84.9119 387.751 86.996 385.187C89.7748 381.779 92.8314 378.531 96.0072 375.362C96.1461 375.219 95.9079 375.028 95.7491 375.155C91.0451 378.754 86.9761 382.894 83.4233 387.273C83.4233 387.13 83.4233 386.986 83.4233 386.859C83.4828 385.872 83.5225 384.884 83.5423 383.897C83.582 381.954 83.4629 380.012 83.5423 378.069C83.5423 377.958 83.324 377.958 83.324 378.069C83.2248 379.98 82.9469 381.891 82.808 383.802C82.7484 384.757 82.6889 385.712 82.6492 386.668C82.6492 387.177 82.5698 387.766 82.5896 388.34C81.498 389.741 80.446 391.158 79.4337 392.607C77.6672 395.171 76.0793 397.862 74.6701 400.617C74.6105 399.629 74.551 398.642 74.4716 397.639C74.3128 395.457 73.9754 393.292 73.8762 391.11C73.8762 390.999 73.638 390.999 73.6578 391.11C73.7174 393.292 73.5784 395.473 73.6578 397.655C73.6975 398.738 73.7372 399.836 73.8365 400.919C73.8762 401.317 73.896 401.731 73.9357 402.129C72.2287 405.696 70.879 409.375 69.9065 413.053C68.8744 417.034 68.4377 421.031 67.9216 425.059C67.9216 425.091 67.9812 425.091 67.9812 425.059C68.4575 421.46 69.5889 417.83 70.7997 414.343C71.4547 412.464 72.1493 410.601 72.9036 408.738C75.1266 407.894 77.2504 406.859 79.3742 405.903C81.5972 404.916 83.8401 403.945 86.0631 402.973C90.5091 401.015 94.9353 399.024 99.5203 397.305C99.6593 397.257 99.5203 397.098 99.4012 397.145C94.7567 398.833 90.0725 400.442 85.5073 402.273C83.2446 403.18 81.0017 404.168 78.7986 405.171C76.9527 405.999 75.0472 406.843 73.2807 407.798C73.7968 406.556 74.3327 405.33 74.9281 404.104C76.5358 400.76 78.3619 397.48 80.4063 394.279L80.446 394.327Z" fill="#263238"/>
<path d="M75.9575 385.237C75.9575 385.125 75.7194 385.125 75.7392 385.237C75.9377 387.514 76.0171 389.775 76.3347 392.036C76.3347 392.164 76.5927 392.164 76.5927 392.036C76.4935 389.759 76.1957 387.498 75.9774 385.237H75.9575Z" fill="#263238"/>
<path d="M101.487 392.832C98.1522 393.915 94.7978 394.934 91.4632 396.049C91.364 396.081 91.4037 396.208 91.5029 396.176C94.8772 395.173 98.1919 394.058 101.546 393.008C101.685 392.96 101.626 392.785 101.487 392.832Z" fill="#263238"/>
<path d="M106.547 374.489C103.292 375.699 100.116 377.037 97.0792 378.566C96.9204 378.645 97.0792 378.836 97.238 378.757C100.334 377.308 103.47 375.922 106.686 374.649C106.825 374.601 106.686 374.442 106.567 374.489H106.547Z" fill="#263238"/>
<path d="M105.732 502.896H28.9189V567.863H105.732V502.896Z" fill="#37474F"/>
<path d="M27.5716 525.874H23.6416V637.147H27.5716V525.874Z" fill="#263238"/>
<path d="M110.617 525.874H106.687V637.147H110.617V525.874Z" fill="#263238"/>
<path d="M71.1966 525.874H67.2666V637.147H71.1966V525.874Z" fill="#263238"/>
<path d="M108.653 563.692H25.6074V572.689H108.653V563.692Z" fill="#263238"/>
<path d="M882.889 0H185.104V413.793H882.889V0Z" fill="#455A64"/>
<path d="M861.987 25.3975H206.002V388.367H861.987V25.3975Z" fill="white"/>
<path d="M584.163 444.728H483.799C468.505 444.728 456.123 430.889 456.123 413.796H611.84C611.84 430.889 599.457 444.728 584.163 444.728Z" fill="#455A64"/>
<path d="M611.867 413.796C611.867 418.328 611.105 422.647 609.744 426.509L456.885 421.521C456.395 419.058 456.123 416.472 456.123 413.796H611.867Z" fill="#263238"/>
<path d="M724.969 438.609H342.998V456.067H724.969V438.609Z" fill="#455A64"/>
<path d="M934 456.072H134V700.968H934V456.072Z" fill="#EBEBEB"/>
<path d="M831.105 700.972L832.929 723.205L837.147 774.585H856.523L860.741 723.205L862.564 700.972H831.105Z" fill="#C7C7C7"/>
<path d="M862.564 700.972H831.105L832.929 723.205H860.741L862.564 700.972Z" fill="#A6A6A6"/>
<path d="M205.465 700.972L207.261 723.205L211.479 774.585H230.855L235.073 723.205L236.897 700.972H205.465Z" fill="#C7C7C7"/>
<path d="M205.465 700.972L207.261 723.205H235.073L236.897 700.972H205.465Z" fill="#A6A6A6"/>
<path d="M523.291 479.291H158.438V566.783H523.291V479.291Z" fill="#C7C7C7"/>
<path d="M909.562 587.9H158.438V675.392H909.562V587.9Z" fill="#C7C7C7"/>
<path d="M909.561 479.291H544.707V566.783H909.561V479.291Z" fill="#C7C7C7"/>
<path d="M562.76 655.897C569.468 656.793 576.728 646.717 577.905 638.101C577.995 637.474 576.715 631.738 575.294 624.62C574.449 620.305 573.616 615.479 573.168 611.023L545.886 620.612C545.886 620.612 549.573 629.69 550.303 637.461C550.354 638.114 550.354 638.728 550.303 639.304C550.303 639.394 550.29 639.496 550.303 639.612C550.085 643.145 556.307 655.026 562.785 655.897H562.76Z" fill="#D3766A"/>
<path d="M584.528 573.935C587.779 585.905 582.018 615.441 573.351 622.828C560.779 633.531 540.73 633.979 531.768 618.988C523.087 604.456 530.846 567.201 540.486 560.543C554.672 550.736 579.714 556.254 584.528 573.935Z" fill="#D3766A"/>
<path d="M568.405 629.534C556.729 633.477 543.606 619.676 542.979 617.858C541.865 614.645 537.96 590.845 537.96 590.845C537.96 590.845 531.93 591.638 533.979 573.894C533.979 573.894 522.136 546.957 528.691 545.702C530.778 545.305 536.181 550.132 536.181 550.132C536.181 550.132 536.219 544.371 539.113 544.281C542.006 544.192 546.513 550.785 546.513 550.785C546.513 550.785 568.52 551.528 572.425 553.179C582.194 557.327 586.098 568.491 586.098 568.491C586.098 568.491 593.985 570.86 595.265 580.615C596.545 590.371 587.52 623.069 568.392 629.534H568.405Z" fill="#263238"/>
<path d="M536.043 596.323C536.043 596.323 543.635 585.927 548.372 588.654C553.109 591.381 547.245 606.565 541.573 608.537C535.915 610.508 533.981 605.31 533.981 605.31L536.043 596.323Z" fill="#D3766A"/>
<path d="M546.58 592.955C546.669 592.955 546.682 593.07 546.605 593.109C542.636 594.619 540.485 598.243 538.949 601.994C540.153 600.56 541.766 599.792 543.686 601.226C543.789 601.302 543.686 601.456 543.571 601.43C541.958 601.046 540.793 601.302 539.679 602.583C538.885 603.479 538.335 604.631 537.759 605.681C537.566 606.027 536.939 605.822 537.08 605.425C537.08 605.399 537.106 605.361 537.118 605.335C537.118 600.304 541.177 593.352 546.58 592.955Z" fill="#263238"/>
<path d="M691.18 746.049C690.271 755.945 668.327 762.295 623.979 779.707C617.846 782.114 587.67 737.612 594.085 734.706C602.176 731.044 631.571 722.658 637.396 722.185C658.777 720.456 691.923 737.932 691.18 746.049Z" fill="#D3766A"/>
<path d="M629.452 777.682C628.62 778.13 616.841 784.134 609.518 786.464C604.051 788.193 588.202 792.763 585.692 786.938C583.977 782.969 592.99 779.179 599.302 776.363C602.63 774.878 606.676 771.255 605.639 769.129C603.808 765.391 595.256 769.411 589.661 772.855C578.83 779.525 564.465 791.393 557.603 785.978C555.017 783.929 557.859 780.012 562.084 776.145C555.196 780.716 547.822 784.493 544.852 782.342C543.149 781.113 543.021 779.371 543.904 777.361C541.766 778.117 539.846 778.027 538.476 776.657C536.146 774.327 537.157 770.794 539.564 767.119C538.77 767.055 538.041 766.671 537.465 765.813C532.459 758.593 556.041 736.892 564.337 734.703C588.727 728.25 614.882 729.723 614.882 729.723C624.715 737.187 629.477 777.669 629.452 777.682Z" fill="#D3766A"/>
<path d="M592.797 755.71C587.036 756.76 581.352 758.975 576.589 762.418C570.956 766.49 566.552 771.982 561.367 776.565C561.226 776.693 561.431 776.911 561.571 776.783C564.004 774.415 566.68 772.289 569.215 770.023C571.673 767.808 574.092 765.504 576.704 763.481C581.492 759.756 586.882 757.093 592.823 755.812C592.887 755.799 592.861 755.697 592.797 755.71Z" fill="#263238"/>
<path d="M587.956 745.404C581.555 747.325 574.987 749.283 569.085 752.484C562.619 755.992 557.626 761.561 552.723 766.925C549.778 770.152 546.898 773.429 544.094 776.784C543.979 776.924 544.171 777.142 544.299 777.001C549.279 771.458 554.426 766.068 559.726 760.844C564.719 755.928 570.327 752.126 576.818 749.463C580.466 747.965 584.23 746.748 587.994 745.532C588.071 745.507 588.046 745.391 587.969 745.417L587.956 745.404Z" fill="#263238"/>
<path d="M580.843 736.482C574.608 737.929 569.167 739.158 563.713 742.666C556.48 747.301 549.579 754.969 547.159 757.684C544.484 760.679 541.91 763.778 539.388 766.902C539.286 767.03 539.503 767.209 539.606 767.081C545.38 760.231 551.627 753.715 558.246 747.672C561.409 744.779 564.853 742.256 568.757 740.451C572.611 738.672 576.772 737.622 580.856 736.521C580.882 736.521 580.869 736.47 580.856 736.482H580.843Z" fill="#263238"/>
<path d="M588.352 642.005C632.137 667.507 695.191 729.024 691.171 746.052C686.69 765.026 631.011 730.65 629.462 728.128C628.143 725.977 595.714 684.177 574.18 655.281C552.671 626.411 577.534 635.706 588.365 642.005H588.352Z" fill="#D3766A"/>
<path d="M631.382 658.823L588.979 680.46C588.979 680.46 573.322 662.369 566.075 651.129C556.486 636.265 559.751 629.21 580.606 635.189C594.561 639.197 631.382 658.823 631.382 658.823Z" fill="#FFC727"/>
<path d="M625.026 657.005C618.637 659.732 612.3 662.536 606.091 665.622C602.992 667.158 599.907 668.745 596.86 670.384C593.813 672.023 590.919 673.969 587.847 675.556C587.68 675.646 587.834 675.915 588 675.813C590.971 674.071 594.223 672.714 597.295 671.127C600.381 669.539 603.466 667.965 606.564 666.415C612.748 663.317 618.932 660.206 625.192 657.249C625.371 657.172 625.218 656.916 625.051 656.993L625.026 657.005Z" fill="#263238"/>
<path opacity="0.1" d="M566.076 651.116C573.335 662.357 588.98 680.46 588.98 680.46L613.779 667.811L572.388 633.358C559.073 631.502 557.921 638.492 566.076 651.116Z" fill="black"/>
<path d="M437.538 746.054C438.447 755.95 460.39 762.3 504.739 779.712C510.871 782.119 541.047 737.617 534.633 734.71C526.542 731.049 497.147 722.663 491.322 722.189C469.941 720.461 436.795 737.937 437.538 746.054Z" fill="#D3766A"/>
<path d="M499.26 777.687C500.092 778.135 511.871 784.14 519.194 786.47C524.66 788.198 540.51 792.769 543.019 786.943C544.735 782.974 535.722 779.185 529.41 776.368C526.081 774.883 522.036 771.26 523.073 769.135C524.904 765.396 533.456 769.416 539.051 772.86C549.882 779.531 564.246 791.399 571.108 785.983C573.695 783.935 570.852 780.017 566.628 776.151C573.515 780.721 580.89 784.498 583.86 782.347C585.563 781.118 585.691 779.377 584.807 777.367C586.945 778.122 588.866 778.033 590.236 776.663C592.566 774.333 591.554 770.799 589.147 767.125C589.941 767.061 590.671 766.677 591.247 765.819C596.253 758.598 572.67 736.898 564.374 734.708C539.985 728.256 513.829 729.728 513.829 729.728C503.997 737.192 499.234 777.674 499.26 777.687Z" fill="#D3766A"/>
<path d="M535.912 755.714C541.674 756.764 547.358 758.979 552.121 762.423C557.754 766.494 562.158 771.987 567.343 776.57C567.484 776.698 567.279 776.916 567.138 776.788C564.706 774.419 562.03 772.294 559.495 770.028C557.037 767.813 554.617 765.508 552.005 763.486C547.217 759.76 541.827 757.097 535.887 755.817C535.823 755.804 535.848 755.702 535.912 755.714Z" fill="#263238"/>
<path d="M540.755 745.409C547.156 747.329 553.724 749.288 559.626 752.488C566.091 755.996 571.084 761.566 575.988 766.93C578.932 770.156 581.813 773.434 584.617 776.788C584.732 776.929 584.54 777.146 584.412 777.006C579.432 771.462 574.285 766.072 568.985 760.849C563.992 755.932 558.384 752.13 551.893 749.467C548.244 747.969 544.48 746.753 540.716 745.537C540.639 745.511 540.665 745.396 540.742 745.421L540.755 745.409Z" fill="#263238"/>
<path d="M547.871 736.487C554.106 737.933 559.547 739.163 565.001 742.67C572.235 747.305 579.135 754.974 581.555 757.688C584.231 760.684 586.804 763.782 589.326 766.906C589.429 767.034 589.211 767.213 589.109 767.085C583.335 760.236 577.087 753.719 570.468 747.676C567.306 744.783 563.862 742.261 559.957 740.456C556.103 738.676 551.943 737.626 547.859 736.525C547.833 736.525 547.846 736.474 547.859 736.487H547.871Z" fill="#263238"/>
<path d="M540.356 642.002C496.571 667.505 433.505 729.022 437.538 746.05C442.019 765.023 497.698 730.648 499.247 728.126C500.565 725.975 532.994 684.175 554.529 655.279C576.037 626.409 551.174 635.704 540.343 642.002H540.356Z" fill="#D3766A"/>
<path d="M497.324 658.827L539.727 680.463C539.727 680.463 555.384 662.373 562.631 651.132C572.22 636.268 568.955 629.214 548.1 635.193C534.145 639.2 497.324 658.827 497.324 658.827Z" fill="#FFC727"/>
<path d="M503.674 657.005C510.062 659.732 516.399 662.536 522.609 665.621C525.707 667.158 528.792 668.745 531.839 670.384C534.887 672.023 537.78 673.969 540.853 675.556C541.019 675.646 540.865 675.915 540.699 675.812C537.729 674.071 534.477 672.714 531.404 671.127C528.319 669.539 525.233 667.964 522.135 666.415C515.951 663.317 509.768 660.206 503.507 657.248C503.328 657.172 503.482 656.916 503.648 656.992L503.674 657.005Z" fill="#263238"/>
<path opacity="0.1" d="M562.615 651.119C555.356 662.36 539.711 680.463 539.711 680.463L514.912 667.814L556.303 633.362C569.618 631.506 570.77 638.496 562.615 651.119Z" fill="black"/>
<path d="M511.957 766.737C513.788 768.35 632.187 766.122 632.367 765.879C633.737 763.856 611.511 663.163 582.628 638.889C569.672 627.994 547.626 632.808 540.52 648.005C519.857 692.251 510.306 765.226 511.945 766.737H511.957Z" fill="#FFC727"/>
<path opacity="0.1" d="M564.757 632.988H566.306C569.571 633.039 572.81 633.654 575.844 634.857H555.309C558.33 633.731 561.543 633.104 564.77 632.988H564.757ZM546.948 639.697H583.551C583.257 639.415 582.937 639.159 582.642 638.89C582.181 638.519 581.733 638.148 581.26 637.815H549.458C548.587 638.391 547.755 639.018 546.961 639.684L546.948 639.697ZM542.531 644.523H588.135C587.61 643.883 587.059 643.256 586.521 642.654H543.978C543.466 643.256 542.992 643.883 542.531 644.523ZM539.92 649.363H591.835C591.386 648.723 590.938 648.095 590.477 647.481H540.79C540.701 647.647 540.624 647.839 540.534 648.006C540.317 648.454 540.125 648.902 539.92 649.363ZM537.794 654.19H594.997C594.613 653.549 594.216 652.922 593.806 652.308H538.588C538.332 652.935 538.063 653.562 537.782 654.19H537.794ZM535.836 659.016H597.826C597.468 658.376 597.109 657.749 596.751 657.134H536.578C536.335 657.761 536.079 658.389 535.836 659.016ZM534.005 663.843H600.4C600.067 663.215 599.747 662.588 599.427 661.974H534.683C534.453 662.588 534.21 663.215 533.992 663.843H534.005ZM532.277 668.669H602.768C602.474 668.042 602.166 667.415 601.872 666.8H532.917C532.699 667.427 532.494 668.042 532.277 668.669ZM530.651 673.509H604.996C604.727 672.869 604.432 672.241 604.151 671.627H531.278C531.06 672.254 530.855 672.881 530.651 673.509ZM529.101 678.335H607.095C606.827 677.708 606.558 677.081 606.276 676.453H529.678C529.486 677.081 529.293 677.708 529.089 678.335H529.101ZM527.642 683.162H609.067C608.824 682.535 608.568 681.907 608.312 681.28H528.205C528 681.907 527.821 682.535 527.629 683.162H527.642ZM526.272 687.989H610.962C610.731 687.361 610.488 686.734 610.245 686.119H526.784C526.618 686.747 526.438 687.361 526.272 687.989ZM524.941 692.815H612.754C612.536 692.188 612.306 691.561 612.063 690.946H525.427C525.261 691.573 525.094 692.188 524.928 692.815H524.941ZM523.686 697.655H614.508C614.278 697.027 614.06 696.4 613.842 695.773H524.185C524.019 696.4 523.852 697.027 523.699 697.655H523.686ZM522.47 702.481H616.16C615.942 701.854 615.737 701.227 615.52 700.599H522.943C522.79 701.227 522.623 701.854 522.47 702.481ZM521.343 707.308H617.76C617.542 706.681 617.35 706.053 617.145 705.426H521.778C521.625 706.053 521.458 706.681 521.33 707.308H521.343ZM520.242 712.134H619.296C619.104 711.52 618.912 710.893 618.707 710.265H520.652C520.511 710.893 520.37 711.52 520.242 712.134ZM519.179 716.961H620.756C620.589 716.347 620.397 715.719 620.192 715.092H519.576C519.448 715.719 519.307 716.347 519.179 716.961ZM518.181 721.788H622.203C622.01 721.16 621.844 720.546 621.639 719.919H518.565C518.437 720.546 518.309 721.16 518.181 721.788ZM517.221 726.627H623.585C623.419 726.013 623.227 725.385 623.06 724.745H517.592C517.464 725.385 517.349 726 517.221 726.627ZM516.324 731.454H624.917C624.75 730.839 624.571 730.199 624.405 729.572H516.67C516.555 730.212 516.44 730.826 516.324 731.454ZM515.454 736.28H626.21C626.056 735.653 625.877 735.038 625.71 734.398H515.799C515.684 735.038 515.569 735.666 515.454 736.28ZM514.647 741.107H627.426C627.272 740.492 627.106 739.865 626.952 739.238H514.942C514.839 739.865 514.737 740.492 514.647 741.107ZM513.892 745.934H628.617C628.476 745.319 628.322 744.704 628.156 744.064H514.186C514.071 744.704 513.981 745.319 513.892 745.934ZM513.2 750.773H629.731C629.602 750.158 629.462 749.531 629.308 748.891H513.469C513.367 749.531 513.277 750.158 513.213 750.773H513.2ZM512.573 755.6H630.793C630.665 754.998 630.537 754.371 630.396 753.718H512.816C512.727 754.371 512.663 754.998 512.586 755.6H512.573ZM512.048 760.426H631.753C631.638 759.837 631.523 759.21 631.395 758.544H512.253C512.163 759.21 512.112 759.85 512.048 760.426ZM511.767 765.253H632.419C632.406 764.843 632.342 764.216 632.227 763.384H511.818C511.792 764.126 511.767 764.754 511.767 765.253Z" fill="black"/>
<path d="M208.284 756.253H257.414V911.045H194V770.537C194 762.646 200.408 756.253 208.284 756.253Z" fill="#455A64"/>
<path d="M240.452 756.253L251.914 910.959H257.415V756.253H240.452Z" fill="#37474F"/>
<path d="M827 911.048H763.586V756.256H812.716C820.607 756.256 827 762.663 827 770.54V911.048Z" fill="#455A64"/>
<path d="M780.533 756.255L769.071 910.961H763.57V756.255H780.533Z" fill="#37474F"/>
<path d="M268.643 689.917H499.277C505.483 689.917 510.508 694.957 510.508 701.148V911.047H257.412V701.148C257.412 694.942 262.452 689.917 268.643 689.917Z" fill="#455A64"/>
<path d="M521.74 689.917H752.359C758.565 689.917 763.591 694.957 763.591 701.148V911.047H510.509V701.148C510.509 694.942 515.549 689.917 521.74 689.917Z" fill="#455A64"/>
<path d="M510.511 702.989C510.813 720.326 510.943 737.663 511.058 754.999L511.231 807.01L511.073 859.02L510.871 885.025L510.511 911.03L510.151 885.025L509.949 859.02L509.791 807.01L509.964 754.999C510.079 737.663 510.223 720.326 510.511 702.989Z" fill="#37474F"/>
<path d="M194 911.042L273.124 910.697L352.248 910.567L510.496 910.323L668.73 910.567L747.854 910.697L826.978 911.042L747.854 911.402L668.73 911.518L510.496 911.762L352.248 911.518L273.124 911.402L194 911.042Z" fill="#37474F"/>
<path d="M393.501 746.844C391.946 746.844 391.946 749.248 393.501 749.248C395.056 749.248 395.056 746.844 393.501 746.844Z" fill="#37474F"/>
<path d="M395.563 894.059C394.008 894.059 394.008 896.463 395.563 896.463C397.118 896.463 397.118 894.059 395.563 894.059Z" fill="#37474F"/>
<path d="M498.75 836.981C498.692 836.852 498.634 836.737 498.562 836.621C498.361 836.276 497.828 836.276 497.626 836.621C497.554 836.737 497.497 836.852 497.439 836.981C496.762 838.407 499.426 838.407 498.75 836.981Z" fill="#37474F"/>
<path d="M298.86 750.18C298.802 750.05 298.745 749.935 298.673 749.82C298.471 749.474 297.938 749.474 297.737 749.82C297.665 749.935 297.607 750.05 297.55 750.18C296.873 751.605 299.537 751.605 298.86 750.18Z" fill="#37474F"/>
<path d="M403.86 754.186C402.68 754.186 402.68 756.029 403.86 756.029C405.041 756.029 405.041 754.186 403.86 754.186Z" fill="#37474F"/>
<path d="M219.533 885.967C218.352 885.967 218.352 887.81 219.533 887.81C220.714 887.81 220.714 885.967 219.533 885.967Z" fill="#37474F"/>
<path d="M339.793 847.492C338.612 847.492 338.612 849.335 339.793 849.335C340.974 849.335 340.974 847.492 339.793 847.492Z" fill="#37474F"/>
<path d="M746.163 755.337C744.982 755.337 744.982 757.18 746.163 757.18C747.344 757.18 747.344 755.337 746.163 755.337Z" fill="#37474F"/>
<path d="M229.845 783.99C228.664 783.99 228.664 785.833 229.845 785.833C231.025 785.833 231.025 783.99 229.845 783.99Z" fill="#37474F"/>
<path d="M475.396 715.38C474.95 714.89 474.043 714.89 473.597 715.38C473.107 715.927 473.021 716.402 473.165 717.122C473.409 718.447 475.598 718.447 475.843 717.122C475.972 716.417 475.9 715.941 475.411 715.38H475.396Z" fill="#37474F"/>
<path d="M225.033 800.51C224.587 800.02 223.68 800.02 223.233 800.51C222.744 801.057 222.657 801.532 222.801 802.252C223.046 803.577 225.235 803.577 225.48 802.252C225.609 801.547 225.537 801.071 225.048 800.51H225.033Z" fill="#37474F"/>
<path d="M405.644 887.248C405.197 886.759 404.29 886.759 403.844 887.248C403.354 887.795 403.268 888.271 403.412 888.991C403.657 890.315 405.845 890.315 406.09 888.991C406.22 888.285 406.148 887.795 405.658 887.248H405.644Z" fill="#37474F"/>
<path d="M658.461 899.663C660.016 899.663 660.016 897.259 658.461 897.259C656.906 897.259 656.906 899.663 658.461 899.663Z" fill="#37474F"/>
<path d="M804.752 801.687C806.307 801.687 806.307 799.282 804.752 799.282C803.197 799.282 803.197 801.687 804.752 801.687Z" fill="#37474F"/>
<path d="M630.039 755.381C631.595 755.381 631.595 752.977 630.039 752.977C628.484 752.977 628.484 755.381 630.039 755.381Z" fill="#37474F"/>
<path d="M697.441 888.302C697.499 888.431 697.556 888.546 697.628 888.662C697.83 889.007 698.363 889.007 698.564 888.662C698.636 888.546 698.694 888.431 698.752 888.302C699.428 886.876 696.764 886.876 697.441 888.302Z" fill="#37474F"/>
<path d="M548.683 815.798C549.129 816.288 550.036 816.288 550.483 815.798C550.972 815.251 551.059 814.776 550.915 814.056C550.67 812.731 548.481 812.731 548.236 814.056C548.107 814.762 548.179 815.237 548.668 815.798H548.683Z" fill="#37474F"/>
<path d="M784.321 885.594C784.768 886.084 785.675 886.084 786.121 885.594C786.611 885.047 786.697 884.572 786.553 883.852C786.309 882.527 784.12 882.527 783.875 883.852C783.745 884.558 783.817 885.033 784.307 885.594H784.321Z" fill="#37474F"/>
<path d="M715.515 535.077C712.984 559.361 691.216 576.988 666.949 574.456C657.14 573.437 648.414 569.265 641.663 563.039L619.545 566.287L630.612 547.163C627.921 540.635 626.79 533.358 627.586 525.874C630.118 501.59 651.885 483.963 676.153 486.495C700.436 489.027 718.063 510.794 715.531 535.061L715.515 535.077Z" fill="white"/>
<path d="M715.516 535.078C714.593 543.151 711.647 551.065 706.599 557.482C705.437 559.17 703.94 560.571 702.587 562.1C701.058 563.437 699.625 564.902 697.921 566.049C694.689 568.533 691.058 570.491 687.252 571.988C683.479 573.58 679.402 574.345 675.358 574.822C673.319 574.934 671.265 575.125 669.211 574.934C667.157 574.886 665.119 574.663 663.097 574.297C655.007 572.832 647.348 569.042 641.218 563.501L641.743 563.66L619.641 567.052L618.033 567.291L618.845 565.873L629.848 546.718L629.801 547.482C624.434 534.871 625.645 519.839 632.524 508.071C635.947 502.18 640.724 497.116 646.377 493.326C652.014 489.537 658.558 487.148 665.246 486.24C671.95 485.349 678.845 485.954 685.23 488.087C691.615 490.237 697.475 493.852 702.284 498.549C712.045 507.833 716.95 521.75 715.516 535.062V535.078ZM715.516 535.078C716.854 521.75 711.854 507.912 702.093 498.772C697.252 494.202 691.377 490.731 685.039 488.708C678.702 486.718 671.918 486.256 665.374 487.228C658.845 488.231 652.523 490.667 647.109 494.441C641.711 498.231 637.173 503.183 633.877 508.868C630.533 514.536 628.797 521.049 628.272 527.578C627.858 534.122 628.925 540.762 631.377 546.845L631.536 547.243L631.329 547.609L620.199 566.686L619.403 565.523L641.536 562.418L641.839 562.37L642.062 562.577C647.921 568.071 655.326 571.908 663.224 573.485C665.198 573.883 667.205 574.138 669.227 574.217C671.233 574.424 673.256 574.281 675.278 574.217C679.275 573.803 683.319 573.135 687.093 571.622C690.883 570.205 694.529 568.342 697.762 565.873C699.45 564.743 700.899 563.294 702.427 561.972C703.781 560.459 705.278 559.074 706.456 557.402C711.536 551.033 714.529 543.167 715.516 535.093V535.078Z" fill="#263238"/>
<path d="M670 534.46C669.58 532.547 669.697 530.797 670.35 529.21C671.05 527.577 672.007 526.153 673.22 524.94C674.48 523.68 675.763 522.443 677.07 521.23C678.423 519.97 679.567 518.523 680.5 516.89C681.48 515.21 681.97 513.437 681.97 511.57C681.97 509.143 681.34 507.253 680.08 505.9C678.82 504.5 677.35 503.8 675.67 503.8C674.27 503.8 673.08 504.243 672.1 505.13C671.167 506.017 670.42 507.09 669.86 508.35C669.347 509.61 668.833 510.87 668.32 512.13C667.807 513.39 667.107 514.463 666.22 515.35C665.333 516.237 664.237 516.68 662.93 516.68C661.39 516.68 660.13 516.237 659.15 515.35C658.17 514.463 657.68 513.25 657.68 511.71C657.68 508.677 659.407 505.9 662.86 503.38C666.36 500.86 670.49 499.6 675.25 499.6C680.383 499.6 684.56 500.72 687.78 502.96C691.047 505.153 692.68 508.42 692.68 512.76C692.68 514.953 692.143 516.937 691.07 518.71C690.043 520.483 688.76 521.953 687.22 523.12C685.727 524.287 684.233 525.407 682.74 526.48C681.247 527.553 679.963 528.767 678.89 530.12C677.863 531.427 677.35 532.873 677.35 534.46C677.35 535.207 676.79 535.743 675.67 536.07C674.55 536.397 673.383 536.42 672.17 536.14C670.957 535.813 670.233 535.253 670 534.46ZM678.19 549.51C677.023 550.443 675.553 550.91 673.78 550.91C672.007 550.91 670.513 550.443 669.3 549.51C668.133 548.53 667.55 547.153 667.55 545.38C667.55 543.56 668.133 542.16 669.3 541.18C670.513 540.2 672.007 539.71 673.78 539.71C675.553 539.71 677.023 540.2 678.19 541.18C679.357 542.16 679.94 543.56 679.94 545.38C679.94 547.153 679.357 548.53 678.19 549.51Z" fill="#79C9BC"/>
</svg>
