<svg width="38" height="38" viewBox="0 0 38 38" fill="none" xmlns="http://www.w3.org/2000/svg">
<path id="Vector" d="M38 26.961C38 33.877 33.877 38 26.961 38H24.7C23.655 38 22.8 37.145 22.8 36.1V25.137C22.8 24.624 23.218 24.187 23.731 24.187L27.075 24.13C27.341 24.111 27.569 23.921 27.626 23.655L28.291 20.026C28.3039 19.9437 28.2988 19.8597 28.2761 19.7796C28.2534 19.6995 28.2136 19.6252 28.1594 19.562C28.1052 19.4988 28.0379 19.4481 27.9623 19.4134C27.8866 19.3787 27.8043 19.3608 27.721 19.361L23.674 19.418C23.142 19.418 22.724 19 22.705 18.487L22.629 13.832C22.629 13.528 22.876 13.262 23.199 13.262L27.759 13.186C28.082 13.186 28.329 12.939 28.329 12.616L28.253 8.056C28.253 7.733 28.006 7.486 27.683 7.486L22.553 7.562C21.8041 7.57337 21.0649 7.73242 20.3776 8.03001C19.6903 8.3276 19.0685 8.7579 18.5478 9.29624C18.0271 9.83458 17.6178 10.4704 17.3433 11.1672C17.0687 11.864 16.9344 12.6082 16.948 13.357L17.043 18.582C17.062 19.114 16.644 19.532 16.112 19.551L13.832 19.589C13.509 19.589 13.262 19.836 13.262 20.159L13.319 23.769C13.319 24.092 13.566 24.339 13.889 24.339L16.169 24.301C16.701 24.301 17.119 24.719 17.138 25.232L17.309 36.062C17.328 37.126 16.473 38 15.409 38H11.039C4.123 38 0 33.877 0 26.942V11.039C0 4.123 4.123 0 11.039 0H26.961C33.877 0 38 4.123 38 11.039V26.961Z" fill="white"/>
</svg>
