<svg width="69" height="143" viewBox="0 0 69 143" fill="none" xmlns="http://www.w3.org/2000/svg">
<path d="M2.9353 137.052C0.236083 129.725 7.94814 126.64 3.3209 115.458C-1.30633 104.275 2.5497 93.4784 2.5497 93.4784C2.5497 93.4784 -0.920725 86.152 0.236083 79.5967C1.39289 73.0415 11.033 73.0415 11.033 73.0415C11.033 73.0415 11.4186 68.4143 17.9738 64.9438C24.5291 61.4734 27.9995 64.5582 27.9995 64.5582C27.9995 64.5582 32.2411 60.7022 40.7244 60.3166C40.7244 60.3166 37.2539 24.8412 40.7244 13.2775C44.1948 1.70938 52.678 -4.07466 61.1613 3.25179C69.6446 10.5782 68.4878 14.4343 68.8734 32.9432C69.259 51.4521 68.8734 79.9823 66.1741 92.3216C63.4749 104.661 60.3901 110.831 63.0893 119.314C65.7885 127.797 67.331 132.039 61.5469 138.208C55.7629 144.378 5.6389 144.378 2.93968 137.052H2.9353Z" fill="#00BEF3"/>
<path d="M5.24009 94.197C5.13931 94.5301 2.80378 102.501 5.73962 110.226C8.36435 117.132 8.37311 123.753 5.76153 129.896C5.42851 130.68 5.7922 131.583 6.57655 131.916C6.77374 131.999 6.9753 132.039 7.18125 132.039C7.78156 132.039 8.3512 131.688 8.60097 131.101C11.5368 124.2 11.5412 116.807 8.62288 109.13C7.06294 105.029 7.24259 100.739 7.61943 97.9917C9.18375 100.056 11.0899 101.576 13.1888 102.273C14.591 102.737 15.831 102.969 16.9352 102.969C18.1797 102.969 19.2401 102.672 20.1384 102.08C21.7115 101.037 22.6492 99.1617 23.0085 96.388C23.5518 96.6772 24.1039 96.8919 24.6736 96.9445C25.1424 96.9883 25.8435 97.054 26.6586 97.054C28.9634 97.054 32.1709 96.5194 33.6958 93.5441C36.3994 94.0481 38.5816 94.3723 39.6595 94.5257C40.2511 97.0365 41.6182 99.8409 44.7644 100.454C44.8651 100.472 44.9615 100.485 45.0623 100.485C45.7853 100.485 46.4295 99.9723 46.5741 99.2362C46.7362 98.3992 46.1928 97.5886 45.3559 97.4265C42.1572 96.8042 42.2974 90.4593 42.2974 90.3936C42.3281 89.5435 41.6664 88.8293 40.8163 88.7942C39.9049 88.7416 39.252 89.4252 39.2169 90.2753C39.2169 90.3498 39.2038 90.7485 39.2301 91.3444C37.0392 91.0158 32.8238 90.3279 28.4201 89.2806C25.8304 88.6671 24.8357 86.8662 24.4589 85.464C23.8542 83.2205 24.4633 80.5169 25.8786 79.1761C26.7725 78.3304 28.9021 77.7563 31.6407 77.5329C31.6714 77.546 31.6933 77.5723 31.7284 77.5854C32.1709 77.7432 32.6266 77.6687 33.0035 77.454C38.0295 77.27 44.5979 78.1639 49.672 80.6045C57.6558 84.4474 59.483 92.5582 59.5049 92.6459C59.5925 93.0578 59.8335 93.3908 60.1578 93.6055C59.6583 97.3914 59.0098 100.757 58.1553 103.421C54.3431 115.296 58.4314 129.918 58.6022 130.536C58.795 131.215 59.4129 131.653 60.0833 131.653C60.2235 131.653 60.3681 131.636 60.5083 131.596C61.3277 131.364 61.801 130.509 61.5687 129.69C61.5293 129.545 57.5681 115.339 61.0911 104.363C64.877 92.567 64.877 68.5807 64.877 51.0665C64.877 43.9854 65.1575 38.013 65.4073 32.7416C66.0032 20.1526 66.3625 12.5544 61.5775 8.27337C58.5321 5.54786 54.422 4.84676 50.5835 6.39355C46.7406 7.94034 43.9756 11.4371 43.6996 15.0871C43.2351 21.2524 43.6777 62.0693 43.6952 63.8045C43.6952 63.8396 43.7127 63.8746 43.7171 63.9097C42.7312 63.6205 41.6401 63.4759 40.4351 63.5109C36.062 63.5898 30.1772 65.9516 29.0511 68.0593C28.2229 67.8402 27.3071 67.6956 26.2905 67.6474C20.0989 67.3582 16.9309 69.4352 15.3709 71.223C14.1309 72.6427 13.4604 74.413 13.4079 76.3366C11.3528 76.2402 8.11458 76.4505 5.84917 78.326C4.17968 79.7106 3.33398 81.6956 3.33398 84.2239C3.33398 87.7294 4.0789 91.1166 5.34525 94.0174C5.31896 94.0787 5.27076 94.1269 5.25323 94.1883L5.24009 94.197ZM46.7712 63.7782C46.7669 63.3532 46.3112 21.3619 46.7669 15.3281C46.9553 12.8173 48.949 10.381 51.7271 9.26366C54.4921 8.14629 57.3315 8.62829 59.5137 10.5782C63.2032 13.8777 62.8702 20.9281 62.318 32.6014C62.0683 37.9034 61.7835 43.9197 61.7835 51.0709C61.7835 62.2314 61.7791 76.0343 60.8019 87.484C59.2858 84.5263 56.5296 80.771 51.7578 78.234C51.4817 76.4987 50.5966 72.279 47.9894 67.3188C47.5118 66.4073 46.8545 65.6581 46.0614 65.0621C46.4864 64.7817 46.78 64.3216 46.7756 63.7782H46.7712ZM41.4561 66.6308C43.3403 66.7842 44.5847 67.4809 45.2551 68.756C46.9202 71.9153 47.8185 74.7635 48.2918 76.7135C43.8529 75.1053 38.6342 74.2859 34.0551 74.3166C34.0727 73.2255 33.8755 71.911 33.0648 70.7059C32.7362 70.2152 32.3331 69.7858 31.8642 69.4133C32.8764 68.4668 37.5343 66.3066 41.4561 66.6308ZM17.6845 73.2606C19.262 71.4552 22.246 70.5613 26.1371 70.7366C27.6532 70.8067 29.6426 71.1529 30.5014 72.4105C30.9484 73.0634 31.0229 73.8477 30.9878 74.4787C27.7935 74.803 25.16 75.6092 23.7578 76.9457C21.5143 79.0797 20.5766 82.9138 21.4836 86.2747C22.3118 89.3551 24.5816 91.546 27.7102 92.2909C28.6304 92.51 29.5374 92.7116 30.4182 92.9C29.6075 93.6887 28.0914 94.1707 24.9584 93.8815C22.2417 93.6318 17.6232 83.3739 16.5891 77.787C16.2604 76.0255 16.6417 74.4612 17.6845 73.2649V73.2606ZM7.79909 80.7141C9.38532 79.3952 12.1284 79.3163 13.8022 79.4609C14.6698 83.0014 17.1587 90.3279 20.5196 94.2891C20.2479 94.5432 20.0639 94.8894 20.0288 95.2925C19.8492 97.5097 19.3146 98.9294 18.4382 99.5122C17.5969 100.069 16.1597 100.012 14.1659 99.3501C10.4326 98.11 6.40566 91.9754 6.40566 84.2327C6.40566 82.6465 6.86137 81.4941 7.79909 80.7141Z" fill="white"/>
</svg>
