<svg width="40" height="41" viewBox="0 0 40 41" fill="none" xmlns="http://www.w3.org/2000/svg">
<g clip-path="url(#clip0_25_473)">
<path d="M20.185 14.0391C18.4436 14.0391 16.7736 14.7308 15.5422 15.9622C14.3109 17.1935 13.6191 18.8636 13.6191 20.605C13.6191 22.3463 14.3109 24.0164 15.5422 25.2477C16.7736 26.4791 18.4436 27.1708 20.185 27.1708C21.9264 27.1708 23.5965 26.4791 24.8278 25.2477C26.0592 24.0164 26.7509 22.3463 26.7509 20.605C26.7509 18.8636 26.0592 17.1935 24.8278 15.9622C23.5965 14.7308 21.9264 14.0391 20.185 14.0391Z" fill="#DDDDDD"/>
<path fill-rule="evenodd" clip-rule="evenodd" d="M12.3069 0.90625C9.1724 0.90625 6.16629 2.15142 3.94987 4.36784C1.73345 6.58426 0.488281 9.59037 0.488281 12.7249L0.488281 28.483C0.488281 31.6175 1.73345 34.6236 3.94987 36.84C6.16629 39.0564 9.1724 40.3016 12.3069 40.3016H28.065C31.1995 40.3016 34.2056 39.0564 36.422 36.84C38.6385 34.6236 39.8836 31.6175 39.8836 28.483V12.7249C39.8836 9.59037 38.6385 6.58426 36.422 4.36784C34.2056 2.15142 31.1995 0.90625 28.065 0.90625L12.3069 0.90625ZM10.9937 20.6039C10.9937 18.166 11.9622 15.8279 13.6861 14.104C15.4099 12.3801 17.748 11.4117 20.186 11.4117C22.6239 11.4117 24.962 12.3801 26.6859 14.104C28.4097 15.8279 29.3782 18.166 29.3782 20.6039C29.3782 23.0419 28.4097 25.3799 26.6859 27.1038C24.962 28.8277 22.6239 29.7962 20.186 29.7962C17.748 29.7962 15.4099 28.8277 13.6861 27.1038C11.9622 25.3799 10.9937 23.0419 10.9937 20.6039ZM29.3782 11.4117H32.0046V8.78532H29.3782V11.4117Z" fill="#DDDDDD"/>
</g>
<defs>
<clipPath id="clip0_25_473">
<rect width="39.3954" height="39.3954" fill="white" transform="translate(0.488281 0.90625)"/>
</clipPath>
</defs>
</svg>
