<svg width="77" height="77" viewBox="0 0 77 77" fill="none" xmlns="http://www.w3.org/2000/svg">
<rect width="77" height="77" fill="#646464"/>
<path d="M19.0931 36.3724C31.1749 30.0225 39.2295 25.8358 43.2568 23.8131C54.7689 18.0374 57.1581 17.0343 58.7185 17.0003C59.0617 16.9937 59.8257 17.096 60.3242 17.5823C60.7386 17.9925 60.8552 18.5472 60.9134 18.9366C60.9652 19.3257 61.0365 20.2124 60.9782 20.9046C60.3566 28.8108 57.6566 47.9966 56.284 56.852C55.7077 60.5988 54.5617 61.855 53.4545 61.9777C51.0459 62.2449 49.2201 60.059 46.8891 58.216C43.2439 55.3309 41.1849 53.5356 37.6432 50.7208C33.5512 47.4677 36.2058 45.6794 38.5367 42.7575C39.1453 41.9927 49.751 30.3561 49.9517 29.3006C49.9776 29.1686 50.0035 28.6764 49.7575 28.417C49.5179 28.1569 49.1618 28.2459 48.9028 28.3162C48.5337 28.4162 42.7129 33.0631 31.421 42.256C29.7699 43.6263 28.2743 44.2942 26.9275 44.2591C25.4513 44.2208 22.6024 43.2497 20.4851 42.42C17.8952 41.4021 15.8298 40.8638 16.0111 39.1349C16.1017 38.2349 17.1312 37.3138 19.0931 36.3724Z" fill="white"/>
</svg>
