<svg width="188" height="110" viewBox="0 0 188 110" fill="none" xmlns="http://www.w3.org/2000/svg">
<path d="M71.1166 38.3293L50.9176 93.7093C50.241 95.5793 47.8076 96.3493 46.007 95.2593L14.0771 75.9893C10.0286 73.5493 10.3014 68.0193 14.59 65.9293L71.1166 38.3193V38.3293Z" fill="url(#paint0_linear_42_77)"/>
<path d="M162.487 70.499H20.3627C17.7983 70.499 15.8995 72.669 16.4561 74.969L20.4173 79.919L12.1129 74.759C7.99892 72.279 6.2311 67.569 7.79158 63.289L29.6711 3.41902C30.4131 1.37902 32.4974 -0.000976562 34.8436 -0.000976562H184.399C187.662 -0.000976562 189.233 3.65902 186.854 5.69902L155.034 32.939C153.233 34.479 152.666 36.879 153.615 38.959L165.815 65.939C166.797 68.109 165.051 70.489 162.498 70.489L162.487 70.499Z" fill="url(#paint1_linear_42_77)"/>
<path style="mix-blend-mode:multiply" opacity="0.6" d="M50.743 109.169C78.7675 109.169 101.486 105.587 101.486 101.169C101.486 96.7507 78.7675 93.169 50.743 93.169C22.7184 93.169 0 96.7507 0 101.169C0 105.587 22.7184 109.169 50.743 109.169Z" fill="url(#paint2_radial_42_77)"/>
<path d="M49.25 43.999C48.81 43.999 48.59 43.859 48.59 43.579V43.489C48.59 43.309 48.78 43.049 49.16 42.709C49.54 42.349 49.73 41.949 49.73 41.509V25.189C49.73 24.749 49.54 24.359 49.16 24.019C48.78 23.659 48.59 23.389 48.59 23.209V23.119C48.59 22.839 48.79 22.699 49.19 22.699H62.3C62.76 22.699 63.04 22.959 63.14 23.479L63.86 26.719C63.96 27.179 63.79 27.409 63.35 27.409H63.23C62.91 27.409 62.55 27.149 62.15 26.629C61.75 26.089 61.32 25.559 60.86 25.039C60.4 24.499 59.92 24.229 59.42 24.229H54.41C53.73 24.229 53.39 24.599 53.39 25.339V33.259H58.1C58.52 33.259 58.93 32.929 59.33 32.269C59.73 31.609 60.03 31.279 60.23 31.279H60.44C60.74 31.279 60.89 31.469 60.89 31.849V36.109C60.89 36.489 60.74 36.679 60.44 36.679H60.23C60.03 36.679 59.73 36.369 59.33 35.749C58.93 35.109 58.52 34.789 58.1 34.789H53.39V41.509C53.39 41.949 53.59 42.349 53.99 42.709C54.41 43.049 54.62 43.309 54.62 43.489V43.579C54.62 43.859 54.4 43.999 53.96 43.999H49.25ZM84.4445 41.509C84.6845 41.869 84.9745 42.179 85.3145 42.439C85.6745 42.679 85.9545 42.869 86.1545 43.009C86.3545 43.149 86.4545 43.309 86.4545 43.489V43.579C86.4545 43.859 86.2445 43.999 85.8245 43.999H80.6045C80.1845 43.999 79.9745 43.859 79.9745 43.579V43.489C79.9745 43.329 80.0845 43.149 80.3045 42.949C80.5245 42.749 80.6745 42.569 80.7545 42.409C80.8545 42.249 80.8045 41.949 80.6045 41.509L76.7945 35.809H76.5245L72.9545 35.869V41.509C72.9545 41.949 73.1545 42.349 73.5545 42.709C73.9745 43.049 74.1845 43.309 74.1845 43.489V43.579C74.1845 43.859 73.9645 43.999 73.5245 43.999H68.8145C68.3945 43.999 68.1845 43.859 68.1845 43.579V43.489C68.1845 43.309 68.3645 43.049 68.7245 42.709C69.1045 42.349 69.2945 41.949 69.2945 41.509V25.189C69.2945 24.749 69.1045 24.359 68.7245 24.019C68.3645 23.659 68.1845 23.389 68.1845 23.209V23.119C68.1845 22.839 68.3945 22.699 68.8145 22.699H75.5945C78.3345 22.699 80.5245 23.269 82.1645 24.409C83.8045 25.529 84.6345 27.179 84.6545 29.359C84.6545 30.639 84.2645 31.809 83.4845 32.869C82.7245 33.909 81.6245 34.689 80.1845 35.209L84.4445 41.509ZM76.1045 34.309C77.5645 34.309 78.7345 33.919 79.6145 33.139C80.4945 32.359 80.9345 31.249 80.9345 29.809C80.9345 28.049 80.3845 26.679 79.2845 25.699C78.2045 24.719 76.8945 24.229 75.3545 24.229H73.8545C73.2545 24.229 72.9545 24.629 72.9545 25.429V32.599C72.9545 33.739 73.4445 34.309 74.4245 34.309H76.1045ZM91.0449 43.999C90.6049 43.999 90.3849 43.859 90.3849 43.579V43.489C90.3849 43.309 90.5749 43.049 90.9549 42.709C91.3349 42.349 91.5249 41.939 91.5249 41.479V25.219C91.5249 24.759 91.3349 24.349 90.9549 23.989C90.5749 23.629 90.3849 23.369 90.3849 23.209V23.119C90.3849 22.839 90.5849 22.699 90.9849 22.699H104.035C104.515 22.699 104.795 22.949 104.875 23.449L105.595 26.689C105.695 27.149 105.535 27.379 105.115 27.379H104.965C104.705 27.379 104.415 27.219 104.095 26.899C103.795 26.559 103.515 26.189 103.255 25.789C103.015 25.389 102.705 25.029 102.325 24.709C101.965 24.369 101.585 24.199 101.185 24.199H96.1449C95.4649 24.199 95.1249 24.589 95.1249 25.369V32.359H99.7449C100.045 32.359 100.305 32.259 100.525 32.059C100.745 31.839 100.905 31.609 101.005 31.369C101.125 31.129 101.255 30.909 101.395 30.709C101.555 30.489 101.705 30.379 101.845 30.379H102.025C102.325 30.379 102.475 30.569 102.475 30.949V35.209C102.475 35.589 102.325 35.779 102.025 35.779H101.845C101.705 35.779 101.555 35.679 101.395 35.479C101.255 35.279 101.125 35.069 101.005 34.849C100.905 34.609 100.745 34.389 100.525 34.189C100.305 33.989 100.045 33.889 99.7449 33.889H95.1249L95.0949 40.909C95.0949 41.349 95.2049 41.729 95.4249 42.049C95.6649 42.349 96.0049 42.499 96.4449 42.499H102.115C102.515 42.499 102.895 42.329 103.255 41.989C103.615 41.649 103.905 41.269 104.125 40.849C104.345 40.429 104.605 40.049 104.905 39.709C105.205 39.369 105.495 39.199 105.775 39.199H105.985C106.145 39.199 106.265 39.269 106.345 39.409C106.445 39.549 106.475 39.709 106.435 39.889L105.745 43.219C105.625 43.739 105.335 43.999 104.875 43.999H91.0449ZM111.518 43.999C111.078 43.999 110.858 43.859 110.858 43.579V43.489C110.858 43.309 111.048 43.049 111.428 42.709C111.808 42.349 111.998 41.939 111.998 41.479V25.219C111.998 24.759 111.808 24.349 111.428 23.989C111.048 23.629 110.858 23.369 110.858 23.209V23.119C110.858 22.839 111.058 22.699 111.458 22.699H124.508C124.988 22.699 125.268 22.949 125.348 23.449L126.068 26.689C126.168 27.149 126.008 27.379 125.588 27.379H125.438C125.178 27.379 124.888 27.219 124.568 26.899C124.268 26.559 123.988 26.189 123.728 25.789C123.488 25.389 123.178 25.029 122.798 24.709C122.438 24.369 122.058 24.199 121.658 24.199H116.618C115.938 24.199 115.598 24.589 115.598 25.369V32.359H120.218C120.518 32.359 120.778 32.259 120.998 32.059C121.218 31.839 121.378 31.609 121.478 31.369C121.598 31.129 121.728 30.909 121.868 30.709C122.028 30.489 122.178 30.379 122.318 30.379H122.498C122.798 30.379 122.948 30.569 122.948 30.949V35.209C122.948 35.589 122.798 35.779 122.498 35.779H122.318C122.178 35.779 122.028 35.679 121.868 35.479C121.728 35.279 121.598 35.069 121.478 34.849C121.378 34.609 121.218 34.389 120.998 34.189C120.778 33.989 120.518 33.889 120.218 33.889H115.598L115.568 40.909C115.568 41.349 115.678 41.729 115.898 42.049C116.138 42.349 116.478 42.499 116.918 42.499H122.588C122.988 42.499 123.368 42.329 123.728 41.989C124.088 41.649 124.378 41.269 124.598 40.849C124.818 40.429 125.078 40.049 125.378 39.709C125.678 39.369 125.968 39.199 126.248 39.199H126.458C126.618 39.199 126.738 39.269 126.818 39.409C126.918 39.549 126.948 39.709 126.908 39.889L126.218 43.219C126.098 43.739 125.808 43.999 125.348 43.999H111.518Z" fill="white"/>
<defs>
<linearGradient id="paint0_linear_42_77" x1="41.1619" y1="103.669" x2="41.1619" y2="69.6493" gradientUnits="userSpaceOnUse">
<stop stop-color="#BA192D"/>
<stop offset="1" stop-color="#690E19"/>
</linearGradient>
<linearGradient id="paint1_linear_42_77" x1="97.6121" y1="-0.830977" x2="97.6121" y2="91.859" gradientUnits="userSpaceOnUse">
<stop stop-color="#FF223E"/>
<stop offset="1" stop-color="#B5182C"/>
</linearGradient>
<radialGradient id="paint2_radial_42_77" cx="0" cy="0" r="1" gradientUnits="userSpaceOnUse" gradientTransform="translate(50.743 101.181) scale(47.8293 8.3277)">
<stop stop-color="#B0B2B4"/>
<stop offset="0.25" stop-color="#CCCDCE"/>
<stop offset="0.54" stop-color="#E7E8E9"/>
<stop offset="0.81" stop-color="#F8F9F9"/>
<stop offset="1" stop-color="white"/>
</radialGradient>
</defs>
</svg>
