<svg width="325" height="87" viewBox="0 0 325 87" fill="none" xmlns="http://www.w3.org/2000/svg">
<path d="M79.6621 41.4102H206.219H324.662" stroke="url(#paint0_linear_293_210)" stroke-width="4"/>
<rect y="46.7617" width="61" height="61" transform="rotate(-49 0 46.7617)" fill="#5B8BB3"/>
<path style="mix-blend-mode:multiply" opacity="0.64" d="M43 71.6079C56.8071 71.6079 68 60.415 68 46.6079C68 32.8008 56.8071 21.6079 43 21.6079C29.1929 21.6079 18 32.8008 18 46.6079C18 60.415 29.1929 71.6079 43 71.6079Z" fill="url(#paint1_radial_293_210)"/>
<path d="M65.1494 42.1504C65.1494 54.3837 55.2323 64.3013 42.9985 64.3013C30.7648 64.3013 20.8486 54.3837 20.8486 42.1504C20.8486 29.9171 30.7657 20 42.9985 20C55.2313 20 65.1494 29.9171 65.1494 42.1504Z" fill="#231F20"/>
<path d="M61.8496 42.1502C61.8496 52.5623 53.4095 61.002 42.9978 61.002C32.5861 61.002 24.1465 52.5623 24.1465 42.1502C24.1465 31.738 32.5866 23.2988 42.9978 23.2988C53.409 23.2988 61.8496 31.7385 61.8496 42.1497V42.1502Z" fill="white"/>
<path d="M61.8496 42.1502C61.8496 52.5623 53.4095 61.002 42.9978 61.002C32.5861 61.002 24.1465 52.5623 24.1465 42.1502C24.1465 31.738 32.5866 23.2988 42.9978 23.2988C53.409 23.2988 61.8496 31.7385 61.8496 42.1497V42.1502Z" fill="white"/>
<path d="M58.5305 42.1505C58.5305 50.729 51.5766 57.6829 42.9982 57.6829C34.4197 57.6829 27.4658 50.729 27.4658 42.1505C27.4658 33.5721 34.4197 26.6187 42.9977 26.6187C51.5756 26.6187 58.53 33.5721 58.53 42.1505H58.5305Z" fill="#231F20"/>
<path d="M54.7386 42.1508C54.7386 48.6349 49.4825 53.8905 42.9989 53.8905C36.5154 53.8905 31.2598 48.6349 31.2598 42.1508C31.2598 35.6667 36.5158 30.4121 42.9989 30.4121C49.482 30.4121 54.7386 35.6677 54.7386 42.1508Z" fill="white"/>
<path d="M51.6738 42.1501C51.6738 46.9422 47.7894 50.8266 42.9978 50.8266C38.2062 50.8266 34.3223 46.9422 34.3223 42.1501C34.3223 37.3581 38.2067 33.4746 42.9978 33.4746C47.7889 33.4746 51.6738 37.359 51.6738 42.1501Z" fill="#231F20"/>
<path d="M48.1371 42.1503C48.1371 44.9878 45.8369 47.288 42.999 47.288C40.161 47.288 37.8613 44.9878 37.8613 42.1503C37.8613 39.3129 40.1615 37.0127 42.999 37.0127C45.8365 37.0127 48.1371 39.3129 48.1371 42.1503Z" fill="white"/>
<path d="M46.3524 42.1503C46.3524 44.0034 44.8506 45.5042 42.9984 45.5042C41.1463 45.5042 39.6445 44.0034 39.6445 42.1503C39.6445 40.2972 41.1463 38.7964 42.9984 38.7964C44.8506 38.7964 46.3524 40.2981 46.3524 42.1503Z" fill="#79C9BC"/>
<path d="M45.7253 39.3344L45.5516 39.1611L43.1271 41.5856C43.1271 41.5856 42.9068 41.9884 42.9092 42.1505C43.0713 42.153 43.4742 41.9326 43.4742 41.9326L45.8986 39.5082L45.7253 39.3344Z" fill="url(#paint2_linear_293_210)"/>
<path d="M59.6359 24.5854C59.6359 24.5854 60.9653 23.2632 59.7703 22.0644C58.2667 20.5563 56.017 23.2831 55.3743 24.4767C54.2124 26.6341 55.8748 28.346 55.8748 28.346L59.6354 24.5854H59.6359Z" fill="url(#paint3_linear_293_210)"/>
<path d="M60.475 25.4238C60.475 25.4238 61.7967 24.0944 62.996 25.2894C64.5046 26.7926 61.7773 29.0423 60.5837 29.6849C58.4258 30.8469 56.7139 29.185 56.7139 29.185L60.475 25.4238Z" fill="url(#paint4_linear_293_210)"/>
<path d="M46.6221 39.2771C46.3906 39.5086 46.0144 39.5086 45.7834 39.2771C45.5514 39.0451 45.5514 38.6694 45.7834 38.4374L60.0994 24.1214C60.3314 23.8899 60.7071 23.8899 60.9391 24.1214C61.1706 24.3529 61.1706 24.7286 60.9391 24.9606L46.6226 39.2771H46.6221Z" fill="url(#paint5_linear_293_210)"/>
<path d="M56.522 28.7658C56.4594 28.8294 56.3565 28.8289 56.2934 28.7658C56.2303 28.7027 56.2303 28.6003 56.2934 28.5377L61.1539 23.6772C61.217 23.6141 61.3194 23.6141 61.3825 23.6772C61.4451 23.7403 61.4456 23.8427 61.3825 23.9058L56.522 28.7658Z" fill="url(#paint6_linear_293_210)"/>
<path d="M50.0312 35.8257L49.6332 35.4277L49.2352 35.0297C49.2352 35.0297 48.8833 34.8248 48.7362 34.9724C48.5891 35.1194 44.9736 38.7355 44.9736 38.7355C44.9736 38.7355 44.6669 39.2898 45.2192 39.8421C45.7716 40.3945 46.3259 40.0877 46.3259 40.0877C46.3259 40.0877 49.9414 36.4722 50.0885 36.3251C50.2355 36.1776 50.0312 35.8261 50.0312 35.8261V35.8257Z" fill="url(#paint7_linear_293_210)"/>
<path d="M46.6266 37.082C46.4699 37.2388 46.3155 37.3932 46.167 37.5417L47.5192 38.8939C47.6678 38.7459 47.8221 38.5911 47.9789 38.4343L46.6266 37.082Z" fill="url(#paint8_linear_293_210)"/>
<path d="M46.6799 39.7342C46.7236 39.6905 46.7702 39.6439 46.8206 39.5935L45.4684 38.2412C45.4179 38.2912 45.3718 38.3378 45.3281 38.3815L46.6804 39.7342H46.6799Z" fill="url(#paint9_linear_293_210)"/>
<path d="M45.7477 37.9604C45.6992 38.0085 45.6526 38.0556 45.6074 38.1007L46.9597 39.453C47.0048 39.4078 47.0514 39.3607 47.1004 39.3122L45.7482 37.96L45.7477 37.9604Z" fill="url(#paint10_linear_293_210)"/>
<path d="M49.7556 36.6576C49.9415 36.4717 50.0633 36.3499 50.088 36.3251C50.2351 36.1776 50.0308 35.8262 50.0308 35.8262L49.6328 35.4281L49.2348 35.0301C49.2348 35.0301 48.8829 34.8253 48.7358 34.9729C48.7115 34.9976 48.5892 35.119 48.4033 35.3053L49.7556 36.6576Z" fill="url(#paint11_linear_293_210)"/>
<path d="M46.0275 37.6811C45.9799 37.7287 45.9328 37.7758 45.8867 37.8214L47.239 39.1737C47.2851 39.1276 47.3317 39.081 47.3797 39.0329L46.0275 37.6807V37.6811Z" fill="url(#paint12_linear_293_210)"/>
<path d="M48.0937 35.6152C48.0369 35.6725 47.9767 35.7322 47.915 35.7943L49.2673 37.1466C49.3294 37.0849 49.3891 37.0248 49.4459 36.968L48.0937 35.6152Z" fill="url(#paint13_linear_293_210)"/>
<path d="M47.1161 36.5928C47.0564 36.652 46.9972 36.7117 46.9375 36.7714L48.2897 38.1236C48.3494 38.0639 48.4091 38.0047 48.4684 37.945L47.1161 36.5928Z" fill="url(#paint14_linear_293_210)"/>
<path d="M45.1882 38.521C45.0522 38.6564 44.9736 38.7355 44.9736 38.7355C44.9736 38.7355 44.6669 39.2898 45.2192 39.8422C45.7716 40.3945 46.3259 40.0878 46.3259 40.0878L46.5404 39.8732L45.1882 38.521Z" fill="url(#paint15_linear_293_210)"/>
<path d="M47.6049 36.104C47.5457 36.1627 47.4865 36.2224 47.4258 36.2826L48.778 37.6353C48.8387 37.5747 48.8979 37.5155 48.9566 37.4562L47.6044 36.104H47.6049Z" fill="url(#paint16_linear_293_210)"/>
<defs>
<linearGradient id="paint0_linear_293_210" x1="323.525" y1="40.7173" x2="81.5122" y2="40.8987" gradientUnits="userSpaceOnUse">
<stop stop-color="#79C9BC"/>
<stop offset="1" stop-color="#5B8BB3"/>
</linearGradient>
<radialGradient id="paint1_radial_293_210" cx="0" cy="0" r="1" gradientUnits="userSpaceOnUse" gradientTransform="translate(43 46.6079) scale(25)">
<stop/>
<stop offset="0.21" stop-color="#020202"/>
<stop offset="0.35" stop-color="#0B0B0B"/>
<stop offset="0.46" stop-color="#1A1A1A"/>
<stop offset="0.56" stop-color="#2E2E2E"/>
<stop offset="0.66" stop-color="#494949"/>
<stop offset="0.75" stop-color="#6B6B6B"/>
<stop offset="0.83" stop-color="#929292"/>
<stop offset="0.91" stop-color="#C0C0C0"/>
<stop offset="0.98" stop-color="#F3F3F3"/>
<stop offset="1" stop-color="white"/>
</radialGradient>
<linearGradient id="paint2_linear_293_210" x1="44.1801" y1="40.6053" x2="44.5144" y2="40.9396" gradientUnits="userSpaceOnUse">
<stop stop-color="#D0D2D3"/>
<stop offset="0.55" stop-color="white"/>
<stop offset="1" stop-color="#808184"/>
</linearGradient>
<linearGradient id="paint3_linear_293_210" x1="58.6278" y1="26.2307" x2="56.4059" y2="23.3861" gradientUnits="userSpaceOnUse">
<stop offset="0.06" stop-color="#20B9A0"/>
<stop offset="1" stop-color="#4DFEE1"/>
</linearGradient>
<linearGradient id="paint4_linear_293_210" x1="59.2582" y1="26.6405" x2="61.6476" y2="29.0299" gradientUnits="userSpaceOnUse">
<stop offset="0.06" stop-color="#24C8AD"/>
<stop offset="1" stop-color="#4FFFE2"/>
</linearGradient>
<linearGradient id="paint5_linear_293_210" x1="52.941" y1="31.2798" x2="53.7802" y2="32.1189" gradientUnits="userSpaceOnUse">
<stop offset="0.06" stop-color="#1CB49B"/>
<stop offset="0.46" stop-color="#79C9BC"/>
<stop offset="1" stop-color="#00826D"/>
</linearGradient>
<linearGradient id="paint6_linear_293_210" x1="58.7239" y1="26.1075" x2="58.9525" y2="26.3361" gradientUnits="userSpaceOnUse">
<stop offset="0.06" stop-color="#1FBAA1"/>
<stop offset="1" stop-color="#46FFE1"/>
</linearGradient>
<linearGradient id="paint7_linear_293_210" x1="46.4739" y1="36.6825" x2="48.2167" y2="38.4253" gradientUnits="userSpaceOnUse">
<stop offset="0.02" stop-color="#E5D475"/>
<stop offset="0.2" stop-color="#FFE331"/>
<stop offset="0.33" stop-color="#C49C35"/>
<stop offset="0.66" stop-color="#F8F6A5"/>
<stop offset="0.94" stop-color="#C49C35"/>
</linearGradient>
<linearGradient id="paint8_linear_293_210" x1="45.9538" y1="36.8688" x2="47.6228" y2="38.5379" gradientUnits="userSpaceOnUse">
<stop offset="0.02" stop-color="#E5D475"/>
<stop offset="0.2" stop-color="#FFE331"/>
<stop offset="0.33" stop-color="#C49C35"/>
<stop offset="0.66" stop-color="#F8F6A5"/>
<stop offset="0.94" stop-color="#C49C35"/>
</linearGradient>
<linearGradient id="paint9_linear_293_210" x1="44.9547" y1="37.8684" x2="46.6237" y2="39.5374" gradientUnits="userSpaceOnUse">
<stop offset="0.02" stop-color="#E5D475"/>
<stop offset="0.2" stop-color="#FFE331"/>
<stop offset="0.33" stop-color="#C49C35"/>
<stop offset="0.66" stop-color="#F8F6A5"/>
<stop offset="0.94" stop-color="#C49C35"/>
</linearGradient>
<linearGradient id="paint10_linear_293_210" x1="45.2345" y1="37.5883" x2="46.9031" y2="39.257" gradientUnits="userSpaceOnUse">
<stop offset="0.02" stop-color="#E5D475"/>
<stop offset="0.2" stop-color="#FFE331"/>
<stop offset="0.33" stop-color="#C49C35"/>
<stop offset="0.66" stop-color="#F8F6A5"/>
<stop offset="0.94" stop-color="#C49C35"/>
</linearGradient>
<linearGradient id="paint11_linear_293_210" x1="48.2372" y1="34.5856" x2="49.9059" y2="36.2543" gradientUnits="userSpaceOnUse">
<stop offset="0.02" stop-color="#E5D475"/>
<stop offset="0.2" stop-color="#FFE331"/>
<stop offset="0.33" stop-color="#C49C35"/>
<stop offset="0.66" stop-color="#F8F6A5"/>
<stop offset="0.94" stop-color="#C49C35"/>
</linearGradient>
<linearGradient id="paint12_linear_293_210" x1="45.5142" y1="37.3085" x2="47.1829" y2="38.9772" gradientUnits="userSpaceOnUse">
<stop offset="0.02" stop-color="#E5D475"/>
<stop offset="0.2" stop-color="#FFE331"/>
<stop offset="0.33" stop-color="#C49C35"/>
<stop offset="0.66" stop-color="#F8F6A5"/>
<stop offset="0.94" stop-color="#C49C35"/>
</linearGradient>
<linearGradient id="paint13_linear_293_210" x1="47.5609" y1="35.2619" x2="49.2299" y2="36.931" gradientUnits="userSpaceOnUse">
<stop offset="0.02" stop-color="#E5D475"/>
<stop offset="0.2" stop-color="#FFE331"/>
<stop offset="0.33" stop-color="#C49C35"/>
<stop offset="0.66" stop-color="#F8F6A5"/>
<stop offset="0.94" stop-color="#C49C35"/>
</linearGradient>
<linearGradient id="paint14_linear_293_210" x1="46.5838" y1="36.2393" x2="48.2525" y2="37.9079" gradientUnits="userSpaceOnUse">
<stop offset="0.02" stop-color="#E5D475"/>
<stop offset="0.2" stop-color="#FFE331"/>
<stop offset="0.33" stop-color="#C49C35"/>
<stop offset="0.66" stop-color="#F8F6A5"/>
<stop offset="0.94" stop-color="#C49C35"/>
</linearGradient>
<linearGradient id="paint15_linear_293_210" x1="44.4225" y1="38.4008" x2="46.0912" y2="40.0695" gradientUnits="userSpaceOnUse">
<stop offset="0.02" stop-color="#E5D475"/>
<stop offset="0.2" stop-color="#FFE331"/>
<stop offset="0.33" stop-color="#C49C35"/>
<stop offset="0.66" stop-color="#F8F6A5"/>
<stop offset="0.94" stop-color="#C49C35"/>
</linearGradient>
<linearGradient id="paint16_linear_293_210" x1="47.0722" y1="35.7507" x2="48.7412" y2="37.4197" gradientUnits="userSpaceOnUse">
<stop offset="0.02" stop-color="#E5D475"/>
<stop offset="0.2" stop-color="#FFE331"/>
<stop offset="0.33" stop-color="#C49C35"/>
<stop offset="0.66" stop-color="#F8F6A5"/>
<stop offset="0.94" stop-color="#C49C35"/>
</linearGradient>
</defs>
</svg>
