<svg width="800" height="87" viewBox="0 0 800 87" fill="none" xmlns="http://www.w3.org/2000/svg">
<rect y="46.3921" width="61" height="61" transform="rotate(-49 0 46.3921)" fill="#5B8BB3"/>
<path d="M79.6621 41.0405H268.722H445.662" stroke="url(#paint0_linear_284_202)" stroke-width="4"/>
<path d="M53.6004 40.9751C52.9616 40.8231 52.307 40.7475 51.6504 40.7501C46.7379 40.7501 42.7441 44.7438 42.7441 49.6563C42.7441 51.3251 43.2129 52.9001 44.0379 54.2501C44.7316 55.4126 45.6879 56.4063 46.8504 57.1188C48.2379 58.0376 49.8879 58.5626 51.6504 58.5626C54.9129 58.5626 57.7441 56.8188 59.2816 54.2501C60.1066 52.9001 60.5566 51.3251 60.5566 49.6563C60.558 47.6337 59.8695 45.6711 58.6047 44.0927C57.34 42.5143 55.5747 41.4146 53.6004 40.9751ZM56.0941 48.4938L51.3316 52.8813C51.0691 53.1251 50.7129 53.2563 50.3754 53.2563C50.0191 53.2563 49.6629 53.1251 49.3816 52.8438L47.1879 50.6501C46.9264 50.3854 46.7797 50.0284 46.7797 49.6563C46.7797 49.2843 46.9264 48.9272 47.1879 48.6626C47.7316 48.1188 48.6316 48.1188 49.1754 48.6626L50.4129 49.9001L54.1816 46.4313C54.7629 45.9063 55.6441 45.9438 56.1691 46.5063C56.6941 47.0876 56.6566 47.9688 56.0941 48.4938Z" fill="white"/>
<path d="M58.5871 29.5375V33.7C58.5871 35.2187 57.6496 37.1125 56.7121 38.0687L56.3746 38.3687C56.1121 38.6125 55.7184 38.6687 55.3809 38.5562C55.0059 38.425 54.6309 38.3312 54.2559 38.2375C53.4309 38.0312 52.5496 37.9375 51.6496 37.9375C45.1809 37.9375 39.9309 43.1875 39.9309 49.6562C39.9309 51.7937 40.5121 53.8937 41.6184 55.6937C42.5559 57.2687 43.8684 58.5812 45.2934 59.4625C45.7246 59.7437 45.8934 60.3437 45.5184 60.6812C45.3871 60.7937 45.2559 60.8875 45.1246 60.9813L42.4996 62.6875C40.0621 64.2062 36.7059 62.5 36.7059 59.4625V49.4312C36.7059 48.1 35.9559 46.3937 35.2059 45.4562L28.0996 37.8812C27.1621 36.925 26.4121 35.2187 26.4121 34.0937V29.725C26.4121 27.4562 28.0996 25.75 30.1434 25.75H54.8559C56.8996 25.75 58.5871 27.4562 58.5871 29.5375Z" fill="white"/>
<defs>
<linearGradient id="paint0_linear_284_202" x1="443.963" y1="40.3477" x2="82.4262" y2="40.7525" gradientUnits="userSpaceOnUse">
<stop stop-color="#79C9BC"/>
<stop offset="1" stop-color="#5B8BB3"/>
</linearGradient>
</defs>
</svg>
