<svg width="660" height="87" viewBox="0 0 660 87" fill="none" xmlns="http://www.w3.org/2000/svg">
<rect y="46.3918" width="61" height="61" transform="rotate(-49 0 46.3918)" fill="#5B8BB3"/>
<path d="M61.716 47.1546C61.4271 46.667 60.6144 45.9085 58.5919 46.2697C57.4722 46.4684 56.3345 46.5586 55.1969 46.5045C53.1677 46.4125 51.1777 45.9143 49.3445 45.0396C47.5113 44.1649 45.8722 42.9313 44.5242 41.4119C42.1766 38.7934 40.7319 35.3803 40.7138 31.6964C40.7138 29.6377 41.1111 27.6512 41.9237 25.7731C42.7183 23.9492 42.1585 22.9921 41.7612 22.5948C41.3459 22.1795 40.3707 21.6016 38.4565 22.3962C31.0705 25.5023 26.5017 32.9063 27.0434 40.8341C27.5852 48.2923 32.8222 54.667 39.7567 57.0688C41.4379 57.6553 43.1966 57.99 44.9757 58.062C45.2646 58.0801 45.5535 58.0981 45.8425 58.0981C51.8921 58.0981 57.5625 55.2449 61.1381 50.3871C62.3481 48.7076 62.023 47.6422 61.716 47.1546Z" fill="white"/>
<path d="M79.6621 41.0403H379.266H659.662" stroke="url(#paint0_linear_300_210)" stroke-width="4"/>
<defs>
<linearGradient id="paint0_linear_300_210" x1="656.97" y1="40.3474" x2="84.0434" y2="41.364" gradientUnits="userSpaceOnUse">
<stop stop-color="#79C9BC"/>
<stop offset="1" stop-color="#5B8BB3"/>
</linearGradient>
</defs>
</svg>
