<svg width="712" height="87" viewBox="0 0 712 87" fill="none" xmlns="http://www.w3.org/2000/svg">
<rect y="46.3923" width="61" height="61" transform="rotate(-49 0 46.3923)" fill="#5B8BB3"/>
<path d="M51.104 22H33.9164C26.4507 22 22 26.4507 22 33.9164V51.0835C22 58.5697 26.4507 63.0204 33.9164 63.0204H51.0835C58.5492 63.0204 62.9999 58.5697 62.9999 51.104V33.9164C63.0204 26.4507 58.5697 22 51.104 22ZM40.3566 53.8114C39.7619 54.4061 38.6338 54.9804 37.8134 55.1035L32.7679 55.8214C32.5833 55.8419 32.3987 55.8624 32.2141 55.8624C31.3732 55.8624 30.5938 55.5752 30.04 55.0215C29.3632 54.3446 29.076 53.3601 29.2401 52.2731L29.958 47.2276C30.081 46.3867 30.6348 45.2791 31.2501 44.6843L40.3977 35.5367C40.7236 36.4555 41.1357 37.3413 41.6283 38.1826C41.8334 38.5312 42.059 38.8594 42.2436 39.1055C42.4692 39.4542 42.7358 39.7824 42.8999 39.967C43.0025 40.1105 43.0845 40.2131 43.1255 40.2541C43.6383 40.8694 44.2331 41.4437 44.7458 41.8744C44.8894 42.018 44.9714 42.1 45.0125 42.1205C45.3201 42.3666 45.6278 42.6128 45.8944 42.7974C46.2226 43.0435 46.5507 43.2691 46.8994 43.4537C47.3096 43.6998 47.7608 43.9254 48.2121 44.151C48.6838 44.3561 49.1145 44.5407 49.5452 44.6843L40.3566 53.8114ZM53.5242 40.6438L51.6373 42.5512C51.5779 42.6102 51.5075 42.6568 51.4301 42.6885C51.3526 42.7202 51.2697 42.7363 51.186 42.7358C51.1245 42.7358 51.0425 42.7358 51.0015 42.7153C48.9411 42.1181 47.0652 41.0094 45.5484 39.4926C44.0315 37.9757 42.9229 36.0999 42.3256 34.0395C42.2641 33.8139 42.3256 33.5678 42.4897 33.4242L44.3972 31.5167C47.5147 28.3992 50.4887 28.4607 53.5447 31.5167C55.1035 33.0755 55.8624 34.5728 55.8624 36.1315C55.8419 37.6083 55.083 39.085 53.5242 40.6438Z" fill="white"/>
<path d="M79.6621 41.0408H406.126H711.662" stroke="url(#paint0_linear_64_1373)" stroke-width="4"/>
<defs>
<linearGradient id="paint0_linear_64_1373" x1="708.729" y1="40.3479" x2="84.4366" y2="41.5549" gradientUnits="userSpaceOnUse">
<stop stop-color="#79C9BC"/>
<stop offset="1" stop-color="#5B8BB3"/>
</linearGradient>
</defs>
</svg>
