<svg width="736" height="87" viewBox="0 0 736 87" fill="none" xmlns="http://www.w3.org/2000/svg">
<rect y="46.762" width="61" height="61" transform="rotate(-49 0 46.762)" fill="#5B8BB3"/>
<path d="M79.6564 42.1436H641.849H1168" stroke="url(#paint0_linear_64_1132)" stroke-width="4"/>
<path d="M51.6843 23H35.3351C28.2336 23 24 27.2336 24 34.3351V50.6648C24 57.7858 28.2336 62.0194 35.3351 62.0194H51.6648C58.7663 62.0194 62.9999 57.7858 62.9999 50.6843V34.3351C63.0194 27.2336 58.7858 23 51.6843 23ZM34.984 54.5082C34.984 55.3081 34.3206 55.9714 33.5207 55.9714C32.7208 55.9714 32.0575 55.3081 32.0575 54.5082V50.4697C32.0575 49.6698 32.7208 49.0065 33.5207 49.0065C34.3206 49.0065 34.984 49.6698 34.984 50.4697V54.5082ZM44.973 54.5082C44.973 55.3081 44.3096 55.9714 43.5097 55.9714C42.7098 55.9714 42.0465 55.3081 42.0465 54.5082V46.4117C42.0465 45.6118 42.7098 44.9484 43.5097 44.9484C44.3096 44.9484 44.973 45.6118 44.973 46.4117V54.5082ZM54.9619 54.5082C54.9619 55.3081 54.2986 55.9714 53.4987 55.9714C52.6988 55.9714 52.0355 55.3081 52.0355 54.5082V42.3732C52.0355 41.5733 52.6988 40.9099 53.4987 40.9099C54.2986 40.9099 54.9619 41.5733 54.9619 42.3732V54.5082ZM54.9619 36.2081C54.9619 37.008 54.2986 37.6713 53.4987 37.6713C52.6988 37.6713 52.0355 37.008 52.0355 36.2081V34.3156C47.0774 39.4306 40.7849 43.0534 33.8719 44.7729C33.7549 44.8119 33.6378 44.8119 33.5207 44.8119C32.8574 44.8119 32.2721 44.3631 32.0965 43.6998C31.9014 42.9194 32.3697 42.1195 33.1696 41.9244C39.6943 40.2974 45.6175 36.8382 50.2406 31.955H47.8019C47.002 31.955 46.3386 31.2916 46.3386 30.4917C46.3386 29.6918 47.002 29.0285 47.8019 29.0285H53.5182C53.5962 29.0285 53.6548 29.0675 53.7328 29.0675C53.8304 29.087 53.9279 29.087 54.0255 29.1261C54.123 29.1651 54.2011 29.2236 54.2986 29.2821C54.3571 29.3211 54.4157 29.3407 54.4742 29.3797C54.4937 29.3992 54.4937 29.4187 54.5132 29.4187C54.5912 29.4967 54.6498 29.5748 54.7083 29.6528C54.7668 29.7309 54.8254 29.7894 54.8449 29.8674C54.8839 29.9455 54.8839 30.0235 54.9034 30.121C54.9229 30.2186 54.9619 30.3161 54.9619 30.4332C54.9619 30.4527 54.9814 30.4722 54.9814 30.4917V36.2081H54.9619Z" fill="white"/>
<defs>
<linearGradient id="paint0_linear_64_1132" x1="1162.95" y1="41.4507" x2="87.8862" y2="45.0301" gradientUnits="userSpaceOnUse">
<stop stop-color="#79C9BC"/>
<stop offset="1" stop-color="#5B8BB3"/>
</linearGradient>
</defs>
</svg>
