<svg width="712" height="87" viewBox="0 0 712 87" fill="none" xmlns="http://www.w3.org/2000/svg">
<rect y="46.3921" width="61" height="61" transform="rotate(-49 0 46.3921)" fill="#5B8BB3"/>
<path fill-rule="evenodd" clip-rule="evenodd" d="M24.069 46.5639C24.6191 48.4863 26.1007 49.966 29.0619 52.9272L32.5694 56.4347C37.7252 61.5925 40.3012 64.1666 43.5021 64.1666C46.7048 64.1666 49.2808 61.5887 54.4347 56.4347C59.5925 51.2808 62.1666 48.7048 62.1666 45.5021C62.1666 42.3012 59.5886 39.7233 54.4347 34.5694L50.9272 31.0619C47.966 28.1007 46.4863 26.6191 44.5639 26.069C42.6415 25.517 40.6002 25.9885 36.5197 26.9315L34.166 27.4739C30.7313 28.2655 29.014 28.6622 27.8372 29.8372C26.6622 31.014 26.2655 32.7313 25.4739 36.166L24.9296 38.5197C23.9885 42.6022 23.5189 44.6415 24.069 46.5639ZM39.4023 35.936C39.772 36.2925 40.0669 36.7191 40.2699 37.1909C40.4729 37.6626 40.5798 38.1701 40.5845 38.6837C40.5891 39.1972 40.4914 39.7066 40.297 40.1819C40.1026 40.6573 39.8155 41.0892 39.4523 41.4523C39.0892 41.8155 38.6573 42.1026 38.1819 42.297C37.7066 42.4914 37.1972 42.5891 36.6837 42.5845C36.1701 42.5798 35.6626 42.4729 35.1909 42.2699C34.7191 42.0669 34.2925 41.772 33.936 41.4023C33.2327 40.673 32.8438 39.6968 32.8529 38.6837C32.8621 37.6705 33.2687 36.7015 33.9851 35.9851C34.7015 35.2687 35.6705 34.8621 36.6837 34.853C37.6968 34.8438 38.673 35.2327 39.4023 35.936ZM56.5143 45.0977L43.1379 58.476C42.8667 58.7377 42.5035 58.8824 42.1266 58.879C41.7497 58.8755 41.3892 58.7242 41.1228 58.4575C40.8564 58.1909 40.7054 57.8303 40.7023 57.4534C40.6992 57.0765 40.8442 56.7134 41.1062 56.4424L54.4807 43.0641C54.7504 42.7944 55.1162 42.6429 55.4975 42.6429C55.8789 42.6429 56.2446 42.7944 56.5143 43.0641C56.784 43.3337 56.9355 43.6995 56.9355 44.0809C56.9355 44.4622 56.784 44.828 56.5143 45.0977Z" fill="white"/>
<path d="M79.6621 41.0405H406.126H711.662" stroke="url(#paint0_linear_64_1115)" stroke-width="4"/>
<defs>
<linearGradient id="paint0_linear_64_1115" x1="708.729" y1="40.3477" x2="84.4366" y2="41.5547" gradientUnits="userSpaceOnUse">
<stop stop-color="#79C9BC"/>
<stop offset="1" stop-color="#5B8BB3"/>
</linearGradient>
</defs>
</svg>
