<svg width="41" height="32" viewBox="0 0 41 32" fill="none" xmlns="http://www.w3.org/2000/svg">
<path d="M9.08931 31.0013V15.5493L4.2972 11.1653L0 8.73242V28.2744C0 29.7832 1.22244 31.0013 2.72686 31.0013H9.08931Z" fill="#79C9BC"/>
<path d="M30.9121 31.0011H37.2746C38.7835 31.0011 40.0014 29.7785 40.0014 28.2742V8.73242L35.1342 11.519L30.9121 15.5492V31.0011Z" fill="#79C9BC"/>
<path d="M9.09726 15.5484L8.44519 9.51092L9.09726 3.73242L20.0044 11.9128L30.9115 3.73242L31.6409 9.19894L30.9115 15.5484L20.0044 23.7288L9.09726 15.5484Z" fill="#79C9BC"/>
<path d="M30.9121 3.73251V15.5485L40.0014 8.73161V5.09586C40.0014 1.72381 36.1521 -0.198506 33.4573 1.82379L30.9121 3.73251Z" fill="#79C9BC"/>
<path d="M0 8.73169L4.18035 11.8671L9.08931 15.5486V3.73258L6.54414 1.82386C3.84462 -0.198591 0 1.72388 0 5.09577V8.73153V8.73169Z" fill="#79C9BC"/>
</svg>
