<svg width="40" height="40" viewBox="0 0 40 40" fill="none" xmlns="http://www.w3.org/2000/svg">
<g id="Group 58">
<rect id="Rectangle 43" width="40" height="40" rx="15" fill="black"/>
<g id="Group 57">
<path id="Vector" d="M12.1054 30.0749V18.8991L8.63948 15.7283L5.53149 13.9688V28.1026C5.53149 29.1939 6.41563 30.0749 7.50371 30.0749H12.1054Z" fill="white"/>
<path id="Vector_2" d="M27.8867 30.0747H32.4884C33.5798 30.0747 34.4606 29.1905 34.4606 28.1025V13.9688L30.9404 15.9841L27.8867 18.899V30.0747Z" fill="white"/>
<path id="Vector_3" d="M12.1083 18.8986L11.6367 14.5319L12.1083 10.3525L19.997 16.2691L27.8856 10.3525L28.4132 14.3062L27.8856 18.8986L19.997 24.8151L12.1083 18.8986Z" fill="white"/>
<path id="Vector_4" d="M27.8867 10.3527V18.8987L34.4606 13.9684V11.3388C34.4606 8.89991 31.6766 7.50958 29.7275 8.97222L27.8867 10.3527Z" fill="white"/>
<path id="Vector_5" d="M5.53125 13.9684L8.55472 16.2361L12.1052 18.8988V10.3528L10.2643 8.97228C8.3119 7.50952 5.53125 8.89996 5.53125 11.3387V13.9683V13.9684Z" fill="white"/>
</g>
</g>
</svg>
