<svg width="77" height="50" viewBox="0 0 77 50" fill="none" xmlns="http://www.w3.org/2000/svg">
<g id="Group 23">
<path id="Vector" d="M51.0684 13.6631C51.0684 15.1172 50.8419 16.5175 50.4208 17.8314C49.0789 22.0246 45.7668 25.3367 41.5736 26.6786C40.2597 27.0997 38.8586 27.3262 37.4053 27.3262C35.952 27.3262 34.5509 27.0997 33.237 26.6786C29.0438 25.3367 25.7318 22.0246 24.3898 17.8314C23.9687 16.5175 23.7422 15.1164 23.7422 13.6631C23.7422 12.2099 23.9687 10.8088 24.3898 9.49483C25.7318 5.30163 29.0438 1.98957 33.237 0.647623C34.5509 0.226512 35.952 0 37.4053 0C38.8586 0 40.2597 0.226512 41.5736 0.647623C45.7668 1.98957 49.0789 5.30163 50.4208 9.49483C50.8419 10.8088 51.0684 12.2099 51.0684 13.6631Z" fill="#79C9BC"/>
<g id="Group">
<path id="Vector_2" d="M49.6531 45.9156C49.6531 47.9097 48.4481 49.5256 46.9615 49.5256H3.04523C2.81739 49.5256 2.59604 49.4872 2.38466 49.4157C1.21382 49.0183 0.346626 47.589 0.353557 45.8947C0.36222 43.9023 1.58937 42.3057 3.07469 42.3057H46.9619C47.7052 42.3057 48.3779 42.7095 48.8648 43.3631C49.3521 44.0162 49.6531 44.9191 49.6531 45.9156Z" fill="#5B8BB3"/>
<g id="Group_2" opacity="0.56">
<path id="Vector_3" opacity="0.71" d="M9.9757 42.3057L6.86819 49.5256H3.0451C2.81725 49.5256 2.5959 49.4872 2.38452 49.4157L5.44482 42.3057H9.9757Z" fill="#45526D"/>
<path id="Vector_4" opacity="0.71" d="M18.6499 42.3057L15.5424 49.5256H11.0115L14.119 42.3057H18.6499Z" fill="#45526D"/>
<path id="Vector_5" opacity="0.71" d="M27.3241 42.3057L24.2166 49.5256H19.6853L22.7932 42.3057H27.3241Z" fill="#45526D"/>
<path id="Vector_6" opacity="0.71" d="M35.9977 42.3057L32.8902 49.5256H28.3589L31.4664 42.3057H35.9977Z" fill="#45526D"/>
<path id="Vector_7" opacity="0.71" d="M44.6716 42.3057L41.5641 49.5256H37.0332L40.1407 42.3057H44.6716Z" fill="#45526D"/>
</g>
<path id="Vector_8" d="M73.0867 42.7799C74.378 42.7799 75.4245 44.1836 75.4245 45.9157C75.4245 47.6478 74.378 49.0515 73.0867 49.0515H3.04514C1.75388 49.0515 0.707355 47.6478 0.707355 45.9157C0.707355 44.1836 1.75388 42.7799 3.04514 42.7799H73.0867ZM73.0867 41.8311H3.04514C2.23166 41.8311 1.46712 42.2558 0.891883 43.0274C0.316642 43.799 0 44.8245 0 45.9157C0 47.0069 0.316642 48.0324 0.891883 48.804C1.46712 49.5756 2.23166 50.0003 3.04514 50.0003H73.0867C73.9002 50.0003 74.6648 49.5756 75.24 48.804C75.8152 48.0324 76.1319 47.0069 76.1319 45.9157C76.1319 44.8245 75.8152 43.799 75.24 43.0274C74.6648 42.2558 73.9002 41.8311 73.0867 41.8311Z" fill="#79C9BC"/>
</g>
<g id="Group_3">
<path id="Vector_9" d="M42.7257 21.6052C42.4509 21.2246 41.9302 21.1008 41.5378 21.3274C39.0096 22.7845 35.6843 22.7791 32.9374 21.0417C30.3827 19.425 28.9676 16.713 28.9691 14.0003C28.9691 13.4049 29.0384 12.8094 29.1785 12.2256L30.3757 12.983C30.6559 13.1605 31.0132 12.983 31.0187 12.6646L31.1012 7.80201C31.1066 7.48287 30.7563 7.2618 30.4707 7.40269L26.114 9.56195C25.8283 9.70362 25.8213 10.1022 26.1016 10.2796L27.5953 11.2246C27.4264 11.7788 27.312 12.3439 27.2505 12.9137C26.8597 16.534 28.601 20.317 32.0251 22.484C35.366 24.5974 39.4105 24.6044 42.4859 22.8351C42.9172 22.5868 43.0261 22.0232 42.7249 21.606L42.7257 21.6052Z" fill="#5B8BB3"/>
<path id="Vector_10" d="M32.086 5.72142C32.3608 6.10206 32.8815 6.22582 33.2739 5.99931C35.8021 4.54216 39.1274 4.54761 41.8743 6.28498C44.429 7.9017 45.8441 10.6136 45.8425 13.3263C45.8425 13.9218 45.7733 14.5173 45.6332 15.1011L44.436 14.3437C44.1558 14.1662 43.7985 14.3437 43.793 14.662L43.7105 19.5247C43.7051 19.8438 44.0554 20.0649 44.341 19.924L48.6977 17.7647C48.9834 17.623 48.9904 17.2245 48.7101 17.047L47.2164 16.1021C47.3853 15.5478 47.4997 14.9827 47.5612 14.413C47.952 10.7927 46.2107 7.00966 42.7866 4.84262C39.4457 2.72928 35.4012 2.72228 32.3258 4.49156C31.8945 4.73987 31.7856 5.30343 32.0868 5.72064L32.086 5.72142Z" fill="#5B8BB3"/>
</g>
<g id="Group_4">
<path id="Vector_11" d="M21.4661 35.1437C21.1493 35.1437 20.8691 35.0854 20.6255 34.9678C20.3811 34.8511 20.1911 34.6884 20.0541 34.4805C19.9171 34.2727 19.8486 34.0353 19.8486 33.7683V31.458C19.8486 31.3825 19.8735 31.3203 19.9226 31.2728C19.9724 31.2253 20.0331 31.2012 20.1055 31.2012C20.1779 31.2012 20.2433 31.2253 20.2908 31.2728C20.3382 31.3203 20.3624 31.3825 20.3624 31.458V33.7683C20.3624 33.9466 20.4091 34.1038 20.5033 34.2408C20.5974 34.3778 20.7274 34.4852 20.894 34.5623C21.0606 34.6401 21.2513 34.6783 21.4654 34.6783C21.6794 34.6783 21.8569 34.6393 22.0172 34.5623C22.1768 34.4852 22.3021 34.3778 22.3932 34.2408C22.4843 34.1038 22.5294 33.9466 22.5294 33.7683V31.458C22.5294 31.3825 22.5543 31.3203 22.6034 31.2728C22.6532 31.2253 22.7139 31.2012 22.7863 31.2012C22.8587 31.2012 22.9233 31.2253 22.9692 31.2728C23.0151 31.3203 23.0385 31.3825 23.0385 31.458V33.7683C23.0385 34.0353 22.9715 34.2727 22.8384 34.4805C22.7046 34.6884 22.5193 34.8511 22.2819 34.9678C22.0445 35.0846 21.772 35.1437 21.4654 35.1437H21.4661Z" fill="#5B8BB3"/>
<path id="Vector_12" d="M25.2207 36.2225C25.1483 36.2225 25.0876 36.1983 25.0401 36.1509C24.9926 36.1034 24.9685 36.0427 24.9685 35.9703V33.7145C24.9716 33.4537 25.0331 33.2194 25.1514 33.0124C25.2705 32.8045 25.4317 32.6403 25.6364 32.5204C25.8411 32.3998 26.0715 32.3398 26.3291 32.3398C26.5868 32.3398 26.8219 32.3998 27.0266 32.5204C27.2313 32.6411 27.3932 32.8045 27.5138 33.0124C27.6345 33.2202 27.6944 33.4545 27.6944 33.7145C27.6944 33.9745 27.6392 34.2088 27.5286 34.4143C27.4181 34.6205 27.2671 34.784 27.0756 34.9039C26.8841 35.0245 26.6685 35.0845 26.4272 35.0845C26.2326 35.0845 26.0536 35.044 25.8901 34.963C25.7267 34.8821 25.5873 34.7723 25.4721 34.6338V35.9695C25.4721 36.0419 25.4488 36.1018 25.4028 36.1501C25.3569 36.1976 25.2954 36.2217 25.2199 36.2217L25.2207 36.2225ZM26.3291 34.6392C26.4973 34.6392 26.6475 34.5987 26.779 34.5178C26.9106 34.4368 27.0157 34.3263 27.0935 34.1862C27.1714 34.0461 27.2095 33.8888 27.2095 33.7137C27.2095 33.5386 27.1706 33.3767 27.0935 33.2366C27.0157 33.0964 26.9114 32.9859 26.779 32.905C26.6475 32.824 26.4973 32.7835 26.3291 32.7835C26.161 32.7835 26.0147 32.824 25.8816 32.905C25.7477 32.9859 25.6434 33.0964 25.5671 33.2366C25.4916 33.3767 25.4534 33.5355 25.4534 33.7137C25.4534 33.892 25.4916 34.0461 25.5671 34.1862C25.6426 34.3263 25.7477 34.4368 25.8816 34.5178C26.0154 34.5987 26.1641 34.6392 26.3291 34.6392Z" fill="#5B8BB3"/>
<path id="Vector_13" d="M30.6631 35.0848C30.4055 35.0848 30.1743 35.0248 29.968 34.9042C29.7618 34.7835 29.5983 34.6201 29.4784 34.4122C29.3578 34.2044 29.2979 33.9701 29.2979 33.7094C29.2979 33.4486 29.3531 33.2159 29.4636 33.0096C29.5742 32.8033 29.7252 32.6406 29.9159 32.52C30.1074 32.3993 30.323 32.3394 30.5643 32.3394C30.7589 32.3394 30.9387 32.3799 31.1037 32.4608C31.2687 32.5418 31.4073 32.6515 31.5194 32.7901V31.4543C31.5194 31.3788 31.5435 31.3173 31.591 31.2714C31.6385 31.2255 31.6992 31.2021 31.7716 31.2021C31.844 31.2021 31.9086 31.2255 31.9545 31.2714C32.0004 31.3173 32.0238 31.3788 32.0238 31.4543V33.7101C32.0238 33.9709 31.9638 34.2052 31.8432 34.413C31.7225 34.6208 31.5606 34.7851 31.3559 34.905C31.1512 35.0256 30.9208 35.0855 30.6631 35.0855V35.0848ZM30.6631 34.6395C30.8313 34.6395 30.9815 34.5991 31.1131 34.5181C31.2446 34.4371 31.3489 34.3258 31.4244 34.1842C31.4999 34.0425 31.5381 33.8845 31.5381 33.7094C31.5381 33.5342 31.4999 33.3731 31.4244 33.2345C31.3489 33.096 31.2446 32.9862 31.1131 32.9053C30.9807 32.8243 30.8313 32.7838 30.6631 32.7838C30.495 32.7838 30.3487 32.8243 30.2156 32.9053C30.0817 32.9862 29.9766 33.096 29.8988 33.2345C29.8209 33.3731 29.7828 33.5311 29.7828 33.7094C29.7828 33.8876 29.8217 34.0425 29.8988 34.1842C29.9766 34.3258 30.0817 34.4371 30.2156 34.5181C30.3495 34.5991 30.4981 34.6395 30.6631 34.6395Z" fill="#5B8BB3"/>
<path id="Vector_14" d="M35.0311 35.0845C34.7906 35.0845 34.5742 35.0245 34.3827 34.9039C34.1912 34.7832 34.0402 34.6205 33.9304 34.4143C33.8199 34.208 33.7646 33.9745 33.7646 33.7145C33.7646 33.4545 33.8246 33.2194 33.9452 33.0124C34.0659 32.8045 34.2286 32.6403 34.4348 32.5204C34.6411 32.3998 34.8723 32.3398 35.1299 32.3398C35.3876 32.3398 35.618 32.3998 35.8227 32.5204C36.0274 32.6411 36.1893 32.8045 36.31 33.0124C36.4306 33.2202 36.4906 33.4545 36.4906 33.7145H36.2975C36.2975 33.9752 36.2423 34.2088 36.1317 34.4143C36.0212 34.6205 35.8702 34.784 35.6787 34.9039C35.4872 35.0245 35.2716 35.0845 35.0303 35.0845H35.0311ZM35.1299 34.6392C35.2981 34.6392 35.4483 34.5987 35.5799 34.5178C35.7114 34.4368 35.8157 34.3263 35.8912 34.1862C35.9667 34.0461 36.0049 33.8888 36.0049 33.7137C36.0049 33.5386 35.9667 33.3767 35.8912 33.2366C35.8157 33.0964 35.7114 32.9859 35.5799 32.905C35.4475 32.824 35.2981 32.7835 35.1299 32.7835C34.9618 32.7835 34.8155 32.824 34.6824 32.905C34.5485 32.9859 34.4434 33.0964 34.3656 33.2366C34.2877 33.3767 34.2496 33.5355 34.2496 33.7137C34.2496 33.892 34.2885 34.0461 34.3656 34.1862C34.4434 34.3263 34.5485 34.4368 34.6824 34.5178C34.8163 34.5987 34.9649 34.6392 35.1299 34.6392ZM36.2384 35.0697C36.166 35.0697 36.1053 35.0455 36.0578 34.9981C36.0095 34.9506 35.9862 34.8899 35.9862 34.8175V34.0609L36.0804 33.5362L36.4914 33.7145V34.8175C36.4914 34.8899 36.4672 34.9506 36.4197 34.9981C36.3723 35.0455 36.3115 35.0697 36.2392 35.0697H36.2384Z" fill="#5B8BB3"/>
<path id="Vector_15" d="M38.1177 32.8836C38.0485 32.8836 37.9924 32.8641 37.9496 32.8244C37.9068 32.7847 37.885 32.7357 37.885 32.6758C37.885 32.6096 37.9068 32.5574 37.9496 32.5177C37.9924 32.478 38.0485 32.4586 38.1177 32.4586H39.2604C39.3297 32.4586 39.3858 32.478 39.4286 32.5177C39.4714 32.5574 39.4932 32.6104 39.4932 32.6758C39.4932 32.7349 39.4714 32.7847 39.4286 32.8244C39.3858 32.8641 39.3297 32.8836 39.2604 32.8836H38.1177ZM39.2161 35.0654C39.051 35.0654 38.9024 35.0234 38.7708 34.9393C38.6385 34.8553 38.535 34.7408 38.4595 34.5953C38.384 34.4497 38.3458 34.287 38.3458 34.1057V31.7456C38.3458 31.6732 38.3692 31.614 38.4151 31.5673C38.461 31.5214 38.521 31.498 38.5933 31.498C38.6657 31.498 38.7249 31.5214 38.7716 31.5673C38.8175 31.6133 38.8409 31.6732 38.8409 31.7456V34.1057C38.8409 34.238 38.8775 34.3477 38.9498 34.4373C39.0222 34.526 39.1118 34.5711 39.2168 34.5711H39.385C39.4441 34.5711 39.4947 34.5945 39.536 34.6404C39.5772 34.6863 39.5975 34.7463 39.5975 34.8187C39.5975 34.8911 39.5702 34.951 39.5157 34.9969C39.4613 35.0428 39.3912 35.0662 39.3056 35.0662H39.2168L39.2161 35.0654Z" fill="#5B8BB3"/>
<path id="Vector_16" d="M42.4761 35.0841C42.2021 35.0841 41.9592 35.0257 41.7467 34.9081C41.5342 34.7914 41.3676 34.6295 41.247 34.4232C41.1263 34.2169 41.0664 33.9803 41.0664 33.7133C41.0664 33.4463 41.1232 33.205 41.2369 32.9987C41.3505 32.7925 41.5078 32.6313 41.7094 32.5138C41.9102 32.397 42.1414 32.3379 42.4021 32.3379C42.6629 32.3379 42.8801 32.3947 43.0653 32.5084C43.2498 32.622 43.3907 32.7785 43.488 32.9785C43.5853 33.1778 43.6335 33.4082 43.6335 33.6689C43.6335 33.7312 43.6117 33.7834 43.5689 33.8246C43.5261 33.8659 43.4716 33.8861 43.4055 33.8861H41.412V33.4907H43.3907L43.1875 33.6292C43.1844 33.4642 43.1509 33.3171 43.0887 33.1863C43.0256 33.0563 42.9369 32.9528 42.8217 32.8773C42.7065 32.8018 42.5664 32.7637 42.4013 32.7637C42.2138 32.7637 42.0526 32.8049 41.9187 32.8874C41.7849 32.9699 41.6837 33.0828 41.6144 33.226C41.5451 33.3693 41.5101 33.5319 41.5101 33.7133C41.5101 33.8947 41.5513 34.0566 41.6339 34.1982C41.7164 34.3399 41.83 34.452 41.9756 34.5345C42.1203 34.617 42.2869 34.6583 42.4753 34.6583C42.5773 34.6583 42.6823 34.6396 42.7898 34.6015C42.8972 34.5633 42.9836 34.5197 43.0497 34.4707C43.0996 34.4341 43.1525 34.4154 43.2109 34.4139C43.2685 34.4123 43.3191 34.4294 43.3619 34.466C43.4179 34.5158 43.4475 34.5695 43.4506 34.6295C43.4537 34.6886 43.4273 34.74 43.3712 34.7828C43.2591 34.8716 43.1198 34.9447 42.9532 35.0008C42.7867 35.0568 42.6279 35.0848 42.4761 35.0848V35.0841Z" fill="#5B8BB3"/>
<path id="Vector_17" d="M45.4093 35.1434C45.3167 35.1434 45.2373 35.1099 45.1695 35.0422C45.1018 34.9745 45.0684 34.8943 45.0684 34.8024C45.0684 34.7106 45.1018 34.625 45.1695 34.5572C45.2373 34.4895 45.3174 34.4561 45.4093 34.4561C45.5011 34.4561 45.586 34.4903 45.6514 34.5572C45.7175 34.625 45.7502 34.7067 45.7502 34.8024C45.7502 34.8982 45.7175 34.9745 45.6514 35.0422C45.5852 35.1099 45.5043 35.1434 45.4093 35.1434Z" fill="#5B8BB3"/>
<path id="Vector_18" d="M50.0157 35.1434C49.9231 35.1434 49.8437 35.1099 49.776 35.0422C49.7083 34.9745 49.6748 34.8943 49.6748 34.8024C49.6748 34.7106 49.7083 34.625 49.776 34.5572C49.8437 34.4895 49.9239 34.4561 50.0157 34.4561C50.1076 34.4561 50.1924 34.4903 50.2578 34.5572C50.324 34.625 50.3567 34.7067 50.3567 34.8024C50.3567 34.8982 50.324 34.9745 50.2578 35.0422C50.1917 35.1099 50.1107 35.1434 50.0157 35.1434Z" fill="#5B8BB3"/>
<path id="Vector_19" d="M54.6212 35.1434C54.5286 35.1434 54.4492 35.1099 54.3815 35.0422C54.3137 34.9745 54.2803 34.8943 54.2803 34.8024C54.2803 34.7106 54.3137 34.625 54.3815 34.5572C54.4492 34.4895 54.5294 34.4561 54.6212 34.4561C54.7131 34.4561 54.7979 34.4903 54.8633 34.5572C54.9295 34.625 54.9621 34.7067 54.9621 34.8024C54.9621 34.8982 54.9295 34.9745 54.8633 35.0422C54.7971 35.1099 54.7162 35.1434 54.6212 35.1434Z" fill="#5B8BB3"/>
</g>
</g>
</svg>
