<svg width="76" height="60" viewBox="0 0 76 60" fill="none" xmlns="http://www.w3.org/2000/svg">
<g id="Isolation_Mode" clip-path="url(#clip0_29_794)">
<g id="Group">
<path id="Vector" d="M6.14422 29.0557H6.01929V48.8248H6.14422V29.0557Z" fill="#5B8BB3"/>
<path id="Vector_2" d="M13.0901 28.1934H6.87891V28.3189H13.0901V28.1934Z" fill="#5B8BB3"/>
<path id="Vector_3" d="M6.08182 28.6333C6.28881 28.6333 6.4566 28.4646 6.4566 28.2566C6.4566 28.0485 6.28881 27.8799 6.08182 27.8799C5.87483 27.8799 5.70703 28.0485 5.70703 28.2566C5.70703 28.4646 5.87483 28.6333 6.08182 28.6333Z" fill="#5B8BB3"/>
<path id="Vector_4" d="M6.08176 29.1453C5.59423 29.1453 5.19727 28.7466 5.19727 28.2562C5.19727 27.7659 5.59391 27.3672 6.08176 27.3672C6.56961 27.3672 6.96626 27.7659 6.96626 28.2562C6.96626 28.7466 6.56961 29.1453 6.08176 29.1453ZM6.08176 27.4931C5.66294 27.4931 5.32219 27.8356 5.32219 28.2565C5.32219 28.6775 5.66294 29.02 6.08176 29.02C6.50058 29.02 6.84133 28.6775 6.84133 28.2565C6.84133 27.8356 6.50058 27.4931 6.08176 27.4931Z" fill="#5B8BB3"/>
</g>
<g id="Group_2">
<path id="Vector_5" d="M56.0429 7.20215H55.918V22.8802H56.0429V7.20215Z" fill="#F50606"/>
<path id="Vector_6" d="M55.184 6.33984H42.1758V6.46541H55.184V6.33984Z" fill="#F50606"/>
<path id="Vector_7" d="M55.9804 6.77979C56.1874 6.77979 56.3552 6.61113 56.3552 6.40308C56.3552 6.19503 56.1874 6.02637 55.9804 6.02637C55.7734 6.02637 55.6056 6.19503 55.6056 6.40308C55.6056 6.61113 55.7734 6.77979 55.9804 6.77979Z" fill="#F50606"/>
<path id="Vector_8" d="M55.9804 7.29175C55.4929 7.29175 55.0959 6.89306 55.0959 6.40271C55.0959 5.91236 55.4926 5.51367 55.9804 5.51367C56.4683 5.51367 56.8649 5.91236 56.8649 6.40271C56.8649 6.89306 56.4683 7.29175 55.9804 7.29175ZM55.9804 5.63956C55.5616 5.63956 55.2209 5.98205 55.2209 6.40302C55.2209 6.824 55.5616 7.16649 55.9804 7.16649C56.3993 7.16649 56.74 6.824 56.74 6.40302C56.74 5.98205 56.3993 5.63956 55.9804 5.63956Z" fill="#F50606"/>
</g>
<g id="Group_3">
<path id="Vector_9" d="M27.8692 29.0557H27.7443V48.8248H27.8692V29.0557Z" fill="#5B8BB3"/>
<path id="Vector_10" d="M27.01 28.1934H20.7988V28.3189H27.01V28.1934Z" fill="#5B8BB3"/>
<path id="Vector_11" d="M27.8064 28.6323C28.0134 28.6323 28.1812 28.4637 28.1812 28.2556C28.1812 28.0476 28.0134 27.8789 27.8064 27.8789C27.5994 27.8789 27.4316 28.0476 27.4316 28.2556C27.4316 28.4637 27.5994 28.6323 27.8064 28.6323Z" fill="#5B8BB3"/>
<path id="Vector_12" d="M27.8064 29.1453C28.2939 29.1453 28.6909 28.7466 28.6909 28.2562C28.6909 27.7659 28.2942 27.3672 27.8064 27.3672C27.3185 27.3672 26.9219 27.7659 26.9219 28.2562C26.9219 28.7466 27.3185 29.1453 27.8064 29.1453ZM27.8064 27.4931C28.2252 27.4931 28.5659 27.8356 28.5659 28.2565C28.5659 28.6775 28.2252 29.02 27.8064 29.02C27.3875 29.02 27.0468 28.6775 27.0468 28.2565C27.0468 27.8356 27.3875 27.4931 27.8064 27.4931Z" fill="#5B8BB3"/>
</g>
<g id="Group_4">
<path id="Vector_13" d="M16.7751 7.20215H16.6501V22.8802H16.7751V7.20215Z" fill="#F50606"/>
<path id="Vector_14" d="M30.518 6.33984H17.5098V6.46541H30.518V6.33984Z" fill="#F50606"/>
<path id="Vector_15" d="M16.7127 6.77979C16.9197 6.77979 17.0875 6.61113 17.0875 6.40308C17.0875 6.19503 16.9197 6.02637 16.7127 6.02637C16.5057 6.02637 16.3379 6.19503 16.3379 6.40308C16.3379 6.61113 16.5057 6.77979 16.7127 6.77979Z" fill="#F50606"/>
<path id="Vector_16" d="M16.7126 7.29175C16.2251 7.29175 15.8281 6.89306 15.8281 6.40271C15.8281 5.91236 16.2248 5.51367 16.7126 5.51367C17.2005 5.51367 17.5971 5.91236 17.5971 6.40271C17.5971 6.89306 17.2005 7.29175 16.7126 7.29175ZM16.7126 5.63956C16.2938 5.63956 15.9531 5.98205 15.9531 6.40302C15.9531 6.824 16.2938 7.16649 16.7126 7.16649C17.1314 7.16649 17.4722 6.824 17.4722 6.40302C17.4722 5.98205 17.1314 5.63956 16.7126 5.63956Z" fill="#F50606"/>
</g>
<g id="Group_5">
<path id="Vector_17" d="M16.6495 30.3294C20.1192 30.3294 22.9319 27.5023 22.9319 24.0148C22.9319 20.5273 20.1192 17.7002 16.6495 17.7002C13.1799 17.7002 10.3672 20.5273 10.3672 24.0148C10.3672 27.5023 13.1799 30.3294 16.6495 30.3294Z" fill="url(#paint0_radial_29_794)"/>
<path id="Vector_18" d="M16.6496 28.2442C18.9735 28.2442 20.8575 26.3506 20.8575 24.0147C20.8575 21.6788 18.9735 19.7852 16.6496 19.7852C14.3256 19.7852 12.4417 21.6788 12.4417 24.0147C12.4417 26.3506 14.3256 28.2442 16.6496 28.2442Z" fill="url(#paint1_linear_29_794)"/>
<path id="Vector_19" d="M16.6495 27.7458C18.6997 27.7458 20.3618 26.0753 20.3618 24.0145C20.3618 21.9538 18.6997 20.2832 16.6495 20.2832C14.5993 20.2832 12.9373 21.9538 12.9373 24.0145C12.9373 26.0753 14.5993 27.7458 16.6495 27.7458Z" fill="url(#paint2_linear_29_794)"/>
<path id="Vector_20" d="M18.2024 25.0941L17.7745 24.9755L17.3544 24.8571L17.2451 24.7316V24.4603L17.6702 24.0281C17.6771 24.0211 17.6808 24.0117 17.6808 24.002V23.6036C17.802 23.5754 17.9647 23.15 17.8635 23.0034C17.8276 22.9513 17.792 22.9284 17.7604 22.9215C17.7661 22.9202 17.7695 22.9202 17.7695 22.9202C17.8039 22.8207 17.8273 22.729 17.8417 22.6443C17.8417 22.6443 17.9513 22.1272 17.6689 21.8946C17.6696 21.889 17.6699 21.8858 17.6699 21.8858C17.6699 21.8858 17.53 21.4121 16.6614 21.4121C15.7928 21.4121 15.6529 21.8858 15.6529 21.8858C15.3568 22.114 15.4693 22.6443 15.4693 22.6443C15.4839 22.729 15.507 22.8204 15.5414 22.9202C15.5414 22.9202 15.5473 22.9202 15.5564 22.923C15.5264 22.9318 15.493 22.9547 15.4596 23.0034C15.3584 23.15 15.5211 23.5754 15.6423 23.6036V24.002C15.6423 24.0117 15.646 24.0211 15.6529 24.0281L16.0927 24.4754V24.7513L15.9602 24.8587L15.5583 24.967L15.0976 25.0948L14.8496 25.9703C15.2063 26.2654 15.636 26.4745 16.1073 26.5665C16.1754 26.5806 16.3566 26.6007 16.3566 26.6007L16.3937 26.6054L16.3944 26.6076C16.41 26.6088 16.4256 26.6101 16.4412 26.6113H16.4434C16.5115 26.6164 16.5802 26.6192 16.6495 26.6192C16.7354 26.6192 16.8207 26.6151 16.9047 26.6076L16.9465 26.6007C16.9465 26.6007 16.9865 26.5988 17.0477 26.5916C17.1096 26.584 17.193 26.5712 17.2795 26.5482C17.2807 26.5482 17.282 26.5473 17.2829 26.547C17.7183 26.4468 18.1159 26.2463 18.4491 25.9703L18.2011 25.0948L18.2024 25.0941ZM15.7166 23.2693H15.7685C15.7785 23.2693 15.7881 23.2652 15.795 23.258C15.8019 23.2508 15.8056 23.241 15.8053 23.231C15.8053 23.2257 15.7919 22.7275 15.9708 22.5338C16.0633 22.5947 16.186 22.6323 16.3363 22.6465C16.4437 22.6565 16.5546 22.6615 16.6658 22.6615C16.7769 22.6615 16.8916 22.6562 16.9965 22.6458C17.1386 22.6317 17.2554 22.5956 17.3451 22.5391C17.5193 22.7362 17.5062 23.2263 17.5059 23.2313C17.5059 23.2414 17.5093 23.2511 17.5162 23.2583C17.5231 23.2655 17.5328 23.2696 17.5428 23.2696H17.6065V23.9866L16.9731 24.6305H16.3491L15.7157 23.9866V23.2696L15.7166 23.2693ZM16.5458 25.5101L16.3575 26.4337L16.3334 26.4892L16.0402 25.139L16.4078 25.4514L16.5302 25.2495L16.5886 25.3004L16.5458 25.5101ZM16.1676 24.7909V24.5507L16.3082 24.6939C16.315 24.7008 16.3247 24.7049 16.3344 24.7049H16.989C16.999 24.7049 17.0084 24.7008 17.0152 24.6939L17.1708 24.536V24.7717L16.6508 25.0505L16.1673 24.7912L16.1676 24.7909ZM16.9475 26.4158L16.7604 25.5126L16.7154 25.2954L16.7632 25.2539L16.8819 25.4699L17.2676 25.1237L16.9753 26.4635L16.9478 26.4161L16.9475 26.4158Z" fill="#555C5E"/>
</g>
<g id="Group_6">
<path id="Vector_21" d="M36.2589 12.7171C39.7286 12.7171 42.5413 9.88997 42.5413 6.4025C42.5413 2.91504 39.7286 0.0878906 36.2589 0.0878906C32.7893 0.0878906 29.9766 2.91504 29.9766 6.4025C29.9766 9.88997 32.7893 12.7171 36.2589 12.7171Z" fill="url(#paint3_radial_29_794)"/>
<path id="Vector_22" d="M36.2589 10.6319C38.5829 10.6319 40.4669 8.73827 40.4669 6.40237C40.4669 4.06647 38.5829 2.17285 36.2589 2.17285C33.935 2.17285 32.051 4.06647 32.051 6.40237C32.051 8.73827 33.935 10.6319 36.2589 10.6319Z" fill="url(#paint4_linear_29_794)"/>
<path id="Vector_23" d="M36.2589 10.1335C38.3091 10.1335 39.9711 8.46297 39.9711 6.40222C39.9711 4.34147 38.3091 2.6709 36.2589 2.6709C34.2087 2.6709 32.5466 4.34147 32.5466 6.40222C32.5466 8.46297 34.2087 10.1335 36.2589 10.1335Z" fill="url(#paint5_linear_29_794)"/>
<path id="Vector_24" d="M37.8118 7.48086L37.3839 7.3622L36.9638 7.24385L36.8545 7.11828V6.84705L37.2796 6.41477C37.2864 6.40786 37.2902 6.39845 37.2902 6.38871V5.99034C37.4114 5.96209 37.5741 5.53672 37.4729 5.39012C37.437 5.33801 37.4014 5.31509 37.3698 5.30818C37.3754 5.30693 37.3789 5.30693 37.3789 5.30693C37.4132 5.20741 37.4367 5.11575 37.451 5.03099C37.451 5.03099 37.5607 4.51395 37.2783 4.28133C37.2789 4.27568 37.2792 4.27254 37.2792 4.27254C37.2792 4.27254 37.1393 3.79883 36.2708 3.79883C35.4022 3.79883 35.2623 4.27254 35.2623 4.27254C34.9662 4.50077 35.0786 5.03099 35.0786 5.03099C35.0933 5.11575 35.1164 5.2071 35.1508 5.30693C35.1508 5.30693 35.1567 5.30693 35.1658 5.30975C35.1358 5.31823 35.1024 5.34146 35.0689 5.39012C34.9678 5.53672 35.1305 5.96209 35.2517 5.99034V6.38871C35.2517 6.39845 35.2554 6.40786 35.2623 6.41477L35.702 6.86211V7.13806L35.5696 7.24542L35.1676 7.35372L34.707 7.48149L34.459 8.35703C34.8157 8.65212 35.2454 8.86119 35.7167 8.95317C35.7848 8.9673 35.9659 8.98739 35.9659 8.98739L36.0031 8.9921L36.0037 8.9943C36.0193 8.99555 36.035 8.99681 36.0506 8.99806H36.0528C36.1208 9.00309 36.1896 9.00591 36.2589 9.00591C36.3448 9.00591 36.43 9.00183 36.5141 8.9943L36.5559 8.98739C36.5559 8.98739 36.5959 8.98551 36.6571 8.97829C36.7189 8.97075 36.8023 8.95788 36.8888 8.93497C36.8901 8.93497 36.8913 8.93402 36.8923 8.93371C37.3277 8.83357 37.7252 8.63297 38.0585 8.35703L37.8105 7.48149L37.8118 7.48086ZM35.326 5.65601H35.3778C35.3878 5.65601 35.3975 5.65193 35.4044 5.64471C35.4113 5.63749 35.415 5.62776 35.4147 5.61771C35.4147 5.61238 35.4013 5.11418 35.5802 4.92048C35.6727 4.98139 35.7954 5.01906 35.9456 5.03318C36.0531 5.04323 36.1639 5.04825 36.2751 5.04825C36.3863 5.04825 36.5009 5.04292 36.6059 5.03256C36.748 5.01843 36.8648 4.98233 36.9544 4.92582C37.1287 5.12297 37.1156 5.613 37.1153 5.61803C37.1153 5.62807 37.1187 5.6378 37.1256 5.64502C37.1325 5.65224 37.1421 5.65633 37.1521 5.65633H37.2158V6.37333L36.5825 7.01719H35.9584L35.3251 6.37333V5.65633L35.326 5.65601ZM36.1552 7.89681L35.9669 8.82038L35.9428 8.87595L35.6496 7.52575L36.0172 7.83811L36.1396 7.63626L36.198 7.68711L36.1552 7.89681ZM35.777 7.17761V6.93746L35.9175 7.08061C35.9244 7.08751 35.9341 7.09159 35.9438 7.09159H36.5984C36.6084 7.09159 36.6178 7.08751 36.6246 7.08061L36.7802 6.9227V7.15846L36.2601 7.43723L35.7767 7.17792L35.777 7.17761ZM36.5568 8.80249L36.3698 7.89932L36.3248 7.68209L36.3726 7.64065L36.4913 7.85663L36.877 7.51037L36.5846 8.85021L36.5572 8.8028L36.5568 8.80249Z" fill="#555C5E"/>
</g>
<g id="Group_7">
<g id="Group_8">
<path id="Vector_25" d="M10.6785 51.7669C13.1319 49.3009 13.1319 45.3027 10.6785 42.8367C8.22504 40.3706 4.24727 40.3706 1.79386 42.8367C-0.659554 45.3027 -0.659553 49.3009 1.79386 51.7669C4.24727 54.2329 8.22504 54.2329 10.6785 51.7669Z" fill="#79C9BC"/>
<path id="Vector_26" d="M6.23526 51.5313C8.55922 51.5313 10.4432 49.6377 10.4432 47.3018C10.4432 44.9659 8.55922 43.0723 6.23526 43.0723C3.91129 43.0723 2.02734 44.9659 2.02734 47.3018C2.02734 49.6377 3.91129 51.5313 6.23526 51.5313Z" fill="url(#paint6_linear_29_794)"/>
<path id="Vector_27" d="M8.86109 49.9402C10.3108 48.483 10.3108 46.1205 8.86109 44.6633C7.41137 43.2061 5.0609 43.2061 3.61117 44.6633C2.16144 46.1205 2.16144 48.483 3.61117 49.9402C5.0609 51.3974 7.41137 51.3974 8.86109 49.9402Z" fill="url(#paint7_linear_29_794)"/>
<path id="Vector_28" d="M7.78832 48.3813L7.36044 48.2626L6.94037 48.1442L6.83106 48.0187V47.7474L7.25613 47.3152C7.263 47.3083 7.26674 47.2988 7.26674 47.2891V46.8907C7.38792 46.8625 7.55064 46.4371 7.44945 46.2905C7.41354 46.2384 7.37793 46.2155 7.34639 46.2086C7.35201 46.2073 7.35544 46.2073 7.35544 46.2073C7.3898 46.1078 7.41322 46.0161 7.42759 45.9314C7.42759 45.9314 7.53721 45.4143 7.25488 45.1817C7.2555 45.1761 7.25581 45.1729 7.25581 45.1729C7.25581 45.1729 7.11589 44.6992 6.24733 44.6992C5.37876 44.6992 5.23884 45.1729 5.23884 45.1729C4.94276 45.4012 5.05519 45.9314 5.05519 45.9314C5.06987 46.0161 5.09298 46.1075 5.12734 46.2073C5.12734 46.2073 5.13327 46.2073 5.14233 46.2101C5.11235 46.2186 5.07893 46.2418 5.04551 46.2905C4.94432 46.4371 5.10704 46.8625 5.22822 46.8907V47.2891C5.22822 47.2988 5.23197 47.3083 5.23884 47.3152L5.67859 47.7625V48.0384L5.54616 48.1458L5.1442 48.2541L4.68353 48.3819L4.43555 49.2574C4.79222 49.5528 5.22197 49.7616 5.69327 49.8536C5.76135 49.8677 5.9425 49.8878 5.9425 49.8878L5.97967 49.8925L5.98029 49.8947C5.99591 49.8959 6.01152 49.8972 6.02714 49.8985H6.02933C6.09741 49.9035 6.16612 49.9063 6.23546 49.9063C6.32135 49.9063 6.40661 49.9022 6.49062 49.8947L6.53248 49.8878C6.53248 49.8878 6.57245 49.8859 6.63367 49.8787C6.69551 49.8711 6.7789 49.8583 6.86541 49.8354C6.86666 49.8354 6.86791 49.8344 6.86885 49.8341C7.30422 49.734 7.70181 49.5334 8.03506 49.2574L7.78707 48.3819L7.78832 48.3813ZM5.30255 46.5564H5.3544C5.36439 46.5564 5.37407 46.5523 5.38094 46.5451C5.38782 46.5379 5.39156 46.5281 5.39125 46.5181C5.39125 46.5128 5.37782 46.0146 5.55678 45.8209C5.64923 45.8818 5.77197 45.9194 5.9222 45.9336C6.02964 45.9436 6.14051 45.9486 6.2517 45.9486C6.36288 45.9486 6.47751 45.9433 6.58245 45.9329C6.72455 45.9188 6.84136 45.8827 6.931 45.8262C7.10527 46.0234 7.09216 46.5134 7.09184 46.5184C7.09184 46.5285 7.09528 46.5382 7.10215 46.5454C7.10902 46.5526 7.1187 46.5567 7.1287 46.5567H7.19241V47.2737L6.55902 47.9176H5.935L5.30162 47.2737V46.5567L5.30255 46.5564ZM6.13177 48.7972L5.94344 49.7208L5.91939 49.7763L5.62612 48.4261L5.99372 48.7385L6.11615 48.5366L6.17455 48.5875L6.13177 48.7972ZM5.75354 48.078V47.8378L5.89409 47.981C5.90096 47.9879 5.91064 47.992 5.92032 47.992H6.57495C6.58495 47.992 6.59432 47.9879 6.60119 47.981L6.75672 47.8231V48.0588L6.23671 48.3376L5.75323 48.0783L5.75354 48.078ZM6.53341 49.7029L6.34633 48.7997L6.30136 48.5825L6.34914 48.541L6.46782 48.757L6.85354 48.4108L6.56121 49.7506L6.53372 49.7032L6.53341 49.7029Z" fill="#555C5E"/>
</g>
</g>
<g id="Group_9">
<g id="Group_10">
<path id="Vector_29" d="M32.4363 52.2425C34.8897 49.7764 34.8897 45.7782 32.4363 43.3122C29.9829 40.8462 26.0051 40.8462 23.5517 43.3122C21.0983 45.7782 21.0983 49.7764 23.5517 52.2425C26.0051 54.7085 29.9829 54.7085 32.4363 52.2425Z" fill="url(#paint8_radial_29_794)"/>
<path id="Vector_30" d="M27.9931 52.0059C30.317 52.0059 32.201 50.1123 32.201 47.7764C32.201 45.4405 30.317 43.5469 27.9931 43.5469C25.6691 43.5469 23.7852 45.4405 23.7852 47.7764C23.7852 50.1123 25.6691 52.0059 27.9931 52.0059Z" fill="url(#paint9_linear_29_794)"/>
<path id="Vector_31" d="M30.6189 50.4158C32.0686 48.9586 32.0686 46.5961 30.6189 45.1389C29.1692 43.6817 26.8187 43.6817 25.369 45.1389C23.9193 46.5961 23.9193 48.9586 25.369 50.4158C26.8187 51.873 29.1692 51.873 30.6189 50.4158Z" fill="url(#paint10_linear_29_794)"/>
<path id="Vector_32" d="M29.546 48.8559L29.1181 48.7372L28.6981 48.6189L28.5887 48.4933V48.222L29.0138 47.7898C29.0207 47.7829 29.0244 47.7734 29.0244 47.7637V47.3653C29.1456 47.3371 29.3083 46.9117 29.2071 46.7651C29.1712 46.713 29.1356 46.6901 29.1041 46.6832C29.1097 46.6819 29.1131 46.6819 29.1131 46.6819C29.1475 46.5824 29.1709 46.4907 29.1853 46.406C29.1853 46.406 29.2949 45.889 29.0126 45.6563C29.0132 45.6507 29.0135 45.6475 29.0135 45.6475C29.0135 45.6475 28.8736 45.1738 28.005 45.1738C27.1364 45.1738 26.9965 45.6475 26.9965 45.6475C26.7004 45.8758 26.8129 46.406 26.8129 46.406C26.8276 46.4907 26.8507 46.5821 26.885 46.6819C26.885 46.6819 26.891 46.6819 26.9 46.6848C26.87 46.6932 26.8366 46.7165 26.8032 46.7651C26.702 46.9117 26.8647 47.3371 26.9859 47.3653V47.7637C26.9859 47.7734 26.9897 47.7829 26.9965 47.7898L27.4363 48.2371V48.5131L27.3039 48.6204L26.9019 48.7287L26.4412 48.8565L26.1932 49.732C26.5499 50.0274 26.9797 50.2362 27.451 50.3282C27.519 50.3423 27.7002 50.3624 27.7002 50.3624L27.7374 50.3671L27.738 50.3693C27.7536 50.3706 27.7692 50.3718 27.7848 50.3731H27.787C27.8551 50.3781 27.9238 50.3809 27.9931 50.3809C28.079 50.3809 28.1643 50.3768 28.2483 50.3693L28.2902 50.3624C28.2902 50.3624 28.3301 50.3605 28.3914 50.3533C28.4532 50.3458 28.5366 50.3329 28.6231 50.31C28.6243 50.31 28.6256 50.309 28.6265 50.3087C29.0619 50.2086 29.4595 50.008 29.7927 49.732L29.5448 48.8565L29.546 48.8559ZM27.0602 47.031H27.1121C27.1221 47.031 27.1318 47.0269 27.1386 47.0197C27.1455 47.0125 27.1493 47.0028 27.1489 46.9927C27.1489 46.9874 27.1355 46.4892 27.3145 46.2955C27.4069 46.3564 27.5297 46.3941 27.6799 46.4082C27.7873 46.4182 27.8982 46.4233 28.0094 46.4233C28.1206 46.4233 28.2352 46.4179 28.3401 46.4076C28.4822 46.3934 28.5991 46.3573 28.6887 46.3008C28.863 46.498 28.8498 46.988 28.8495 46.993C28.8495 47.0031 28.853 47.0128 28.8598 47.02C28.8667 47.0272 28.8764 47.0313 28.8864 47.0313H28.9501V47.7483L28.3167 48.3922H27.6927L27.0593 47.7483V47.0313L27.0602 47.031ZM27.8895 49.2718L27.7011 50.1954L27.6771 50.251L27.3838 48.9008L27.7514 49.2131L27.8738 49.0113L27.9322 49.0621L27.8895 49.2718ZM27.5112 48.5526V48.3125L27.6518 48.4556C27.6587 48.4625 27.6683 48.4666 27.678 48.4666H28.333C28.3429 48.4666 28.3523 48.4625 28.3592 48.4556L28.5147 48.2977V48.5335L27.9947 48.8122L27.5112 48.5529V48.5526ZM28.2911 50.1775L28.104 49.2743L28.059 49.0571L28.1068 49.0157L28.2255 49.2316L28.6112 48.8854L28.3189 50.2252L28.2914 50.1778L28.2911 50.1775Z" fill="#555C5E"/>
</g>
</g>
<g id="Group_11">
<path id="Vector_33" d="M45.2419 29.0557H45.1169V48.8248H45.2419V29.0557Z" fill="#5B8BB3"/>
<path id="Vector_34" d="M52.1877 28.1934H45.9766V28.3189H52.1877V28.1934Z" fill="#5B8BB3"/>
<path id="Vector_35" d="M45.1795 28.6333C45.3865 28.6333 45.5543 28.4646 45.5543 28.2566C45.5543 28.0485 45.3865 27.8799 45.1795 27.8799C44.9725 27.8799 44.8047 28.0485 44.8047 28.2566C44.8047 28.4646 44.9725 28.6333 45.1795 28.6333Z" fill="#5B8BB3"/>
<path id="Vector_36" d="M45.1794 29.1453C44.6919 29.1453 44.2949 28.7466 44.2949 28.2562C44.2949 27.7659 44.6916 27.3672 45.1794 27.3672C45.6673 27.3672 46.0639 27.7659 46.0639 28.2562C46.0639 28.7466 45.6673 29.1453 45.1794 29.1453ZM45.1794 27.4931C44.7606 27.4931 44.4199 27.8356 44.4199 28.2565C44.4199 28.6775 44.7606 29.02 45.1794 29.02C45.5982 29.02 45.939 28.6775 45.939 28.2565C45.939 27.8356 45.5982 27.4931 45.1794 27.4931Z" fill="#5B8BB3"/>
</g>
<g id="Group_12">
<path id="Vector_37" d="M66.9665 29.0557H66.8416V48.8248H66.9665V29.0557Z" fill="#5B8BB3"/>
<path id="Vector_38" d="M66.1076 28.1934H59.8965V28.3189H66.1076V28.1934Z" fill="#5B8BB3"/>
<path id="Vector_39" d="M66.9041 28.6333C67.1111 28.6333 67.2789 28.4646 67.2789 28.2566C67.2789 28.0485 67.1111 27.8799 66.9041 27.8799C66.6971 27.8799 66.5293 28.0485 66.5293 28.2566C66.5293 28.4646 66.6971 28.6333 66.9041 28.6333Z" fill="#5B8BB3"/>
<path id="Vector_40" d="M66.904 29.1453C67.3916 29.1453 67.7885 28.7466 67.7885 28.2562C67.7885 27.7659 67.3919 27.3672 66.904 27.3672C66.4162 27.3672 66.0195 27.7659 66.0195 28.2562C66.0195 28.7466 66.4162 29.1453 66.904 29.1453ZM66.904 27.4931C67.3228 27.4931 67.6636 27.8356 67.6636 28.2565C67.6636 28.6775 67.3228 29.02 66.904 29.02C66.4852 29.02 66.1445 28.6775 66.1445 28.2565C66.1445 27.8356 66.4852 27.4931 66.904 27.4931Z" fill="#5B8BB3"/>
</g>
<g id="Group_13">
<g id="Group_14">
<path id="Vector_41" d="M49.7742 52.7171C52.2276 50.251 52.2276 46.2529 49.7742 43.7868C47.3207 41.3208 43.343 41.3208 40.8896 43.7868C38.4361 46.2529 38.4361 50.251 40.8896 52.7171C43.343 55.1831 47.3207 55.1831 49.7742 52.7171Z" fill="#79C9BC"/>
<path id="Vector_42" d="M45.3329 52.4805C47.6569 52.4805 49.5408 50.5869 49.5408 48.251C49.5408 45.9151 47.6569 44.0215 45.3329 44.0215C43.0089 44.0215 41.125 45.9151 41.125 48.251C41.125 50.5869 43.0089 52.4805 45.3329 52.4805Z" fill="url(#paint11_linear_29_794)"/>
<path id="Vector_43" d="M47.9568 50.8904C49.4065 49.4332 49.4065 47.0707 47.9568 45.6135C46.5071 44.1563 44.1566 44.1563 42.7069 45.6135C41.2571 47.0707 41.2571 49.4332 42.7069 50.8904C44.1566 52.3476 46.5071 52.3476 47.9568 50.8904Z" fill="url(#paint12_linear_29_794)"/>
<path id="Vector_44" d="M46.8841 49.3305L46.4563 49.2118L46.0362 49.0935L45.9269 48.9679V48.6967L46.352 48.2644C46.3588 48.2575 46.3626 48.2481 46.3626 48.2383V47.84C46.4838 47.8117 46.6465 47.3863 46.5453 47.2397C46.5094 47.1876 46.4738 47.1647 46.4422 47.1578C46.4478 47.1565 46.4513 47.1565 46.4513 47.1565C46.4856 47.057 46.509 46.9654 46.5234 46.8806C46.5234 46.8806 46.633 46.3636 46.3507 46.1309C46.3513 46.1253 46.3516 46.1222 46.3516 46.1222C46.3516 46.1222 46.2117 45.6484 45.3432 45.6484C44.4746 45.6484 44.3347 46.1222 44.3347 46.1222C44.0386 46.3504 44.151 46.8806 44.151 46.8806C44.1657 46.9654 44.1888 47.0567 44.2232 47.1565C44.2232 47.1565 44.2291 47.1565 44.2382 47.1594C44.2082 47.1678 44.1748 47.1911 44.1413 47.2397C44.0401 47.3863 44.2029 47.8117 44.324 47.84V48.2383C44.324 48.2481 44.3278 48.2575 44.3347 48.2644L44.7744 48.7117V48.9877L44.642 49.095L44.24 49.2033L43.7794 49.3311L43.5314 50.2066C43.888 50.502 44.3178 50.7108 44.7891 50.8028C44.8572 50.8169 45.0383 50.837 45.0383 50.837L45.0755 50.8417L45.0761 50.8439C45.0917 50.8452 45.1074 50.8464 45.123 50.8477H45.1252C45.1932 50.8527 45.2619 50.8555 45.3313 50.8555C45.4172 50.8555 45.5024 50.8514 45.5865 50.8439L45.6283 50.837C45.6283 50.837 45.6683 50.8351 45.7295 50.8279C45.7913 50.8204 45.8747 50.8075 45.9612 50.7846C45.9625 50.7846 45.9637 50.7836 45.9647 50.7833C46.4 50.6832 46.7976 50.4826 47.1309 50.2066L46.8829 49.3311L46.8841 49.3305ZM44.3984 47.5056H44.4502C44.4602 47.5056 44.4699 47.5015 44.4768 47.4943C44.4836 47.4871 44.4874 47.4774 44.4871 47.4673C44.4871 47.462 44.4736 46.9638 44.6526 46.7701C44.7451 46.831 44.8678 46.8687 45.018 46.8828C45.1255 46.8928 45.2363 46.8979 45.3475 46.8979C45.4587 46.8979 45.5733 46.8925 45.6783 46.8822C45.8204 46.868 45.9372 46.8319 46.0268 46.7754C46.2011 46.9726 46.188 47.4626 46.1877 47.4676C46.1877 47.4777 46.1911 47.4874 46.198 47.4946C46.2048 47.5019 46.2145 47.5059 46.2245 47.5059H46.2882V48.2229L45.6549 48.8668H45.0308L44.3974 48.2229V47.5059L44.3984 47.5056ZM45.2276 49.7464L45.0393 50.67L45.0152 50.7256L44.7219 49.3754L45.0895 49.6877L45.212 49.4859L45.2704 49.5367L45.2276 49.7464ZM44.8494 49.0272V48.7871L44.9899 48.9302C44.9968 48.9371 45.0065 48.9412 45.0162 48.9412H45.6711C45.6811 48.9412 45.6905 48.9371 45.6973 48.9302L45.8529 48.7723V49.0081L45.3328 49.2868L44.8494 49.0275V49.0272ZM45.6292 50.6521L45.4422 49.7489L45.3972 49.5317L45.445 49.4903L45.5637 49.7062L45.9494 49.36L45.657 50.6998L45.6296 50.6524L45.6292 50.6521Z" fill="#555C5E"/>
</g>
</g>
<g id="Group_15">
<g id="Group_16">
<path id="Vector_45" d="M71.487 52.8411C73.9405 50.3751 73.9405 46.3769 71.487 43.9109C69.0336 41.4449 65.0559 41.4449 62.6025 43.9109C60.149 46.3769 60.149 50.3751 62.6025 52.8411C65.0559 55.3071 69.0336 55.3071 71.487 52.8411Z" fill="url(#paint13_radial_29_794)"/>
<path id="Vector_46" d="M67.0438 52.6055C69.3678 52.6055 71.2518 50.7119 71.2518 48.376C71.2518 46.0401 69.3678 44.1465 67.0438 44.1465C64.7199 44.1465 62.8359 46.0401 62.8359 48.376C62.8359 50.7119 64.7199 52.6055 67.0438 52.6055Z" fill="url(#paint14_linear_29_794)"/>
<path id="Vector_47" d="M69.6697 51.0144C71.1194 49.5572 71.1194 47.1947 69.6697 45.7375C68.22 44.2804 65.8695 44.2804 64.4198 45.7375C62.97 47.1947 62.97 49.5572 64.4198 51.0144C65.8695 52.4716 68.22 52.4716 69.6697 51.0144Z" fill="url(#paint15_linear_29_794)"/>
<path id="Vector_48" d="M68.5969 49.4545L68.169 49.3358L67.749 49.2175L67.6396 49.0919V48.8207L68.0647 48.3884C68.0716 48.3815 68.0753 48.3721 68.0753 48.3623V47.964C68.1965 47.9357 68.3592 47.5104 68.258 47.3637C68.2221 47.3116 68.1865 47.2887 68.155 47.2818C68.1606 47.2806 68.164 47.2806 68.164 47.2806C68.1984 47.181 68.2218 47.0894 68.2362 47.0046C68.2362 47.0046 68.3458 46.4876 68.0635 46.255C68.0641 46.2493 68.0644 46.2462 68.0644 46.2462C68.0644 46.2462 67.9245 45.7725 67.0559 45.7725C66.1874 45.7725 66.0474 46.2462 66.0474 46.2462C65.7514 46.4744 65.8638 47.0046 65.8638 47.0046C65.8785 47.0894 65.9016 47.1807 65.9359 47.2806C65.9359 47.2806 65.9419 47.2806 65.9509 47.2834C65.9209 47.2919 65.8875 47.3151 65.8541 47.3637C65.7529 47.5104 65.9156 47.9357 66.0368 47.964V48.3623C66.0368 48.3721 66.0406 48.3815 66.0474 48.3884L66.4872 48.8357V49.1117L66.3548 49.2191L65.9528 49.3274L65.4921 49.4551L65.2441 50.3307C65.6008 50.6261 66.0306 50.8348 66.5019 50.9268C66.5699 50.9409 66.7511 50.961 66.7511 50.961L66.7883 50.9657L66.7889 50.9679C66.8045 50.9692 66.8201 50.9704 66.8357 50.9717H66.8379C66.906 50.9767 66.9747 50.9795 67.0441 50.9795C67.1299 50.9795 67.2152 50.9755 67.2992 50.9679L67.3411 50.961C67.3411 50.961 67.3811 50.9591 67.4423 50.9519C67.5041 50.9444 67.5875 50.9315 67.674 50.9086C67.6753 50.9086 67.6765 50.9077 67.6774 50.9073C68.1128 50.8072 68.5104 50.6066 68.8436 50.3307L68.5957 49.4551L68.5969 49.4545ZM66.1111 47.6296H66.163C66.173 47.6296 66.1827 47.6256 66.1895 47.6183C66.1964 47.6111 66.2002 47.6014 66.1998 47.5913C66.1998 47.586 66.1864 47.0878 66.3654 46.8941C66.4578 46.955 66.5806 46.9927 66.7308 47.0068C66.8382 47.0169 66.9491 47.0219 67.0603 47.0219C67.1715 47.0219 67.2861 47.0165 67.391 47.0062C67.5331 46.9921 67.65 46.956 67.7396 46.8995C67.9139 47.0966 67.9008 47.5866 67.9004 47.5917C67.9004 47.6017 67.9039 47.6114 67.9107 47.6187C67.9176 47.6259 67.9273 47.63 67.9373 47.63H68.001V48.347L67.3676 48.9908H66.7436L66.1102 48.347V47.63L66.1111 47.6296ZM66.9404 49.8704L66.752 50.794L66.728 50.8496L66.4347 49.4994L66.8023 49.8117L66.9247 49.6099L66.9831 49.6607L66.9404 49.8704ZM66.5621 49.1512V48.9111L66.7027 49.0542C66.7096 49.0611 66.7192 49.0652 66.7289 49.0652H67.3839C67.3939 49.0652 67.4032 49.0611 67.4101 49.0542L67.5656 48.8963V49.1321L67.0456 49.4109L66.5621 49.1516V49.1512ZM67.342 50.7761L67.1549 49.873L67.11 49.6557L67.1577 49.6143L67.2764 49.8303L67.6621 49.484L67.3698 50.8238L67.3423 50.7764L67.342 50.7761Z" fill="#555C5E"/>
</g>
</g>
<g id="Group_17">
<path id="Vector_49" d="M56.0792 31.1077C59.5489 31.1077 62.3616 28.2806 62.3616 24.7931C62.3616 21.3057 59.5489 18.4785 56.0792 18.4785C52.6096 18.4785 49.7969 21.3057 49.7969 24.7931C49.7969 28.2806 52.6096 31.1077 56.0792 31.1077Z" fill="url(#paint16_radial_29_794)"/>
<path id="Vector_50" d="M56.0793 29.0225C58.4032 29.0225 60.2872 27.1289 60.2872 24.793C60.2872 22.4571 58.4032 20.5635 56.0793 20.5635C53.7553 20.5635 51.8713 22.4571 51.8713 24.793C51.8713 27.1289 53.7553 29.0225 56.0793 29.0225Z" fill="url(#paint17_linear_29_794)"/>
<path id="Vector_51" d="M56.0792 28.5242C58.1294 28.5242 59.7915 26.8536 59.7915 24.7928C59.7915 22.7321 58.1294 21.0615 56.0792 21.0615C54.029 21.0615 52.3669 22.7321 52.3669 24.7928C52.3669 26.8536 54.029 28.5242 56.0792 28.5242Z" fill="url(#paint18_linear_29_794)"/>
<path id="Vector_52" d="M57.6321 25.8715L57.2042 25.7528L56.7841 25.6345L56.6748 25.5089V25.2377L57.0999 24.8054C57.1067 24.7985 57.1105 24.7891 57.1105 24.7793V24.381C57.2317 24.3527 57.3944 23.9273 57.2932 23.7807C57.2573 23.7286 57.2217 23.7057 57.1901 23.6988C57.1958 23.6976 57.1992 23.6976 57.1992 23.6976C57.2335 23.598 57.257 23.5064 57.2713 23.4216C57.2713 23.4216 57.381 22.9046 57.0986 22.672C57.0993 22.6663 57.0996 22.6632 57.0996 22.6632C57.0996 22.6632 56.9596 22.1895 56.0911 22.1895C55.2225 22.1895 55.0826 22.6632 55.0826 22.6632C54.7865 22.8914 54.8989 23.4216 54.8989 23.4216C54.9136 23.5064 54.9367 23.5977 54.9711 23.6976C54.9711 23.6976 54.977 23.6976 54.9861 23.7004C54.9561 23.7092 54.9227 23.7321 54.8893 23.7807C54.7881 23.9273 54.9508 24.3527 55.072 24.381V24.7793C55.072 24.7891 55.0757 24.7985 55.0826 24.8054L55.5223 25.2527V25.5287L55.3899 25.636L54.988 25.7443L54.5273 25.8721L54.2793 26.7477C54.636 27.0427 55.0657 27.2518 55.537 27.3438C55.6051 27.3579 55.7862 27.378 55.7862 27.378L55.8234 27.3827L55.824 27.3849C55.8397 27.3862 55.8553 27.3874 55.8709 27.3887H55.8731C55.9412 27.3937 56.0099 27.3965 56.0792 27.3965C56.1651 27.3965 56.2504 27.3925 56.3344 27.3849L56.3762 27.378C56.3762 27.378 56.4162 27.3761 56.4774 27.3689C56.5393 27.3614 56.6226 27.3485 56.7092 27.3256C56.7104 27.3256 56.7117 27.3246 56.7126 27.3243C57.148 27.2242 57.5456 27.0236 57.8788 26.7477L57.6308 25.8721L57.6321 25.8715ZM55.1463 24.0466H55.1981C55.2081 24.0466 55.2178 24.0426 55.2247 24.0353C55.2316 24.0281 55.2353 24.0184 55.235 24.0083C55.235 24.003 55.2216 23.5048 55.4005 23.3111C55.493 23.372 55.6157 23.4097 55.7659 23.4238C55.8734 23.4339 55.9843 23.4389 56.0954 23.4389C56.2066 23.4389 56.3213 23.4335 56.4262 23.4232C56.5683 23.4091 56.6851 23.373 56.7747 23.3164C56.949 23.5136 56.9359 24.0036 56.9356 24.0087C56.9356 24.0187 56.939 24.0284 56.9459 24.0356C56.9528 24.0429 56.9625 24.047 56.9724 24.047H57.0362V24.764L56.4028 25.4078H55.7788L55.1454 24.764V24.047L55.1463 24.0466ZM55.9755 26.2874L55.7872 27.211L55.7631 27.2666L55.4699 25.9164L55.8375 26.2287L55.9599 26.0269L56.0183 26.0777L55.9755 26.2874ZM55.5973 25.5682V25.3281L55.7378 25.4712C55.7447 25.4781 55.7544 25.4822 55.7641 25.4822H56.419C56.429 25.4822 56.4384 25.4781 56.4452 25.4712L56.6008 25.3133V25.5491L56.0808 25.8279L55.5973 25.5685V25.5682ZM56.3772 27.1931L56.1901 26.2899L56.1451 26.0727L56.1929 26.0313L56.3116 26.2473L56.6973 25.901L56.405 27.2408L56.3775 27.1934L56.3772 27.1931Z" fill="#555C5E"/>
</g>
</g>
<defs>
<radialGradient id="paint0_radial_29_794" cx="0" cy="0" r="1" gradientUnits="userSpaceOnUse" gradientTransform="translate(16.7991 24.5306) scale(5.98877 6.01952)">
<stop offset="0.51" stop-color="#5B8BB3"/>
<stop offset="0.87" stop-color="#5B8BB2"/>
</radialGradient>
<linearGradient id="paint1_linear_29_794" x1="18.8589" y1="27.6948" x2="14.3365" y2="20.2389" gradientUnits="userSpaceOnUse">
<stop stop-color="#FBFCFC"/>
<stop offset="1" stop-color="#DDDFE3"/>
</linearGradient>
<linearGradient id="paint2_linear_29_794" x1="15.3562" y1="22.4801" x2="24.5405" y2="33.266" gradientUnits="userSpaceOnUse">
<stop stop-color="#FBFCFC"/>
<stop offset="1" stop-color="#DDDFE3"/>
</linearGradient>
<radialGradient id="paint3_radial_29_794" cx="0" cy="0" r="1" gradientUnits="userSpaceOnUse" gradientTransform="translate(36.4085 6.91797) scale(5.98877 6.01952)">
<stop offset="0.51" stop-color="#F50606"/>
<stop offset="0.87" stop-color="#F50606"/>
</radialGradient>
<linearGradient id="paint4_linear_29_794" x1="38.4683" y1="10.0822" x2="33.9458" y2="2.62625" gradientUnits="userSpaceOnUse">
<stop stop-color="#FBFCFC"/>
<stop offset="1" stop-color="#DDDFE3"/>
</linearGradient>
<linearGradient id="paint5_linear_29_794" x1="34.9656" y1="4.86775" x2="44.1498" y2="15.6534" gradientUnits="userSpaceOnUse">
<stop stop-color="#FBFCFC"/>
<stop offset="1" stop-color="#DDDFE3"/>
</linearGradient>
<linearGradient id="paint6_linear_29_794" x1="8.44462" y1="50.9819" x2="3.92215" y2="43.526" gradientUnits="userSpaceOnUse">
<stop stop-color="#FBFCFC"/>
<stop offset="1" stop-color="#DDDFE3"/>
</linearGradient>
<linearGradient id="paint7_linear_29_794" x1="4.94279" y1="45.7674" x2="14.1268" y2="56.5533" gradientUnits="userSpaceOnUse">
<stop stop-color="#FBFCFC"/>
<stop offset="1" stop-color="#DDDFE3"/>
</linearGradient>
<radialGradient id="paint8_radial_29_794" cx="0" cy="0" r="1" gradientUnits="userSpaceOnUse" gradientTransform="translate(28.1436 48.2927) scale(5.98877 6.01952)">
<stop offset="0.51" stop-color="#79C9BC"/>
<stop offset="0.87" stop-color="#79C9BC"/>
</radialGradient>
<linearGradient id="paint9_linear_29_794" x1="30.2024" y1="51.4562" x2="25.68" y2="44.0003" gradientUnits="userSpaceOnUse">
<stop stop-color="#FBFCFC"/>
<stop offset="1" stop-color="#DDDFE3"/>
</linearGradient>
<linearGradient id="paint10_linear_29_794" x1="26.7006" y1="46.2428" x2="35.8849" y2="57.0284" gradientUnits="userSpaceOnUse">
<stop stop-color="#FBFCFC"/>
<stop offset="1" stop-color="#DDDFE3"/>
</linearGradient>
<linearGradient id="paint11_linear_29_794" x1="47.5423" y1="51.9312" x2="43.0198" y2="44.4749" gradientUnits="userSpaceOnUse">
<stop stop-color="#FBFCFC"/>
<stop offset="1" stop-color="#DDDFE3"/>
</linearGradient>
<linearGradient id="paint12_linear_29_794" x1="44.0385" y1="46.7173" x2="53.2228" y2="57.5032" gradientUnits="userSpaceOnUse">
<stop stop-color="#FBFCFC"/>
<stop offset="1" stop-color="#DDDFE3"/>
</linearGradient>
<radialGradient id="paint13_radial_29_794" cx="0" cy="0" r="1" gradientUnits="userSpaceOnUse" gradientTransform="translate(67.1943 48.8917) scale(5.98877 6.01952)">
<stop offset="0.51" stop-color="#79C9BC"/>
<stop offset="0.87" stop-color="#79C9BC"/>
</radialGradient>
<linearGradient id="paint14_linear_29_794" x1="69.2532" y1="52.0558" x2="64.7307" y2="44.5999" gradientUnits="userSpaceOnUse">
<stop stop-color="#FBFCFC"/>
<stop offset="1" stop-color="#DDDFE3"/>
</linearGradient>
<linearGradient id="paint15_linear_29_794" x1="65.7514" y1="46.8417" x2="74.9353" y2="57.6274" gradientUnits="userSpaceOnUse">
<stop stop-color="#FBFCFC"/>
<stop offset="1" stop-color="#DDDFE3"/>
</linearGradient>
<radialGradient id="paint16_radial_29_794" cx="0" cy="0" r="1" gradientUnits="userSpaceOnUse" gradientTransform="translate(56.2288 25.3086) scale(5.98877 6.01952)">
<stop offset="0.51" stop-color="#5B8BB3"/>
<stop offset="0.87" stop-color="#5B8BB3"/>
</radialGradient>
<linearGradient id="paint17_linear_29_794" x1="58.2886" y1="28.4728" x2="53.7661" y2="21.0169" gradientUnits="userSpaceOnUse">
<stop stop-color="#FBFCFC"/>
<stop offset="1" stop-color="#DDDFE3"/>
</linearGradient>
<linearGradient id="paint18_linear_29_794" x1="54.7859" y1="23.2584" x2="63.9702" y2="34.044" gradientUnits="userSpaceOnUse">
<stop stop-color="#FBFCFC"/>
<stop offset="1" stop-color="#DDDFE3"/>
</linearGradient>
<clipPath id="clip0_29_794">
<rect width="76" height="60" fill="white"/>
</clipPath>
</defs>
</svg>
