<svg width="38" height="38" viewBox="0 0 38 38" fill="none" xmlns="http://www.w3.org/2000/svg">
<g id="Vector">
<path id="Vector_2" d="M20.9532 0.00233763C22.3396 -0.00298252 23.7261 0.0109516 25.1121 0.0441356L25.4807 0.0574349C25.9063 0.0726341 26.3261 0.0916331 26.8334 0.114432C28.8549 0.209427 30.2342 0.528611 31.4445 0.997887C32.6984 1.48046 33.7548 2.13403 34.8111 3.19037C35.777 4.13958 36.5245 5.28777 37.0017 6.5551C37.471 7.76534 37.7902 9.14657 37.8852 11.1681C37.908 11.6734 37.9269 12.0952 37.9422 12.5208L37.9535 12.8894C37.9873 14.2748 38.0019 15.6606 37.9972 17.0464L37.9991 18.4637V20.9526C38.0038 22.339 37.9893 23.7254 37.9554 25.1115L37.944 25.48C37.9289 25.9056 37.9099 26.3255 37.8871 26.8328C37.7921 28.8543 37.4691 30.2336 37.0017 31.4438C36.5261 32.7125 35.7783 33.8616 34.8111 34.8105C33.8611 35.7762 32.7123 36.5237 31.4445 37.0011C30.2342 37.4703 28.8549 37.7895 26.8334 37.8845C26.3261 37.9073 25.9063 37.9263 25.4807 37.9415L25.1121 37.9529C23.7261 37.9867 22.3397 38.0012 20.9532 37.9966L19.5359 37.9985H17.0489C15.6625 38.0032 14.2761 37.9886 12.89 37.9548L12.5215 37.9434C12.0704 37.9271 11.6195 37.9081 11.1687 37.8864C9.14723 37.7914 7.7679 37.4684 6.55576 37.0011C5.28792 36.5248 4.13954 35.7772 3.19103 34.8105C2.22407 33.8611 1.47585 32.7121 0.998545 31.4438C0.529269 30.2336 0.210085 28.8543 0.11509 26.8328C0.0939309 26.382 0.0749317 25.931 0.0580933 25.48L0.048594 25.1115C0.0135666 23.7254 -0.00226762 22.339 0.00109625 20.9526V17.0464C-0.00420632 15.6606 0.00972778 14.2748 0.0428942 12.8894L0.0561935 12.5208C0.0713927 12.0952 0.0903917 11.6734 0.113191 11.1681C0.208186 9.14467 0.527369 7.76724 0.996645 6.5551C1.47423 5.28715 2.22391 4.13927 3.19293 3.19228C4.14078 2.22475 5.28845 1.47585 6.55576 0.997887C7.7679 0.528611 9.14533 0.209427 11.1687 0.114432L12.5215 0.0574349L12.89 0.0479356C14.2754 0.0129258 15.6612 -0.00290847 17.047 0.000437867L20.9532 0.00233763ZM19.0001 9.50185C17.7414 9.48405 16.4918 9.71659 15.3238 10.1859C14.1557 10.6553 13.0927 11.3521 12.1963 12.2359C11.2999 13.1197 10.5881 14.1728 10.1023 15.3341C9.61645 16.4954 9.36627 17.7416 9.36627 19.0004C9.36627 20.2592 9.61645 21.5055 10.1023 22.6667C10.5881 23.828 11.2999 24.8811 12.1963 25.7649C13.0927 26.6487 14.1557 27.3455 15.3238 27.8149C16.4918 28.2843 17.7414 28.5168 19.0001 28.499C21.5195 28.499 23.9358 27.4981 25.7173 25.7166C27.4988 23.9351 28.4996 21.5189 28.4996 18.9995C28.4996 16.48 27.4988 14.0638 25.7173 12.2823C23.9358 10.5008 21.5195 9.50185 19.0001 9.50185ZM19.0001 13.3017C19.7572 13.2877 20.5096 13.4248 21.2131 13.7048C21.9167 13.9849 22.5574 14.4024 23.0978 14.9328C23.6382 15.4633 24.0675 16.0961 24.3606 16.7943C24.6537 17.4926 24.8047 18.2422 24.8048 18.9995C24.805 19.7567 24.6542 20.5064 24.3613 21.2047C24.0685 21.903 23.6394 22.536 23.0991 23.0667C22.5589 23.5973 21.9184 24.015 21.2149 24.2953C20.5114 24.5756 19.7592 24.7129 19.002 24.6992C17.4904 24.6992 16.0406 24.0987 14.9717 23.0298C13.9028 21.9609 13.3023 20.5111 13.3023 18.9995C13.3023 17.4878 13.9028 16.0381 14.9717 14.9692C16.0406 13.9003 17.4904 13.2998 19.002 13.2998L19.0001 13.3017ZM28.9746 6.652C28.3617 6.67653 27.782 6.93727 27.357 7.37961C26.9321 7.82194 26.6947 8.41156 26.6947 9.02498C26.6947 9.63839 26.9321 10.228 27.357 10.6703C27.782 11.1127 28.3617 11.3734 28.9746 11.398C29.6045 11.398 30.2085 11.1477 30.6539 10.7024C31.0993 10.257 31.3495 9.65293 31.3495 9.02308C31.3495 8.39322 31.0993 7.78916 30.6539 7.34378C30.2085 6.89841 29.6045 6.6482 28.9746 6.6482V6.652Z" fill="white"/>
</g>
</svg>
