<svg width="294" height="54" viewBox="0 0 294 54" fill="none" xmlns="http://www.w3.org/2000/svg">
<rect y="28.923" width="31" height="31" transform="rotate(-49 0 28.923)" fill="#333333"/>
<path d="M35 26.999L80.8001 26.3294L123.664 25.7026" stroke="url(#paint0_linear_42_960)" stroke-width="4"/>
<rect x="293.674" y="23.4043" width="31" height="31" transform="rotate(131.5 293.674 23.4043)" fill="#333333"/>
<path d="M258.658 25.0234L212.854 25.2934L169.986 25.546" stroke="url(#paint1_linear_42_960)" stroke-width="4"/>
<line x1="172.519" y1="24.3006" x2="148.519" y2="52.3006" stroke="#333333" stroke-width="4"/>
<line x1="121.389" y1="24.5602" x2="150.389" y2="52.5602" stroke="#333333" stroke-width="4"/>
<path d="M165.749 13.0045H169.289C168.794 12.3018 168.273 11.6511 167.727 11.0004L165.749 13.0045ZM164.997 8.24137C164.346 7.69478 163.695 7.17421 162.992 6.67968V10.2195L164.997 8.24137ZM167.756 11.003L175.434 3.32465C176.189 2.56983 176.189 1.32048 175.434 0.565661C175.066 0.202619 174.571 -0.000976562 174.054 -0.000976562C173.538 -0.000976562 173.042 0.202619 172.675 0.565661L164.997 8.24137C165.986 9.1003 166.897 10.0399 167.756 11.003ZM162.998 4.54537C162.998 3.47821 162.113 2.59326 161.045 2.59326C160.004 2.59326 159.171 3.42616 159.119 4.44126C160.473 5.09196 161.774 5.82075 162.998 6.67968V4.54537ZM173.409 14.9566C173.409 13.8895 172.524 13.0045 171.457 13.0045H169.296C170.155 14.2279 170.91 15.5293 171.535 16.8827C172.576 16.8307 173.409 15.9978 173.409 14.9566ZM149.978 35.1285H150.759C151.774 35.1285 152.581 34.2175 152.581 33.0983C152.581 31.6928 152.191 31.4845 151.306 31.1722L149.978 30.7037V35.1285Z" fill="#333333"/>
<path d="M171.558 16.8814C171.532 16.8814 171.506 16.9075 171.454 16.9075H161.042C160.782 16.9075 160.548 16.8554 160.287 16.7513C159.808 16.5455 159.426 16.1635 159.22 15.6841C159.137 15.45 159.093 15.2038 159.09 14.9553V4.54407C159.09 4.51804 159.116 4.49201 159.116 4.43996C155.733 2.85224 151.984 1.94125 148.028 1.94125C133.661 1.94125 122 13.6019 122 27.9694C122 42.337 133.661 53.9976 148.028 53.9976C162.396 53.9976 174.056 42.337 174.056 27.9694C174.056 24.0131 173.145 20.2651 171.558 16.8814ZM152.583 27.5009C154.249 28.0735 156.487 29.2969 156.487 33.123C156.487 36.3765 153.911 39.0574 150.761 39.0574H149.98V39.7081C149.98 40.7753 149.095 41.6602 148.028 41.6602C146.961 41.6602 146.076 40.7753 146.076 39.7081V39.0574H145.868C142.406 39.0574 139.569 36.1423 139.569 32.5504C139.569 31.4572 140.454 30.5722 141.521 30.5722C142.588 30.5722 143.473 31.4572 143.473 32.5244C143.473 33.9559 144.54 35.1272 145.868 35.1272H146.076V29.3489L143.473 28.4379C141.807 27.8653 139.569 26.642 139.569 22.8158C139.569 19.5623 142.146 16.8814 145.295 16.8814H146.076V16.2567C146.076 15.1896 146.961 14.3046 148.028 14.3046C149.095 14.3046 149.98 15.1896 149.98 16.2567V16.9075H150.189C153.65 16.9075 156.487 19.8226 156.487 23.4145C156.487 24.4816 155.602 25.3666 154.535 25.3666C153.468 25.3666 152.583 24.4816 152.583 23.4145C152.583 21.9829 151.516 20.8117 150.189 20.8117H149.98V26.5899L152.583 27.5009Z" fill="#333333"/>
<path d="M143.474 22.8437C143.474 24.2492 143.864 24.4574 144.749 24.7698L146.076 25.2383V20.8135H145.296C144.307 20.8135 143.474 21.7245 143.474 22.8437Z" fill="#333333"/>
<defs>
<linearGradient id="paint0_linear_42_960" x1="123.242" y1="25.0159" x2="35.6597" y2="26.3202" gradientUnits="userSpaceOnUse">
<stop stop-color="#333333"/>
<stop offset="1" stop-color="#333333"/>
</linearGradient>
<linearGradient id="paint1_linear_42_960" x1="170.402" y1="26.2365" x2="257.993" y2="25.6965" gradientUnits="userSpaceOnUse">
<stop stop-color="#333333"/>
<stop offset="1" stop-color="#333333"/>
</linearGradient>
</defs>
</svg>
