<svg width="32" height="32" viewBox="0 0 32 32" fill="none" xmlns="http://www.w3.org/2000/svg">
<path d="M6.585 13.8825C9.105 18.835 13.165 22.8775 18.1175 25.415L21.9675 21.565C22.44 21.0925 23.14 20.935 23.7525 21.145C25.7125 21.7925 27.83 22.1425 30 22.1425C30.9625 22.1425 31.75 22.93 31.75 23.8925V30C31.75 30.9625 30.9625 31.75 30 31.75C13.5675 31.75 0.25 18.4325 0.25 2C0.25 1.0375 1.0375 0.25 2 0.25H8.125C9.0875 0.25 9.875 1.0375 9.875 2C9.875 4.1875 10.225 6.2875 10.8725 8.2475C11.065 8.86 10.925 9.5425 10.435 10.0325L6.585 13.8825Z" fill="#79C9BC"/>
</svg>
