<svg width="34" height="60" viewBox="0 0 34 60" fill="none" xmlns="http://www.w3.org/2000/svg">
<path id="Vector" d="M11.8827 44.8577V39.9267C11.8827 37.2871 12.2328 35.1443 12.9329 33.5018C13.6331 31.8576 14.5347 30.4856 15.6397 29.3806C16.7447 28.2756 17.8886 27.2113 19.075 26.1876C20.744 24.7874 22.1725 23.3323 23.3588 21.8224C24.5434 20.3143 25.1374 18.3465 25.1374 15.9226C25.1374 14.2536 24.7326 12.7844 23.9246 11.5185C23.1166 10.2526 22.0788 9.26963 20.8129 8.56773C19.547 7.8676 18.214 7.51754 16.8119 7.51754C15.0881 7.51754 13.5659 7.89412 12.2452 8.64905C10.9245 9.40399 9.82124 10.4135 8.93194 11.6794C8.04264 12.9453 7.32836 14.3049 6.78912 15.76L0 12.6889C0.376584 11.5574 0.995386 10.265 1.85817 8.80995C2.72095 7.35488 3.86486 5.95462 5.2934 4.60741C6.72195 3.26019 8.45989 2.15696 10.5072 1.29418C12.5546 0.431393 14.9272 0 17.6216 0C20.6396 0 23.373 0.579907 25.8252 1.73795C28.2774 2.89599 30.2169 4.60741 31.6454 6.87045C33.0722 9.13349 33.7883 11.9358 33.7883 15.2755C33.7883 17.9169 33.4117 20.1128 32.6567 21.8631C31.9018 23.6152 30.9453 25.1374 29.7873 26.4298C28.6292 27.724 27.3757 28.9634 26.0285 30.1479C24.9518 31.1186 23.9546 32.0874 23.0371 33.0581C22.1212 34.0287 21.3928 35.1744 20.8553 36.4933C20.3161 37.814 20.0474 39.5519 20.0474 41.7071V44.8595H11.8845L11.8827 44.8577ZM16.0039 59.891C14.4958 59.891 13.2688 59.4737 12.3265 58.6393C11.3824 57.8048 10.9121 56.7139 10.9121 55.3667C10.9121 54.0195 11.3965 52.9834 12.3672 52.0941C13.3378 51.2048 14.5489 50.761 16.0039 50.761C17.459 50.761 18.6577 51.2066 19.6001 52.0941C20.5424 52.9834 21.0145 54.0743 21.0145 55.3667C21.0145 56.6591 20.5566 57.8048 19.639 58.6393C18.7214 59.4737 17.5103 59.891 16.0022 59.891H16.0039Z" fill="#333333"/>
</svg>
