<svg width="236" height="141" viewBox="0 0 236 141" fill="none" xmlns="http://www.w3.org/2000/svg">
<path d="M236 122.138H0V138.687H236V122.138Z" fill="#EBE8EE"/>
<path d="M68.9927 46.3636C68.9927 46.3636 70.3307 46.8345 70.6499 47.5384C70.9691 48.2423 70.8814 51.0417 70.8814 51.0417C70.8814 51.0417 84.5469 52.9017 98.3464 74.8889C112.308 97.1348 114.111 110.442 109.495 120.143C103.399 132.956 82.4168 129.497 82.4168 129.497C82.4168 129.497 77.3594 130.543 59.3559 130.156C42.7218 129.797 33.4439 129.497 33.4439 129.497C33.4439 129.497 4.79151 139.228 7.07543 112.491C10.1036 77.0286 40.2924 54.2793 46.1287 51.0417C51.3978 48.1188 56.212 48.0442 56.212 48.0442C56.212 48.0442 56.475 46.6806 56.7628 46.4452C58.3008 45.1865 68.9944 46.3659 68.9944 46.3659L68.9927 46.3636Z" fill="#A37B90"/>
<path d="M68.9782 22.0689C68.9782 22.0689 75.2164 18.3162 75.701 25.1224C76.2633 33.01 69.5752 33.0823 69.5752 33.0823L68.9766 22.0689H68.9782Z" fill="#F48462"/>
<path d="M72.0838 29.1338C72.0259 29.1338 71.9664 29.1128 71.9119 29.0685C71.7481 28.9333 71.6936 28.6396 71.7895 28.4089L73.8716 23.3812C73.9659 23.1504 74.1759 23.0712 74.3397 23.2087C74.5034 23.3439 74.558 23.6376 74.462 23.8683L72.3799 28.896C72.317 29.0499 72.2012 29.1361 72.0838 29.1361V29.1338Z" fill="black"/>
<path d="M91.2171 73.4508C91.2171 73.4508 89.8179 85.5317 96.759 85.1564C103.702 84.7788 104.071 70.8145 104.071 70.8145L91.2154 73.4508H91.2171Z" fill="#F48462"/>
<path d="M99.324 59.3886C99.324 59.3886 106.789 40.4618 108.235 41.4198C109.68 42.3778 90.3256 83.4922 89.459 82.9048C88.5924 82.3174 99.324 59.3886 99.324 59.3886Z" fill="#465884"/>
<path d="M74.5052 27.6257L72.7207 27.5838C72.5322 27.5791 72.38 27.36 72.3834 27.0919C72.3867 26.8262 72.5289 26.6281 72.7307 26.6188L74.5102 26.6607C74.6987 26.6654 74.8492 26.8845 74.8476 27.1525C74.8443 27.4159 74.6921 27.6257 74.5052 27.6257Z" fill="black"/>
<path d="M57.7321 40.8208L57.6792 50.0511C57.6792 50.0511 60.2079 51.9694 63.3683 52.0463C67.6352 52.1489 69.0757 48.5803 69.0757 48.5803L69.0442 37.758L57.7321 40.8208Z" fill="#F48462"/>
<path d="M57.7324 40.8068C57.7324 40.8068 59.7765 48.2796 64.6222 47.2587C68.5269 46.4359 69.6432 38.6321 69.6432 38.6321L57.7324 40.8068Z" fill="black"/>
<path d="M70.9608 14.5192C70.9608 14.5192 73.6963 31.4157 70.2629 38.8978C66.5799 46.9231 60.6509 44.5269 58.4315 42.1214C55.4381 38.8769 54.8245 34.3759 54.8245 34.3759C54.8245 34.3759 50.7098 35.5297 49.3371 30.8004C47.8967 25.8333 50.4584 21.8242 52.5174 21.5864C54.5764 21.3487 54.8162 21.8778 54.8162 21.8778L54.2126 16.5727C54.2126 16.5727 66.7254 -3.02999 70.9625 14.5192H70.9608Z" fill="#F48462"/>
<path d="M54.1398 29.4951C54.0604 29.4951 53.9811 29.4578 53.9166 29.3785L50.7412 25.5396C50.5973 25.3671 50.5808 25.0617 50.7048 24.859C50.8272 24.6562 51.0439 24.6329 51.1878 24.8077L54.3631 28.6466C54.507 28.8191 54.5235 29.1245 54.3995 29.3273C54.3317 29.4391 54.2357 29.4951 54.1398 29.4951Z" fill="black"/>
<path d="M51.2061 30.2037C51.1019 30.2037 50.9994 30.1384 50.9316 30.0102C50.8175 29.7981 50.8489 29.4951 50.9994 29.3342L52.8748 27.3483C53.027 27.1875 53.242 27.2318 53.3544 27.4439C53.4685 27.656 53.4371 27.959 53.2866 28.1199L51.4112 30.1058C51.35 30.171 51.2772 30.2037 51.2061 30.2037Z" fill="black"/>
<path d="M60.3303 24.8286C60.1501 24.8286 59.9996 24.6305 59.9896 24.3741L59.8722 21.5328C59.8607 21.2671 60.0062 21.0386 60.1947 21.0223C60.3684 21.0177 60.5453 21.2088 60.5569 21.4768L60.6743 24.3182C60.6859 24.5839 60.5404 24.8123 60.3518 24.8286C60.3452 24.8286 60.3386 24.8286 60.332 24.8286H60.3303Z" fill="black"/>
<path d="M68.0501 24.2319C67.8698 24.2319 67.7193 24.0338 67.7094 23.7774L67.592 20.9361C67.5804 20.6704 67.7259 20.4419 67.9144 20.4256C68.0914 20.4163 68.2651 20.6121 68.2767 20.8801L68.3941 23.7238C68.4056 23.9895 68.2601 24.2179 68.0716 24.2343C68.065 24.2343 68.0583 24.2343 68.0517 24.2343L68.0501 24.2319Z" fill="black"/>
<path d="M64.488 31.7723C64.4648 31.7723 64.4434 31.77 64.4219 31.763C64.2366 31.7117 64.1159 31.4577 64.1523 31.1966C64.7377 27.015 63.7686 23.5234 63.7587 23.4884C63.6892 23.2413 63.7736 22.9593 63.9489 22.8614C64.1242 22.7612 64.3226 22.8824 64.3937 23.1294C64.4367 23.281 65.4505 26.9101 64.8237 31.3831C64.7923 31.6138 64.6484 31.7723 64.488 31.7723Z" fill="black"/>
<path d="M69.0676 18.0878C69.0014 18.0878 68.9353 18.0598 68.8758 18.0038C68.1464 17.3069 66.9309 17.526 66.9176 17.5284C66.7341 17.5656 66.5588 17.3792 66.5323 17.1135C66.5075 16.8501 66.6382 16.6077 66.8267 16.5704C66.8862 16.5587 68.3135 16.3 69.2595 17.2044C69.4149 17.3535 69.4563 17.6542 69.3504 17.8733C69.2843 18.0108 69.1767 18.0854 69.0659 18.0854L69.0676 18.0878Z" fill="black"/>
<path d="M59.247 19.7636C59.1725 19.7636 59.0998 19.731 59.0369 19.6611C58.8881 19.4979 58.86 19.1949 58.9758 18.9851C59.677 17.7101 61.091 17.3349 61.1505 17.3186C61.3357 17.2696 61.5143 17.4444 61.5491 17.7055C61.5838 17.9665 61.4598 18.2183 61.2745 18.2672C61.263 18.2696 60.0573 18.5959 59.5182 19.5748C59.4504 19.6984 59.3495 19.7613 59.247 19.7613V19.7636Z" fill="black"/>
<path d="M53.8656 21.9057C53.8656 21.9057 55.1589 27.1152 55.6385 26.9031C56.1181 26.691 55.3111 18.4747 53.9186 18.1414C52.5261 17.8104 53.8656 21.9057 53.8656 21.9057Z" fill="black"/>
<path d="M54.4524 21.1342C54.4524 21.1342 58.5787 20.3557 61.2496 17.1344C63.5054 14.4143 64.286 10.6989 64.286 10.6989C64.286 10.6989 66.0556 10.2537 68.6719 12.2792C71.2883 14.3047 71.7265 21.0899 71.7265 21.0899C71.7265 21.0899 76.0149 9.24207 73.6383 5.3192C71.2618 1.39866 67.721 5.03949 67.721 5.03949C67.721 5.03949 68.1046 -2.53819 60.808 0.890531C53.5113 4.31925 52.1354 13.44 52.1354 13.44C52.1354 13.44 49.5984 13.3025 49.4016 16.6216C49.2048 19.9408 50.2748 23.2273 50.2748 23.2273C50.2748 23.2273 51.3217 21.682 53.0417 22.4442L54.7616 23.2087L54.4524 21.1319V21.1342Z" fill="black"/>
<path d="M68.993 46.3636C68.993 46.3636 67.703 48.4404 64.4367 48.9882C61.1704 49.5336 58.0513 46.1818 58.0513 46.1818L56.3032 51.9135L61.8171 55.7151L70.4913 53.5311L70.1259 48.0069L68.9946 46.3636H68.993Z" fill="#A37B90"/>
<path d="M43.4515 97.1325C43.4085 97.1325 43.3638 97.1208 43.3225 97.0975C43.1869 97.0183 29.6504 89.3823 18.497 96.2934C18.325 96.4006 18.1216 96.291 18.0455 96.0463C17.9694 95.8016 18.0488 95.5172 18.2208 95.41C29.6437 88.3334 43.4432 96.1232 43.5805 96.2025C43.7558 96.3027 43.8385 96.5847 43.7674 96.8318C43.7128 97.0183 43.5854 97.1325 43.4498 97.1325H43.4515Z" fill="#92B4EA"/>
<path d="M32.8837 93.3728C32.8523 93.3728 32.8192 93.3658 32.7862 93.3518C30.9422 92.5849 24.9074 89.9044 24.7023 87.6248C24.6709 87.2752 24.7387 86.7671 25.2398 86.3452C27.8115 84.1798 32.6026 91.7062 33.1401 92.5709C33.241 92.7318 33.2525 92.9672 33.1715 93.149C33.107 93.2912 32.9978 93.3704 32.8837 93.3704V93.3728ZM26.3098 86.9186C26.0452 86.9186 25.8037 86.9978 25.592 87.1773C25.5094 87.2472 25.3704 87.3824 25.382 87.5083C25.4713 88.5082 28.5606 90.4312 31.7492 91.8903C30.2674 89.7809 27.8875 86.9186 26.3098 86.9186Z" fill="#92B4EA"/>
<path d="M35.685 128.555C35.5246 128.555 35.3823 128.397 35.3492 128.166C35.3129 127.905 35.4336 127.651 35.6188 127.599C39.8609 126.42 43.1784 121.931 43.2115 121.886C43.3471 121.7 43.5638 121.705 43.6961 121.896C43.8284 122.087 43.8251 122.392 43.6894 122.579C43.5489 122.77 40.1916 127.31 35.7511 128.546C35.728 128.553 35.7065 128.555 35.685 128.555Z" fill="#92B4EA"/>
<path d="M102.249 66.7658C102.249 66.7658 108.374 66.4721 106.731 62.3278C105.089 58.1835 94.2201 55.0578 92.7863 59.5447C91.3524 64.0293 102.249 66.7681 102.249 66.7681V66.7658Z" fill="#F48462"/>
<path d="M101.189 73.7514C101.189 73.7514 107.313 73.4578 105.671 69.3134C104.029 65.1691 93.1601 62.0434 91.7262 66.5304C90.2924 71.015 101.189 73.7538 101.189 73.7538V73.7514Z" fill="#F48462"/>
<path d="M97.1427 78.7349C98.4972 79.0892 99.903 79.0122 101.196 78.3433C102.351 77.7466 103.31 76.7023 102.526 74.9145C100.956 71.3436 91.2601 69.1946 90.119 73.2387C89.2689 76.2548 94.4503 78.0263 97.1427 78.7325V78.7349Z" fill="#F48462"/>
<path d="M103.788 65.8265C103.769 65.8265 103.751 65.8265 103.735 65.8218L95.3813 63.9827C95.1944 63.9408 95.0671 63.6937 95.0952 63.4303C95.125 63.1669 95.3019 62.9898 95.4871 63.0271L103.841 64.8638C104.027 64.9058 104.155 65.1528 104.127 65.4162C104.1 65.654 103.955 65.8241 103.789 65.8241L103.788 65.8265Z" fill="black"/>
<path d="M102.008 73.0219C101.99 73.0219 101.972 73.0219 101.955 73.0172L93.602 71.1782C93.4151 71.1362 93.2878 70.8891 93.3159 70.6258C93.3457 70.3624 93.5243 70.1876 93.7078 70.2225L102.061 72.0592C102.248 72.1012 102.376 72.3483 102.347 72.6117C102.321 72.8494 102.175 73.0196 102.01 73.0196L102.008 73.0219Z" fill="black"/>
<path d="M65.2754 55.7128C64.7462 55.7128 64.1789 55.6359 63.5736 55.4611C63.3884 55.4074 63.2693 55.1534 63.3074 54.8923C63.3454 54.6313 63.5257 54.4611 63.7125 54.517C68.373 55.8713 70.4998 51.0044 70.5875 50.797C70.6834 50.5685 70.8934 50.4916 71.0571 50.6291C71.2192 50.7643 71.2721 51.0604 71.1762 51.2888C71.1547 51.3401 69.2595 55.7128 65.2754 55.7128Z" fill="#92B4EA"/>
<path d="M63.1119 36.6951C62.4025 36.6951 61.2911 36.2966 60.5006 34.1312C60.4146 33.8934 60.4807 33.6021 60.6478 33.4809C60.8165 33.3573 61.0232 33.4529 61.1092 33.6883C62.0717 36.3269 63.5138 35.6765 63.575 35.6486C63.752 35.5647 63.9472 35.6975 64.01 35.9469C64.0712 36.1987 63.9786 36.4714 63.8016 36.56C63.795 36.5646 63.5188 36.6951 63.1119 36.6951Z" fill="black"/>
<path d="M208.078 17.3067C208.078 17.3067 215.136 15.0061 220.091 23.7492C225.046 32.4923 225.32 78.5388 225.32 78.5388L204.965 64.8799L204.825 39.8463L208.079 17.3043L208.078 17.3067Z" fill="black"/>
<path d="M163.909 83.1377L159.865 58.9316L144.258 60.78C144.258 60.78 134.689 116.763 149.465 126.355C163.112 135.217 174.133 117.101 174.133 117.101L163.909 83.1401V83.1377Z" fill="#F48462"/>
<path d="M232.293 104.153C232.293 104.153 227.284 60.8896 212.431 55.7151C197.578 50.5428 191.406 55.144 183.092 60.1391C175.055 64.9686 163.911 83.1355 163.911 83.1355L170.315 123.304L178.566 121.12L178.43 136.466L222.175 138.109L227.729 105.943L232.293 104.151V104.153Z" fill="#68B6D8"/>
<path d="M204.155 42.676L204.214 56.0529C204.214 56.0529 202.519 59.9128 196.971 60.5981C192.836 61.1086 191.377 59.8033 191.377 59.8033L191.925 53.0228L192.464 46.4124L202.476 43.2168L204.157 42.6783L204.155 42.676Z" fill="#F48462"/>
<path d="M202.476 43.2146C202.453 43.5805 202.357 44.0117 202.207 44.5082C200.113 51.2095 194.313 52.7012 191.925 53.0229L192.464 46.4125L202.476 43.2169V43.2146Z" fill="black"/>
<path d="M190.213 15.9409C190.213 15.9409 185.306 32.7558 187.311 42.056C189.315 51.3562 195.342 49.699 198.934 47.7783C202.526 45.8577 204.156 42.6784 204.156 42.6784C204.156 42.6784 207.562 44.1911 209.755 39.6902C211.948 35.1892 210.477 30.1452 208.529 29.0381C206.581 27.9309 204.315 29.9657 204.315 29.9657L206.04 25.0709C206.04 25.0709 198.092 0.70157 190.213 15.9409Z" fill="#F48462"/>
<path d="M191.075 37.04C190.932 37.04 190.798 36.9142 190.75 36.7137C189.902 33.2057 191.601 29.5323 191.673 29.3784C191.778 29.157 191.991 29.0964 192.148 29.2432C192.305 29.3901 192.35 29.6884 192.244 29.9122C192.227 29.9472 190.66 33.3502 191.397 36.4037C191.458 36.6554 191.362 36.9305 191.184 37.0167C191.147 37.0354 191.109 37.0424 191.073 37.0424L191.075 37.04Z" fill="black"/>
<path d="M204.965 37.7089C204.884 37.7089 204.803 37.6692 204.737 37.5876C204.596 37.4105 204.583 37.1052 204.709 36.907L207.821 31.9842C207.949 31.7861 208.164 31.7698 208.304 31.9446C208.445 32.1217 208.458 32.4271 208.332 32.6252L205.22 37.548C205.152 37.6552 205.058 37.7089 204.965 37.7089Z" fill="black"/>
<path d="M208.337 36.2873C208.324 36.2873 208.309 36.2872 208.294 36.2826L206.065 35.898C205.876 35.8654 205.744 35.6253 205.767 35.3596C205.79 35.0962 205.956 34.9027 206.149 34.94L208.379 35.3246C208.567 35.3572 208.7 35.5973 208.676 35.863C208.655 36.1078 208.508 36.2873 208.337 36.2873Z" fill="black"/>
<path d="M197.679 24.1013C197.601 24.1013 197.523 24.064 197.46 23.9894C196.491 22.8543 194.979 23.6375 194.965 23.6444C194.789 23.7377 194.591 23.6118 194.523 23.3647C194.457 23.1153 194.544 22.838 194.721 22.7424C194.798 22.7004 196.62 21.7471 197.898 23.2459C198.044 23.416 198.064 23.7214 197.943 23.9242C197.875 24.0384 197.778 24.099 197.68 24.099L197.679 24.1013Z" fill="black"/>
<path d="M188.518 23.6747C188.448 23.6747 188.377 23.6444 188.318 23.5838C188.166 23.4276 188.129 23.1292 188.238 22.9148C188.569 22.2598 189.543 21.2762 190.868 22.2295C191.037 22.3507 191.103 22.6421 191.017 22.8798C190.931 23.1176 190.724 23.2108 190.557 23.0896C189.459 22.2994 188.86 23.3553 188.796 23.4789C188.728 23.6071 188.624 23.677 188.518 23.677V23.6747Z" fill="black"/>
<path d="M196.304 30.6138C196.292 30.6138 196.281 30.6138 196.269 30.6115C196.081 30.5858 195.944 30.3481 195.962 30.0847L196.167 27.1595L195.322 25.5978C195.206 25.3857 195.236 25.0826 195.386 24.9218C195.537 24.761 195.752 24.8006 195.866 25.0127L196.792 26.7259C196.845 26.8238 196.868 26.945 196.861 27.0662L196.643 30.1803C196.625 30.4297 196.476 30.6161 196.302 30.6161L196.304 30.6138Z" fill="black"/>
<path d="M189.752 30.1359C189.738 30.1359 189.725 30.1359 189.71 30.1336C189.522 30.101 189.388 29.8632 189.411 29.5975L189.657 26.6629L188.931 25.0989C188.827 24.8751 188.872 24.5768 189.031 24.4299C189.191 24.2831 189.401 24.346 189.505 24.5698L190.299 26.2807C190.344 26.3762 190.362 26.4881 190.352 26.6023L190.091 29.7094C190.071 29.9541 189.922 30.1359 189.752 30.1359Z" fill="black"/>
<path d="M204.132 32.5459C204.132 32.5459 200.614 29.8281 199.226 25.9752C197.839 22.1199 198.242 18.4838 198.242 18.4838C198.242 18.4838 196.025 20.6072 192.861 19.9662C189.699 19.3252 187.911 14.8033 188.51 11.328C188.807 9.59611 191.05 10.2418 191.05 10.2418C191.05 10.2418 193.372 6.00889 197.378 6.74312C201.383 7.47735 202.407 10.7942 202.407 10.7942C202.407 10.7942 205.623 10.7126 208.035 13.1647C210.446 15.6168 210.463 20.7331 210.463 20.7331C210.463 20.7331 212.366 22.1386 212.427 24.8401C212.488 27.5392 210.603 32.6578 210.603 32.6578C210.603 32.6578 207.825 27.0078 204.13 32.5483L204.132 32.5459Z" fill="black"/>
<path d="M178.767 123.518C178.579 123.518 178.425 123.301 178.425 123.035V108.927C178.255 108.188 176.932 102.228 176.421 93.9041C175.87 84.9419 180.338 74.7863 180.529 74.3574C180.63 74.1313 180.84 74.0637 181 74.2059C181.16 74.3481 181.208 74.6464 181.109 74.8702C181.064 74.9727 176.573 85.1843 177.104 93.8202C177.641 102.556 179.078 108.633 179.093 108.694C179.105 108.742 179.111 108.796 179.111 108.847V123.033C179.111 123.299 178.957 123.516 178.769 123.516L178.767 123.518Z" fill="#465884"/>
<path d="M205.478 112.973C205.336 112.973 205.205 112.847 205.155 112.654C204.886 111.591 202.567 102.209 204.328 99.9411C204.682 99.4866 204.982 99.5845 205.129 99.687C206.3 100.484 206.002 108.931 205.818 112.526C205.807 112.754 205.684 112.938 205.524 112.968C205.508 112.971 205.493 112.973 205.478 112.973ZM204.853 100.584C204.838 100.598 204.816 100.619 204.79 100.654C203.923 101.769 204.485 106.216 205.24 109.878C205.374 105.428 205.268 101.167 204.853 100.587V100.584Z" fill="#465884"/>
<path d="M160.456 50.0486C160.456 50.0486 159.057 41.3031 155.741 37.3173C152.425 33.3315 148.502 30.7652 149.189 34.3105C149.875 37.8558 152.17 43.6503 152.17 43.6503L146.155 41.394C146.155 41.394 142.233 38.8254 139.383 37.7555C136.534 36.6857 135.637 39.6389 135.637 39.6389C135.637 39.6389 132.788 38.569 131.547 39.7484C130.307 40.9279 131.187 43.4499 131.187 43.4499C131.187 43.4499 127.097 43.5594 128.637 47.9741C130.176 52.3888 138.267 59.8103 142.19 62.3766C146.112 64.9452 154.95 66.6165 154.95 66.6165C154.95 66.6165 162.887 69.0616 160.454 50.0463L160.456 50.0486Z" fill="#F48462"/>
<path d="M138.46 51.974C138.338 51.974 138.219 51.8808 138.157 51.7199C138.068 51.4845 138.131 51.1931 138.298 51.0673L148.732 43.1819C148.899 43.056 149.106 43.1446 149.195 43.38C149.284 43.6155 149.221 43.9068 149.054 44.0327L138.62 51.918C138.569 51.9577 138.513 51.9763 138.458 51.9763L138.46 51.974Z" fill="black"/>
<path d="M158.768 56.729C158.739 56.729 158.711 56.7243 158.682 56.7126C155.308 55.4773 153.125 53.4424 152.195 50.6617C151.175 47.6129 152.068 44.8415 152.106 44.7249C152.185 44.4849 152.389 44.3776 152.559 44.4918C152.731 44.6037 152.806 44.8904 152.726 45.1328C152.718 45.1585 151.931 47.6339 152.817 50.2654C153.659 52.7688 155.69 54.6242 158.852 55.7803C159.035 55.8479 159.145 56.1113 159.097 56.3677C159.057 56.5844 158.918 56.729 158.766 56.729H158.768Z" fill="black"/>
<path d="M231.061 104.635C231.061 104.635 234.064 123.033 230.688 132.648C225.876 146.354 185.586 139.063 185.586 139.063L182.858 123.035L205.552 113.132L205.478 112.491C205.478 112.491 214.42 109.171 231.061 104.638V104.635Z" fill="#F48462"/>
<path d="M194.544 42.2192C193.377 42.2192 192.479 41.0258 192.433 40.9652C192.351 40.8556 192.313 40.6971 192.332 40.5433C192.348 40.3871 192.419 40.2542 192.52 40.1843L196.372 37.5295C196.478 37.4572 196.6 37.4642 196.699 37.5504C196.799 37.6343 196.861 37.7859 196.865 37.949C196.868 38.0819 196.914 41.2355 195.345 42.0234C195.07 42.1632 194.801 42.2192 194.546 42.2192H194.544ZM193.324 40.7018C193.739 41.0631 194.414 41.4663 195.115 41.1143C195.823 40.7577 196.061 39.569 196.14 38.7625L193.326 40.7018H193.324Z" fill="black"/>
<path d="M195.76 61.2671C193.158 61.2671 191.291 60.2718 191.253 60.2509C191.078 60.153 190.99 59.8733 191.058 59.6262C191.128 59.3791 191.326 59.2556 191.501 59.3511C191.576 59.3931 199 63.3253 204.717 54.8968C204.848 54.7034 205.064 54.6964 205.202 54.8805C205.339 55.0647 205.342 55.37 205.211 55.5635C202.102 60.146 198.517 61.2648 195.758 61.2648L195.76 61.2671Z" fill="#465884"/>
<path d="M98.7587 121.889H140.771C141.495 121.889 142.084 122.718 142.084 123.739V130.534C142.084 131.555 141.495 132.385 140.771 132.385H98.7587C96.7212 132.385 95.0674 130.054 95.0674 127.182V127.089C95.0674 124.217 96.7212 121.886 98.7587 121.886V121.889Z" fill="#F7B369"/>
<path d="M109.515 122H146.474C147.157 122 147.711 122.781 147.711 123.744V130.758C147.711 131.72 147.157 132.501 146.474 132.501H109.515C107.596 132.501 106.04 130.305 106.04 127.604V126.9C106.04 124.196 107.598 122.003 109.515 122.003V122Z" fill="#FFC892"/>
<path d="M147.71 130.471H110.099C108.792 130.471 107.734 128.979 107.734 127.138C107.734 125.296 108.792 123.805 110.099 123.805H147.71V130.471Z" fill="white"/>
<path d="M98.6474 122.082H140.221C142.278 122.082 143.945 119.733 143.945 116.833C143.945 113.933 142.278 111.584 140.221 111.584H98.6474C98.5928 111.584 98.5498 111.644 98.5498 111.721V121.945C98.5498 122.021 98.5928 122.082 98.6474 122.082Z" fill="#C8BCCE"/>
<path d="M97.6669 122.082H129.809C131.866 122.082 133.533 119.733 133.533 116.833C133.533 113.933 131.866 111.584 129.809 111.584H97.6669C97.0236 111.584 96.501 112.32 96.501 113.227V120.439C96.501 121.346 97.0236 122.082 97.6669 122.082Z" fill="#ECE8EF"/>
<path d="M96.501 120.057H129.66C130.967 120.057 132.025 118.565 132.025 116.723C132.025 114.882 130.967 113.39 129.66 113.39H96.501V120.057Z" fill="white"/>
<path d="M102.053 111.668H135.463C137.521 111.668 139.188 109.318 139.188 106.419C139.188 103.519 137.521 101.169 135.463 101.169H102.053C101.818 101.169 101.628 101.437 101.628 101.768V111.069C101.628 111.4 101.818 111.668 102.053 111.668Z" fill="#B1A5B7"/>
<path d="M100.991 111.668H126.845C128.903 111.668 130.57 109.318 130.57 106.419C130.57 103.519 128.903 101.169 126.845 101.169H100.991C100.406 101.169 99.9312 101.838 99.9312 102.664V110.174C99.9312 110.999 100.406 111.668 100.991 111.668Z" fill="#C8BCCE"/>
<path d="M99.9312 109.64H126.96C128.266 109.64 129.324 108.148 129.324 106.307C129.324 104.465 128.266 102.974 126.96 102.974H99.9312V109.64Z" fill="#ECE8EF"/>
<path d="M57.7324 78.6066V74.6138C57.7324 74.6138 61.7181 73.0265 66.8714 73.6092C72.0247 74.1919 75.7342 77.6812 75.7342 77.6812C75.7342 77.6812 80.4195 74.1266 85.9234 73.481C91.4273 72.833 94.6407 73.481 94.6407 73.481L94.042 78.6066L74.5054 83.886L57.7324 78.6066Z" fill="white"/>
<path d="M95.0671 76.9048L89.5598 130.154H51.7783L57.2855 76.9048H95.0671Z" fill="#68B6D8"/>
<path d="M77.2903 76.9048L72.6265 130.154H68.96L73.6254 76.9048H77.2903Z" fill="#53AAC9"/>
<path d="M44.6603 102.479C44.6603 102.479 50.0005 86.3731 50.8539 85.2239C51.7089 84.0748 61.6616 79.3105 63.0144 79.4037C64.3673 79.497 62.2421 83.7485 61.177 84.9489C60.112 86.147 58.736 87.4429 58.736 87.4429C58.736 87.4429 66.1864 87.4429 66.8794 89.2191C67.5723 90.9929 65.5762 92.6315 65.5762 92.6315C65.5762 92.6315 68.2422 92.9508 67.2863 95.3632C66.3303 97.7757 59.0172 100.473 59.0172 100.473C59.0172 100.473 57.6213 110.717 52.7012 113.143C47.7794 115.572 45.4806 114.884 45.4806 114.884L44.6587 102.477L44.6603 102.479Z" fill="#F48462"/>
<path d="M53.042 88.6782C52.8667 88.6782 52.7178 88.4894 52.7013 88.24C52.6831 87.9743 52.822 87.7389 53.0106 87.7156L58.7063 86.9674C58.9015 86.9394 59.0619 87.1375 59.0784 87.4033C59.0966 87.669 58.9577 87.9044 58.7692 87.9277L53.0734 88.6782C53.0618 88.6782 53.0519 88.6782 53.0403 88.6782H53.042Z" fill="black"/>
<path d="M56.2455 94.0275C56.0652 94.0275 55.913 93.827 55.9048 93.5706C55.8949 93.3049 56.0404 93.0788 56.2289 93.0648L61.7031 92.6593C61.8883 92.6383 62.052 92.8504 62.0619 93.1161C62.0719 93.3818 61.9263 93.6079 61.7378 93.6219L56.2636 94.0275C56.2636 94.0275 56.2521 94.0275 56.2455 94.0275Z" fill="black"/>
</svg>
