<svg width="236" height="141" viewBox="0 0 236 141" fill="none" xmlns="http://www.w3.org/2000/svg">
<path d="M227.776 125.135H0V141H227.776V125.135Z" fill="#EBE8EE"/>
<path d="M121.707 47.1949C121.707 47.1949 110.952 47.7155 113.29 51.3534C114.943 53.9231 118.869 52.6382 118.869 52.6382C118.869 52.6382 119.65 71.652 122.09 72.4721C126.781 74.0497 127.361 55.3286 121.707 47.1926V47.1949Z" fill="#F48462"/>
<path d="M205.69 21.5666C207.884 21.3007 210.126 21.9152 211.891 23.4928C213.437 24.876 214.897 27.144 215.363 30.8601C216.48 39.7804 213.764 42.158 217.949 45.6238C222.134 49.0895 224.579 47.112 227.096 55.458C229.613 63.804 225.26 74.7645 216.708 72.2752C208.157 69.7859 187.448 62.394 187.448 62.394L187.229 25.5821L197.73 22.5319L205.69 21.5666Z" fill="black"/>
<path d="M100.733 67.5023C100.733 67.5023 108.399 78.0046 117.035 76.6103C122.545 75.7209 125.304 60.9215 125.304 60.9215L115.95 52.171L100.731 67.5L100.733 67.5023Z" fill="#F48462"/>
<path d="M184.32 54.3073C184.32 54.3073 174.969 55.905 168.916 69.0419C162.864 82.1811 157.78 118.408 158.707 119.552C159.633 120.696 179.826 124.128 196.566 124.128C213.306 124.128 218.552 123.366 220.167 122.222C221.78 121.078 221.365 59.2278 212.097 54.3073C202.826 49.3868 194.267 50.3723 184.32 54.3073Z" fill="#6876AA"/>
<path d="M128.273 60.0656L112.242 79.2894C112.242 79.2894 122.04 102.448 143.865 105.82C165.69 109.192 178.325 92.6744 178.325 92.6744L181.996 54.8926C181.996 54.8926 158.398 67.5581 149.937 68.863C141.475 70.168 128.273 60.0656 128.273 60.0656Z" fill="#6876AA"/>
<path d="M181.995 54.8928C181.995 54.8928 167.307 82.3867 164.406 100.178C161.505 117.97 160.941 130.561 160.941 130.561L214.316 130.957L215.271 82.5565L209.637 53.8872L194.071 51.3667L181.995 54.895V54.8928Z" fill="#F7B369"/>
<path d="M181.996 54.8926C181.996 54.8926 174.504 87.993 172.922 99.5568C171.34 111.121 171.013 122.173 171.013 122.173L161.219 120.425L164.958 93.2844L178.325 58.5573L181.996 54.8926Z" fill="#6876AA"/>
<path d="M178.402 28.2257C178.402 28.2257 174.423 20.0875 174.816 16.6463C175.785 8.1617 185.905 2.55299 195.81 6.85226C205.714 11.1493 207.453 26.0202 205.763 32.4222C201.41 48.9109 189.388 42.7927 189.388 42.7927C189.388 42.7927 170.601 38.0555 178.4 28.2257H178.402Z" fill="black"/>
<path d="M181.378 46.0439L181.391 46.3523L181.835 52.1711L182.166 56.734C182.166 56.734 181.88 57.8155 186.325 57.2256C192.28 56.4078 194.088 53.237 194.088 53.237L193.929 42.5044L192.134 43.0161L181.378 46.0417V46.0439Z" fill="#F48462"/>
<path d="M181.393 46.3546L181.837 52.1734C184.723 51.5924 189.95 49.8025 191.874 44.2318C192.022 43.7804 192.114 43.376 192.136 43.0408L181.408 46.263L181.393 46.3524V46.3546Z" fill="black"/>
<path d="M178.423 18.5479C178.423 18.5479 173.452 34.0355 175.784 42.4575C178.114 50.8773 184.573 49.1768 188.404 47.3132C192.235 45.4496 193.933 42.5 193.933 42.5C193.933 42.5 197.627 43.7737 199.905 39.5996C202.183 35.4277 200.506 30.8714 198.387 29.9217C196.269 28.972 193.867 30.9005 193.867 30.9005L195.632 26.3822C195.632 26.3822 186.622 4.40543 178.423 18.5501V18.5479Z" fill="#F48462"/>
<path d="M179.731 37.7872C179.574 37.7872 179.424 37.671 179.368 37.4833C178.387 34.3013 180.152 30.8869 180.227 30.7439C180.341 30.5272 180.58 30.4624 180.76 30.5987C180.942 30.735 180.996 31.0188 180.884 31.2355C180.867 31.2668 179.246 34.4108 180.096 37.1638C180.171 37.4029 180.066 37.6688 179.866 37.7582C179.821 37.7783 179.776 37.7872 179.731 37.7872Z" fill="black"/>
<path d="M194.698 37.964C194.61 37.964 194.52 37.9282 194.447 37.8545C194.285 37.6891 194.264 37.3964 194.402 37.202L197.663 32.6145C197.801 32.4201 198.046 32.3955 198.209 32.5608C198.372 32.7262 198.393 33.0189 198.254 33.2133L194.994 37.8008C194.917 37.9081 194.809 37.964 194.698 37.964Z" fill="black"/>
<path d="M198.303 36.5627C198.29 36.5627 198.277 36.5627 198.266 36.5604L195.859 36.2789C195.645 36.2543 195.49 36.0286 195.511 35.7739C195.531 35.5191 195.726 35.3337 195.934 35.3582L198.341 35.6398C198.554 35.6644 198.709 35.8901 198.689 36.1448C198.67 36.3839 198.501 36.5627 198.303 36.5627Z" fill="black"/>
<path d="M183.85 42.205C182.615 42.205 181.586 41.0945 181.529 41.0341C181.43 40.9269 181.387 40.766 181.411 40.6073C181.436 40.4509 181.527 40.3191 181.651 40.261L186.534 37.975C186.669 37.9125 186.82 37.9438 186.929 38.0555C187.038 38.1672 187.086 38.3437 187.052 38.5113C187.034 38.6029 186.592 40.7638 185.011 41.8363C184.619 42.1022 184.226 42.2028 183.85 42.2028V42.205ZM182.598 40.8129C183.109 41.1682 183.903 41.5235 184.627 41.0341C185.316 40.5671 185.746 39.8185 185.997 39.2219L182.598 40.8129Z" fill="black"/>
<path d="M187.21 26.2035C187.077 26.2035 186.946 26.1208 186.875 25.9733C186.233 24.6572 184.694 25.1287 184.629 25.151C184.423 25.2158 184.21 25.0706 184.155 24.8248C184.099 24.579 184.221 24.3242 184.427 24.2594C184.515 24.2304 186.601 23.5779 187.545 25.5085C187.653 25.7297 187.59 26.0113 187.404 26.1409C187.343 26.1834 187.275 26.2035 187.21 26.2035Z" fill="black"/>
<path d="M177.339 25.0706C177.238 25.0706 177.138 25.0237 177.062 24.932C176.912 24.7488 176.914 24.4583 177.067 24.2796C177.108 24.2304 178.106 23.1064 179.19 23.1891C179.731 23.2338 180.197 23.5556 180.573 24.1455C180.704 24.3488 180.67 24.6393 180.5 24.7935C180.329 24.9499 180.086 24.9097 179.957 24.7064C179.717 24.3332 179.45 24.1388 179.137 24.112C178.398 24.0449 177.617 24.932 177.61 24.941C177.535 25.0281 177.436 25.0728 177.339 25.0728V25.0706Z" fill="black"/>
<path d="M178.181 31.5329C178.17 31.5329 178.157 31.5329 178.144 31.5329C177.93 31.5083 177.775 31.2826 177.794 31.0301L178.001 28.3889L177.155 27.2649C177.013 27.0749 177.024 26.7822 177.185 26.6124C177.344 26.4426 177.59 26.4582 177.732 26.6482L178.692 27.9241C178.765 28.0202 178.801 28.1475 178.789 28.2771L178.567 31.1195C178.548 31.3586 178.379 31.5396 178.181 31.5396V31.5329Z" fill="black"/>
<path d="M185.241 31.763C184.999 31.7429 184.838 31.5217 184.853 31.2669L185.016 28.648L183.771 27.3296C183.61 27.1598 183.595 26.8671 183.738 26.6771C183.88 26.485 184.125 26.4671 184.284 26.6369L185.673 28.1073C185.763 28.2033 185.811 28.3441 185.802 28.4871L185.624 31.3339C185.609 31.5775 185.439 31.763 185.239 31.763H185.241Z" fill="black"/>
<path d="M200.56 16.3781C200.56 16.3781 199.201 -1.83123 209.613 0.150814C220.642 2.25129 210.232 23.2672 203.182 22.1164C200.043 21.6047 200.56 16.3781 200.56 16.3781Z" fill="black"/>
<path d="M183.315 85.2289C183.315 85.2289 179.779 63.1225 177.956 60.7293C176.133 58.3361 164.142 52.0145 162.615 53.753C161.087 55.4915 162.641 57.6769 162.641 57.6769C162.641 57.6769 160.361 56.1216 159.502 57.7506C158.643 59.3796 160.307 61.9091 160.307 61.9091C160.307 61.9091 158.488 60.5416 158.729 63.5716C158.971 66.6017 163.949 72.1456 163.949 72.1456C163.949 72.1456 164.235 78.3375 167.425 84.992C170.612 91.6465 180.318 91.9459 180.318 91.9459L183.315 85.2266V85.2289Z" fill="#F48462"/>
<path d="M172.177 63.7148C172.117 63.7148 172.055 63.6992 171.997 63.6634L162.491 57.7441C162.3 57.6257 162.227 57.3464 162.326 57.1207C162.426 56.8928 162.66 56.8056 162.849 56.9241L172.355 62.8434C172.546 62.9618 172.619 63.2411 172.519 63.4668C172.45 63.6255 172.315 63.7148 172.175 63.7148H172.177Z" fill="black"/>
<path d="M169.607 69.3257C169.536 69.3257 169.465 69.3033 169.401 69.2542L160.101 62.3025C159.92 62.1662 159.866 61.8824 159.978 61.6656C160.092 61.4489 160.332 61.3818 160.511 61.5181L169.811 68.4698C169.993 68.6061 170.047 68.8899 169.935 69.1067C169.862 69.2475 169.735 69.3234 169.605 69.3234L169.607 69.3257Z" fill="black"/>
<path d="M184.273 58.0501C182.928 58.0501 182.029 57.8781 181.932 57.858C181.721 57.8155 181.578 57.5786 181.614 57.3261C181.649 57.0736 181.85 56.9016 182.059 56.9463C182.123 56.9597 188.494 58.1641 193.3 53.8246C193.471 53.6704 193.714 53.7106 193.843 53.914C193.972 54.1173 193.938 54.4078 193.768 54.562C190.512 57.5004 186.678 58.0479 184.273 58.0479V58.0501Z" fill="#465884"/>
<path d="M167.425 93.2845C167.425 93.2845 183.272 133.167 207.685 130.957C232.1 128.747 230.257 77.4013 222.589 64.3895C214.921 51.3777 204.037 51.5431 204.037 51.5431L194.069 84.9965L185.913 76.6996L167.423 93.2867L167.425 93.2845Z" fill="#6876AA"/>
<path d="M194.069 51.3645C194.069 51.3645 180.369 123.143 183 123.516C185.634 123.889 206.454 125.093 206.454 125.093L204.035 51.5433L194.067 51.3645H194.069Z" fill="#6876AA"/>
<path d="M205.688 22.0292C205.488 22.0292 205.318 21.8438 205.303 21.6002C204.809 13.6743 200.41 10.6934 200.367 10.6643C200.18 10.5414 200.111 10.2599 200.214 10.0364C200.317 9.81297 200.551 9.73029 200.74 9.85319C200.936 9.98056 205.55 13.0821 206.076 21.5332C206.091 21.7879 205.932 22.0091 205.718 22.0292C205.709 22.0292 205.699 22.0292 205.688 22.0292Z" fill="#F7B369"/>
<path d="M209.486 102.395C209.39 102.395 209.297 102.355 209.222 102.27L189.484 80.2995C189.326 80.1252 189.319 79.8325 189.465 79.6448C189.611 79.4593 189.856 79.4481 190.013 79.6224L209.751 101.593C209.909 101.767 209.916 102.06 209.77 102.247C209.693 102.346 209.59 102.395 209.487 102.395H209.486Z" fill="#465884"/>
<path d="M210.551 95.1973C206.761 95.1973 201.483 93.3649 201.189 93.2599C201.02 93.2018 200.906 93.0141 200.912 92.8041C200.916 92.594 201.037 92.4153 201.209 92.3661C202.306 92.051 211.981 89.3584 214.024 91.5192C214.358 91.8723 214.505 92.337 214.455 92.8689C214.391 93.5258 214.11 94.0554 213.622 94.442C212.929 94.9895 211.825 95.195 210.554 95.195L210.551 95.1973ZM202.907 92.8577C206.094 93.8163 211.468 95.0341 213.19 93.6733C213.483 93.4409 213.644 93.1437 213.682 92.7661C213.704 92.5359 213.65 92.3661 213.508 92.2141C212.338 90.9784 206.995 91.8253 202.907 92.8599V92.8577Z" fill="#465884"/>
<path d="M150.133 81.0682C150.047 81.0682 149.957 81.057 149.865 81.0369C149.406 80.9364 149.042 80.6235 148.779 80.1096C147.413 77.4304 149.341 69.6095 149.566 68.7268C149.616 68.5279 149.764 68.3872 149.942 68.3983C150.114 68.4028 150.266 68.5413 150.31 68.7402C150.539 69.7502 152.506 78.6549 150.99 80.6191C150.762 80.9163 150.468 81.0682 150.133 81.0682ZM149.919 70.6843C149.318 73.5467 148.628 78.0337 149.44 79.6269C149.586 79.9152 149.766 80.0738 150.005 80.1252C150.237 80.1766 150.344 80.085 150.419 79.9889C151.209 78.9655 150.621 74.2797 149.919 70.682V70.6843Z" fill="#465884"/>
<path d="M160.427 105.088C160.403 105.088 160.38 105.085 160.356 105.081C160.146 105.034 160.006 104.793 160.045 104.542L161.629 94.2925C161.668 94.0399 161.874 93.8791 162.08 93.9215C162.289 93.9684 162.43 94.2098 162.39 94.46L160.807 104.71C160.773 104.933 160.61 105.09 160.427 105.09V105.088Z" fill="#465884"/>
<path d="M185.042 12.3C185.042 12.3 183.414 14.6798 183.118 18.5858L182.824 22.4918L196.294 27.6067L196.728 19.7768L185.042 12.3Z" fill="black"/>
<path d="M183.865 14.8586C183.865 14.8586 182.649 16.0653 182.076 17.7121C181.503 19.359 180.872 22.6438 180.872 22.6438L176.955 22.0047L177.569 13.833L182.946 10.1124L186.137 10.6331L185.535 15.891L183.863 14.8586H183.865Z" fill="black"/>
<path d="M119.882 88.896H100.099C98.963 88.896 97.9991 87.9016 97.8326 86.5609L91.3174 33.9998C91.1134 32.3485 92.1859 30.8625 93.584 30.8625H113.367C114.503 30.8625 115.467 31.8569 115.634 33.1976L122.149 85.7587C122.353 87.41 121.28 88.896 119.882 88.896Z" fill="#ECE8EF"/>
<path d="M120.885 65.8487C120.782 65.8487 120.677 65.7995 120.601 65.7012C117.071 61.174 118.508 54.3653 118.572 54.0793C118.626 53.8335 118.838 53.6838 119.043 53.7486C119.251 53.8134 119.375 54.0659 119.32 54.3139C119.305 54.3787 117.93 60.9215 121.166 65.071C121.312 65.2587 121.302 65.5515 121.147 65.7258C121.072 65.8084 120.979 65.8509 120.883 65.8509L120.885 65.8487Z" fill="black"/>
<path d="M112.957 40.5358H96.8742C96.6609 40.5358 96.4868 40.3279 96.4868 40.0732C96.4868 39.8185 96.6609 39.6107 96.8742 39.6107H112.957C113.17 39.6107 113.345 39.8185 113.345 40.0732C113.345 40.3279 113.17 40.5358 112.957 40.5358Z" fill="#B1A5B7"/>
<path d="M113.477 45.4384H97.3943C97.1809 45.4384 97.0068 45.2306 97.0068 44.9759C97.0068 44.7212 97.1809 44.5133 97.3943 44.5133H113.477C113.69 44.5133 113.865 44.7212 113.865 44.9759C113.865 45.2306 113.69 45.4384 113.477 45.4384Z" fill="#B1A5B7"/>
<path d="M114.005 50.3387H97.9221C97.7087 50.3387 97.5347 50.1309 97.5347 49.8762C97.5347 49.6214 97.7087 49.4136 97.9221 49.4136H114.005C114.218 49.4136 114.392 49.6214 114.392 49.8762C114.392 50.1309 114.218 50.3387 114.005 50.3387Z" fill="#B1A5B7"/>
<path d="M114.774 55.1565H98.6911C98.4778 55.1565 98.3037 54.9487 98.3037 54.694C98.3037 54.4393 98.4778 54.2314 98.6911 54.2314H114.774C114.987 54.2314 115.161 54.4393 115.161 54.694C115.161 54.9487 114.987 55.1565 114.774 55.1565Z" fill="#B1A5B7"/>
<path d="M115.33 60.3427H99.2473C99.0339 60.3427 98.8599 60.1349 98.8599 59.8802C98.8599 59.6254 99.0339 59.4176 99.2473 59.4176H115.33C115.543 59.4176 115.718 59.6254 115.718 59.8802C115.718 60.1349 115.543 60.3427 115.33 60.3427Z" fill="#B1A5B7"/>
<path d="M121.707 47.1947C121.707 47.1947 112.607 45.9478 113.29 51.3532C113.683 54.4592 121.63 54.0793 121.63 54.0793L121.705 47.1947H121.707Z" fill="#F48462"/>
<path d="M61.1431 58.41C61.1431 58.41 77.5366 59.896 83.6924 67.9917C89.8481 76.0875 81.7141 126.848 81.2743 127.556C80.8344 128.264 75.1877 130.988 55.2849 130.539C35.3821 130.09 29.0841 129.154 28.4253 128.063C27.7665 126.97 22.3968 68.9325 27.2331 64.0768C32.0694 59.2211 49.1479 56.9263 61.1431 58.4122V58.41Z" fill="#92B4EA"/>
<path d="M51.3765 48.2628L51.6142 60.9952C51.6142 60.9952 53.6056 64.604 59.8549 65.0442C64.5096 65.3727 66.1192 64.0744 66.1192 64.0744L65.3518 57.6434L64.5957 51.3732L53.2762 48.7141L51.3765 48.265V48.2628Z" fill="#F48462"/>
<path d="M53.2764 48.7121C53.3101 49.0584 53.428 49.4673 53.6095 49.9321C56.1137 56.2291 62.6625 57.4268 65.3521 57.6436L64.5959 51.3734L53.2764 48.7143V48.7121Z" fill="black"/>
<path d="M66.434 22.2886C66.434 22.2886 72.3277 38.1025 70.2858 47.0295C68.2438 55.9565 61.4367 54.6091 57.3585 52.9198C53.2802 51.2304 51.3749 48.2652 51.3749 48.2652C51.3749 48.2652 47.583 49.8338 45.017 45.6351C42.451 41.4364 43.9895 36.5785 46.1531 35.4501C48.3167 34.3216 50.907 36.1718 50.907 36.1718L48.8595 31.5776C48.8595 31.5776 57.2368 8.08355 66.4321 22.2863L66.434 22.2886Z" fill="#F48462"/>
<path d="M65.9345 42.4039C65.897 42.4039 65.8577 42.3972 65.8203 42.3838C65.6163 42.3078 65.5021 42.0486 65.5639 41.805C66.3238 38.8733 64.4858 35.6935 64.4671 35.6622C64.3436 35.4522 64.3866 35.1639 64.5607 35.0187C64.7348 34.8734 64.9762 34.9226 65.0997 35.1304C65.1858 35.2757 67.1772 38.7079 66.3032 42.0799C66.2508 42.2787 66.0992 42.4061 65.9326 42.4061L65.9345 42.4039Z" fill="black"/>
<path d="M50.3459 43.5703C50.2429 43.5703 50.14 43.5211 50.0632 43.425L46.4548 38.8598C46.3088 38.6744 46.3144 38.3816 46.4697 38.2051C46.6251 38.0308 46.8703 38.0375 47.0181 38.223L50.6266 42.7882C50.7726 42.9736 50.767 43.2664 50.6116 43.4429C50.5368 43.5278 50.4413 43.568 50.3459 43.568V43.5703Z" fill="black"/>
<path d="M46.5239 42.3479C46.3348 42.3479 46.1701 42.1826 46.142 41.9547C46.1102 41.7021 46.2562 41.4653 46.4677 41.4273L48.9645 40.9759C49.1797 40.9402 49.3743 41.1122 49.4062 41.3647C49.438 41.6172 49.292 41.8541 49.0805 41.8921L46.5837 42.3435C46.5632 42.3479 46.5444 42.3479 46.5257 42.3479H46.5239Z" fill="black"/>
<path d="M130.964 92.241L131.342 89.3987C131.342 89.3987 140.474 81.0996 146.092 78.36C148.456 77.207 151.769 78.1678 148.974 81.904C147.466 83.9196 146.714 86.3172 146.714 86.3172C146.714 86.3172 151.226 84.6145 154.322 82.1655C156.304 80.5968 159.201 74.2909 160.902 75.6584C163.607 77.8327 160.498 83.9866 160.498 83.9866C160.498 83.9866 161.902 76.1903 164.571 79.2337C167.228 82.266 159.968 97.5771 156.51 101.235C153.051 104.891 134.806 109.15 134.806 109.15L130.964 92.241Z" fill="#F48462"/>
<path d="M150.189 89.64C149.993 89.64 149.824 89.4613 149.804 89.2222C149.783 88.9674 149.938 88.7418 150.152 88.7172C154.127 88.2502 157.919 84.0336 157.956 83.9911C158.112 83.8168 158.357 83.8257 158.505 84.0112C158.651 84.1967 158.645 84.4894 158.49 84.6659C158.327 84.8492 154.471 89.1417 150.23 89.64C150.217 89.64 150.204 89.64 150.191 89.64H150.189Z" fill="black"/>
<path d="M154.921 93.1796C154.851 93.1796 154.782 93.1573 154.72 93.1126L146.721 87.3162C146.538 87.1843 146.48 86.9006 146.59 86.6816C146.702 86.4626 146.94 86.3911 147.122 86.5251L154.898 92.1584L158.503 88.9318C158.673 88.7798 158.917 88.82 159.046 89.0256C159.175 89.2312 159.139 89.5194 158.967 89.6736L155.153 93.088C155.084 93.1483 155.003 93.1796 154.921 93.1796Z" fill="black"/>
<path d="M139.534 93.0164C139.364 93.0164 139.205 92.8868 139.15 92.6813C139.083 92.4288 139.201 92.1584 139.412 92.0779C143.756 90.4422 146.588 86.6413 146.618 86.6033C146.764 86.4044 147.019 86.3843 147.185 86.5586C147.352 86.7329 147.369 87.0368 147.223 87.2357C147.103 87.401 144.222 91.2735 139.656 92.9919C139.614 93.0075 139.575 93.0142 139.534 93.0142V93.0164Z" fill="black"/>
<path d="M83.6921 67.9918C83.6921 67.9918 100.232 86.7553 115.235 87.8994C122.468 88.4513 132.173 84.3286 132.173 84.3286L140.793 111.264C140.793 111.264 110.481 145.557 79.597 118.533C70.7237 110.768 83.6902 67.9918 83.6902 67.9918H83.6921Z" fill="#92B4EA"/>
<path d="M81.551 113.53C81.3508 113.53 81.1823 113.346 81.1655 113.105C80.7294 106.909 79.8479 95.1505 79.8404 95.0321C79.8217 94.7773 79.9789 94.5539 80.1922 94.5293C80.4037 94.507 80.5928 94.6947 80.6134 94.9494C80.6227 95.0678 81.5042 106.828 81.9385 113.027C81.9572 113.282 81.7981 113.505 81.5847 113.527C81.5735 113.527 81.5623 113.527 81.551 113.527V113.53Z" fill="#E6F4FF"/>
<path d="M27.233 64.0746C27.233 64.0746 -6.68824 86.753 1.18566 120.095C6.78742 143.812 60.9951 134.597 60.9951 134.597L60.385 106.529L31.257 101.083L27.2311 64.0791L27.233 64.0746Z" fill="#92B4EA"/>
<path d="M26.0946 103.003C24.1276 103.003 22.5273 102.712 22.1436 101.843C21.9041 101.3 22.0669 100.665 22.6303 99.9613C26.1414 95.566 34.4495 100.9 34.8014 101.128C34.9474 101.222 35.026 101.418 34.9979 101.613C34.9699 101.807 34.8407 101.959 34.6779 101.993C33.0421 102.312 29.1323 103.005 26.0946 103.005V103.003ZM26.57 99.1546C25.2505 99.1546 24.0358 99.5412 23.1917 100.598C22.9054 100.958 22.7669 101.269 22.8287 101.412C23.2816 102.437 28.4136 102.158 33.3359 101.302C31.8274 100.48 29.0162 99.1546 26.57 99.1546Z" fill="#E6F4FF"/>
<path d="M65.547 59.2679C65.547 59.2679 68.9402 72.8652 67.7985 72.5993C66.6568 72.3334 59.8554 65.0443 59.8554 65.0443C59.8554 65.0443 54.4969 72.968 52.8742 73.0171C51.2515 73.0663 51.3788 58.0278 51.3788 58.0278C51.3788 58.0278 52.7638 62.6041 58.7736 63.6298C64.7833 64.6554 65.5488 59.2679 65.5488 59.2679H65.547Z" fill="#E6F4FF"/>
<path d="M58.747 30.1251C58.5635 30.1251 58.4026 29.9709 58.367 29.7474C58.3277 29.4972 58.4662 29.2536 58.6758 29.2067L61.6611 28.5341C61.8707 28.4894 62.0747 28.6525 62.114 28.9028C62.1533 29.1531 62.0148 29.3966 61.8052 29.4435L58.8199 30.1161C58.7956 30.1206 58.7713 30.1251 58.747 30.1251Z" fill="black"/>
<path d="M68.0324 29.4523C67.995 29.4523 67.9557 29.4456 67.9164 29.4322L66.0036 28.7216C65.7996 28.6457 65.6854 28.3865 65.7491 28.1429C65.8127 27.8993 66.0279 27.763 66.2338 27.839L68.1466 28.5496C68.3506 28.6255 68.4648 28.8848 68.4012 29.1283C68.3487 29.3272 68.1971 29.4546 68.0306 29.4546L68.0324 29.4523Z" fill="black"/>
<path d="M83.8364 125.641H134.6L149.1 86.4871H100.337C99.1201 86.4871 98.0177 87.3451 97.5255 88.6724L83.8364 125.641Z" fill="white"/>
<path d="M88.2456 125.641H139.01L151.95 90.6969C152.684 88.7149 151.469 86.4871 149.653 86.4871H102.745L88.2456 125.641Z" fill="#465884"/>
<path d="M120.208 111.212C122.589 111.212 124.52 108.907 124.52 106.064C124.52 103.221 122.589 100.916 120.208 100.916C117.826 100.916 115.896 103.221 115.896 106.064C115.896 108.907 117.826 111.212 120.208 111.212Z" fill="white"/>
<path d="M67.2632 35.783C67.0742 35.783 66.9095 35.6176 66.8796 35.3875L66.5165 32.4401C66.5015 32.3105 66.5314 32.1787 66.6007 32.0781L67.4822 30.8022C67.6188 30.6056 67.8622 30.5765 68.0269 30.7396C68.1916 30.9027 68.2159 31.1932 68.0793 31.3899L67.3063 32.5072L67.6451 35.2512C67.6769 35.5037 67.529 35.7383 67.3175 35.7763C67.2988 35.7785 67.2801 35.7808 67.2614 35.7808L67.2632 35.783Z" fill="black"/>
<path d="M60.4766 36.4041C60.2876 36.4041 60.1229 36.2387 60.0929 36.0086L59.7298 33.0612C59.7149 32.9316 59.7448 32.7997 59.8141 32.6992L60.6956 31.4233C60.8322 31.2266 61.0755 31.1976 61.2402 31.3607C61.4049 31.5238 61.4293 31.8143 61.2926 32.0109L60.5215 33.1282L60.8603 35.8722C60.8921 36.1247 60.7443 36.3594 60.5328 36.3974C60.514 36.3996 60.4953 36.4018 60.4766 36.4018V36.4041Z" fill="black"/>
<path d="M53.2764 103.601C53.2576 103.601 53.2408 103.601 53.2221 103.597C53.0892 103.575 39.8699 101.387 34.6519 101.995C34.4422 102.017 34.2495 101.834 34.2289 101.579C34.2083 101.324 34.3636 101.099 34.577 101.074C39.8887 100.462 52.7823 102.589 53.3288 102.681C53.5403 102.717 53.6881 102.949 53.6582 103.204C53.632 103.436 53.4654 103.601 53.2745 103.601H53.2764Z" fill="#E6F4FF"/>
<path d="M51.8391 37.6779C51.8391 37.6779 55.3783 34.6612 55.0695 30.257C54.7607 25.8527 53.9241 24.7533 53.9241 24.7533C53.9241 24.7533 57.7403 24.6773 62.0581 23.6717C64.3958 23.1287 66.434 22.2908 66.434 22.2908L67.6505 25.9465C68.7099 25.8571 70.3195 16.3335 67.4615 13.1425C65.4589 10.908 57.3585 15.643 57.3585 15.643C57.3585 15.643 48.298 13.3839 43.1978 21.1914C38.0995 28.9967 44.1842 37.8254 44.1842 37.8254C44.1842 37.8254 45.6571 33.8367 51.8372 37.6801L51.8391 37.6779Z" fill="black"/>
<path d="M61.7346 17.7278C61.7346 17.7278 63.973 10.0052 59.3146 8.77618C54.6561 7.54941 50.9203 14.4631 50.9203 14.4631C50.9203 14.4631 50.78 10.6376 47.3212 11.947C43.8625 13.2564 40.8099 25.4705 42.5224 26.371C44.2368 27.2715 61.7327 17.7278 61.7327 17.7278H61.7346Z" fill="black"/>
<path d="M64.6707 47.644C64.5734 47.644 64.476 47.6351 64.3731 47.6172C62.6269 47.3133 61.9381 45.2285 61.9082 45.1391C61.8633 44.9961 61.8782 44.8374 61.9512 44.7123C62.0242 44.5871 62.1421 44.5112 62.2713 44.5112H66.8998C67.0308 44.5112 67.1543 44.5916 67.2255 44.7235C67.2966 44.8553 67.3078 45.0206 67.2535 45.1637C67.2123 45.2709 66.2971 47.644 64.6726 47.644H64.6707ZM62.9263 45.4363C63.2127 45.9346 63.7199 46.5692 64.4854 46.701C65.264 46.8373 65.8779 46.0441 66.226 45.4363H62.9263Z" fill="black"/>
<path d="M229.317 89.2646C229.317 89.2646 234.075 69.2967 235.843 69.7459C237.612 70.195 223.82 114.537 222.757 114.256C221.694 113.977 229.317 89.2646 229.317 89.2646Z" fill="#465884"/>
<path d="M225.907 113.608C224.899 114.088 219.666 88.507 219.666 88.507C219.666 88.507 217.058 78.9365 216.04 72.8563C215.591 70.2016 215.451 68.2039 215.956 67.9581C216.293 67.8017 216.927 69.4977 217.732 72.3312C220.936 83.6983 226.712 113.228 225.907 113.608Z" fill="#A37B90"/>
<path d="M229.362 116.441H219.535C218.896 116.441 218.356 115.878 218.256 115.112L215.735 95.5772C215.612 94.623 216.22 93.7605 217.014 93.7605H231.884C232.679 93.7605 233.285 94.623 233.162 95.5772L230.641 115.112C230.542 115.878 229.999 116.441 229.362 116.441Z" fill="#B1A5B7"/>
<path d="M217.732 72.3333L216.04 72.8584C215.591 70.2038 215.451 68.2061 215.956 67.9603C216.293 67.8039 216.927 69.4999 217.732 72.3333Z" fill="white"/>
</svg>
