<svg width="41" height="41" viewBox="0 0 41 41" fill="none" xmlns="http://www.w3.org/2000/svg">
<g id="Group 56">
<path id="Vector" d="M20.5 0C15.0643 0 9.84641 2.16115 6.00586 6.00426C2.16135 9.84889 0.00106494 15.063 0 20.5C0 25.9347 2.16211 31.1526 6.00586 34.9957C9.84641 38.8389 15.0643 41 20.5 41C25.9357 41 31.1536 38.8389 34.9941 34.9957C38.8379 31.1526 41 25.9347 41 20.5C41 15.0653 38.8379 9.84737 34.9941 6.00426C31.1536 2.16115 25.9357 0 20.5 0Z" fill="black"/>
<path id="Vector_2" d="M9.28213 20.2836C15.2592 17.6801 19.2439 15.9635 21.2362 15.1342C26.9314 12.7662 28.1133 12.3549 28.8853 12.3409C29.055 12.3382 29.433 12.3802 29.6796 12.5796C29.8846 12.7477 29.9423 12.9752 29.9711 13.1348C29.9968 13.2944 30.032 13.6579 30.0032 13.9417C29.6957 17.1833 28.36 25.0495 27.6809 28.6802C27.3958 30.2164 26.8289 30.7315 26.2811 30.7818C25.0896 30.8913 24.1863 29.9951 23.0332 29.2395C21.2298 28.0566 20.2112 27.3205 18.4591 26.1664C16.4347 24.8326 17.748 24.0994 18.9011 22.9015C19.2022 22.5879 24.4489 17.8168 24.5482 17.3841C24.561 17.33 24.5739 17.1282 24.4521 17.0218C24.3336 16.9152 24.1575 16.9517 24.0293 16.9805C23.8468 17.0215 20.9671 18.9267 15.3809 22.6958C14.5641 23.2577 13.8242 23.5315 13.1579 23.5171C12.4276 23.5014 11.0182 23.1033 9.9708 22.7631C8.68955 22.3457 7.66775 22.125 7.75744 21.4162C7.80228 21.0472 8.31158 20.6695 9.28213 20.2836Z" fill="white"/>
</g>
</svg>
