<svg width="69" height="137" viewBox="0 0 69 137" fill="none" xmlns="http://www.w3.org/2000/svg">
<path d="M6.47764 133.361C0.363804 130.944 4.54372 128.72 6.09086 118.663C7.638 108.607 1.44944 107.451 0.289085 95.074C-0.87127 82.6969 1.83622 82.3101 1.83622 79.6026C1.83622 76.8951 -0.0977 14.2404 3.38336 7.66504C6.86443 1.0897 17.6944 -4.32529 23.105 4.95754C28.52 14.2404 26.5861 25.8439 26.5861 34.74C26.5861 43.636 26.1993 53.3056 26.1993 53.3056C26.1993 53.3056 30.8407 36.6739 33.1614 25.8439C35.4821 15.0139 36.6425 9.98574 38.9632 6.50468C41.2839 3.02362 47.4724 0.70291 55.2081 4.95754C62.9438 9.21217 61.3967 11.9197 59.4628 20.4289C57.5288 28.9382 49.0196 50.2114 48.6328 52.5321C48.246 54.8528 52.5006 50.9849 55.9817 54.8528C59.4628 58.7206 59.4628 61.8149 59.4628 61.8149C59.4628 61.8149 64.8778 63.362 67.5852 69.5506C70.2927 75.7392 68.7456 82.7013 66.0381 87.3427C63.3306 91.9841 63.7174 92.3709 63.7174 96.6255C63.7174 100.88 62.557 103.201 61.0099 109.776C59.4628 116.352 62.9438 124.861 60.6231 129.889C58.3024 134.917 23.1094 139.945 6.47764 133.37V133.361Z" fill="#79C9BC"/>
<path d="M7.37864 125.401C7.0402 126.183 7.40061 127.093 8.18297 127.436C8.38516 127.524 8.59174 127.563 8.79831 127.563C9.39607 127.563 9.96306 127.216 10.218 126.631C10.385 126.245 14.31 117.023 10.6092 108.387C7.15448 100.326 5.02716 94.537 6.81604 87.7331C8.17858 82.5642 15.7429 77.0218 21.8215 72.5694C23.65 71.2288 25.3729 69.9674 26.7926 68.8158C30.6561 65.6776 34.3217 64.2139 36.8534 64.7897C38.1896 65.0974 39.1829 65.9808 39.8861 67.4928C40.9498 69.7784 40.44 72.1518 39.8246 73.7429C38.6774 76.7009 36.1721 79.4744 33.7328 80.4941C29.5309 82.2478 23.3511 81.5533 23.2896 81.5445C22.4457 81.4522 21.6721 82.05 21.5754 82.9027C21.4787 83.751 22.0809 84.5201 22.9291 84.6168C23.0918 84.6344 25.3773 84.8937 28.2255 84.7223C27.4563 85.5662 26.5421 86.498 25.5839 87.3199C24.9334 87.8737 24.8587 88.8539 25.4169 89.5C25.7202 89.856 26.1553 90.0406 26.5904 90.0406C26.9464 90.0406 27.3068 89.9175 27.5969 89.667C29.6979 87.8693 31.5439 85.6629 32.3834 84.6124C32.0845 87.5001 31.9571 91.746 33.3635 94.2689C33.6273 94.748 33.869 95.2314 34.1063 95.7017C35.0645 97.6137 36.0491 99.5916 38.1061 100.062C38.3917 100.128 38.6774 100.159 38.9763 100.159C40.2729 100.159 41.7014 99.53 43.398 98.2246C43.5826 98.084 43.7672 97.9214 43.9474 97.7675C44.5276 99.7806 45.8242 101.446 47.4988 102.141C47.9559 102.33 48.5888 102.506 49.3536 102.506C50.6897 102.506 52.4347 101.969 54.3774 100.027C55.6037 98.8004 57.0321 96.9896 58.4782 94.8666C58.3859 97.3939 57.898 100.739 56.2146 103.552C53.2126 108.558 53.1335 110.206 53.2478 112.927C53.2654 113.371 53.2874 113.854 53.2874 114.404C53.2874 117.99 54.7993 125.959 54.8609 126.297C55.0015 127.036 55.652 127.554 56.3772 127.554C56.4739 127.554 56.5706 127.546 56.6673 127.528C57.5068 127.37 58.0562 126.557 57.898 125.717C57.8848 125.638 56.3772 117.7 56.3772 114.404C56.3772 113.802 56.3553 113.278 56.3333 112.795C56.241 110.659 56.197 109.586 58.8606 105.143C62.5834 98.9367 61.4362 90.9197 61.3835 90.5812C61.3703 90.4889 61.3219 90.4142 61.2912 90.3263C64.1657 85.2585 66.5699 79.5315 66.8116 75.4307C67.26 67.84 58.1222 64.0118 57.731 63.8535C57.6695 63.8272 57.6079 63.8359 57.5464 63.8184C57.353 61.8009 56.786 60.1703 55.7971 58.9572C54.2499 57.0628 51.7974 56.1838 48.5448 56.3903C47.2351 56.4694 46.1099 56.8255 45.1297 57.3617C45.1913 55.9068 45.433 53.863 46.2022 51.9335C47.8636 47.78 55.1729 27.3287 57.1113 17.6283C58.276 11.8046 54.751 8.12135 50.7469 7.05769C46.9318 6.04678 42.075 7.36097 40.5938 11.8046C38.2951 18.6964 30.5022 44.0088 28.9375 52.228C27.764 58.3902 25.8784 59.7527 25.329 60.0252C25.0301 60.1747 24.7532 60.2098 24.4675 60.1351C22.8764 56.2013 22.6786 26.2914 23.8741 14.3802C24.2609 10.5256 22.9116 7.38734 20.081 5.54132C17.101 3.5986 12.9475 3.5107 9.75209 5.32156C6.80286 6.99176 5.18979 9.97616 5.32165 13.51C5.70404 23.7993 5.32165 82.4675 5.32165 83.0609C5.32165 83.1928 5.3656 83.3114 5.39637 83.4345C4.67993 84.5861 4.13931 85.7508 3.82725 86.9331C1.78784 94.6776 4.17448 101.209 7.76982 109.595C10.9344 116.984 7.42259 125.304 7.38303 125.387L7.37864 125.401ZM56.3157 73.8132C56.9794 71.3255 57.375 69.141 57.5376 67.2027C59.555 68.2664 63.9635 71.075 63.7174 75.2593C63.3701 81.1973 56.8168 93.214 52.1798 97.8466C51.2436 98.7784 49.8722 99.7849 48.6767 99.2883C47.5691 98.8312 46.6988 97.1478 46.6988 95.46C46.6988 95.3193 46.6549 95.1963 46.6197 95.0688C50.4964 90.4362 53.8104 83.2103 56.3157 73.8132ZM48.7251 59.489C50.9667 59.3615 52.505 59.8274 53.3972 60.9219C54.4829 62.2492 55.3487 65.427 53.3269 73.0133C50.3249 84.2652 46.2373 92.1372 41.5036 95.7765C39.7894 97.095 39.0379 97.1038 38.7917 97.0511C38.1588 96.906 37.5039 95.5919 36.8666 94.3216C36.6117 93.8118 36.3479 93.2887 36.0623 92.7701C34.9458 90.7658 35.2315 85.9794 35.7194 82.9466C38.6379 81.4127 41.3761 78.2832 42.7035 74.8593C43.8331 71.9496 43.8771 69.1235 42.8661 66.6357C43.0771 65.2117 44.1891 59.7483 48.7207 59.4846L48.7251 59.489ZM8.40713 13.4089C8.31923 11.0354 9.33893 9.12347 11.2729 8.02905C13.4573 6.78958 16.3846 6.84232 18.3888 8.14772C20.2304 9.34763 21.0612 11.4002 20.793 14.0857C20.2129 19.8919 19.9096 31.2757 20.059 41.7716C20.3403 61.5812 21.8215 62.3196 22.8017 62.8118C24.0543 63.436 25.4389 63.4404 26.7003 62.8118C29.1704 61.59 30.9461 58.2276 31.9746 52.817C33.5174 44.7296 41.2443 19.637 43.5254 12.7935C44.4177 10.1168 47.4372 9.38719 49.9513 10.0553C52.4874 10.7278 54.9004 12.9122 54.0785 17.0262C52.1754 26.5376 44.9671 46.6943 43.3277 50.7907C41.6618 54.9531 42.0486 59.4407 42.0618 59.6253C42.075 59.7703 42.1321 59.9022 42.1805 60.0296C41.4509 61.0449 40.9102 62.1657 40.5191 63.2602C39.6576 62.5305 38.6555 62.0207 37.5391 61.7658C34.0228 60.9614 29.5133 62.6053 24.8367 66.4072C23.4786 67.5104 21.782 68.7499 19.9887 70.0685C16.1296 72.8946 11.7212 76.1339 8.42911 79.6062C8.50383 66.7896 8.73678 22.2917 8.40713 13.4045V13.4089Z" fill="white"/>
</svg>
